<?xml version="1.0" encoding="UTF-8"?>
<svg version="1.1" xmlns="http://www.w3.org/2000/svg" width="400" height="400">
<path d="M0 0 C132 0 264 0 400 0 C400 132 400 264 400 400 C268 400 136 400 0 400 C0 268 0 136 0 0 Z " fill="#FEFEFE" transform="translate(0,0)"/>
<path d="M0 0 C0.73138184 -0.00570007 1.46276367 -0.01140015 2.21630859 -0.01727295 C3.75926291 -0.0266682 5.30223679 -0.03323498 6.84521484 -0.03710938 C9.15369849 -0.04673407 11.46125885 -0.07777512 13.76953125 -0.109375 C44.99179047 -0.33286796 74.62937054 12.07163255 98.1875 32.203125 C99.01894531 32.90050781 99.85039062 33.59789062 100.70703125 34.31640625 C119.84634343 50.8685303 132.47144073 73.35876138 140.1875 97.203125 C140.60257812 98.43804687 141.01765625 99.67296875 141.4453125 100.9453125 C148.95660416 126.32600501 146.49434424 160.45185768 135.1875 184.203125 C134.36869263 186.24227029 133.55628153 188.28399459 132.75 190.328125 C120.16489962 220.31484567 93.71502994 245.15900311 64.1875 258.203125 C49.88735765 263.85419002 34.80699724 268.23402743 19.3671875 268.4765625 C18.26822647 268.49535461 18.26822647 268.49535461 17.14706421 268.51452637 C0.85741819 268.73918443 -14.21986013 268.48057964 -29.8125 263.203125 C-30.51101074 262.98382324 -31.20952148 262.76452148 -31.92919922 262.53857422 C-48.55409178 257.29542951 -63.51403761 248.37527497 -76.8125 237.203125 C-77.68132812 236.48640625 -78.55015625 235.7696875 -79.4453125 235.03125 C-97.34249765 219.65874614 -109.64444614 199.31435959 -117.5625 177.265625 C-117.84432129 176.49202637 -118.12614258 175.71842773 -118.41650391 174.92138672 C-123.04476337 161.50634212 -124.36675369 148.50927071 -124.25 134.453125 C-124.24662628 133.66253693 -124.24325256 132.87194885 -124.23977661 132.05740356 C-124.16557859 120.04233065 -123.53083051 108.71313302 -119.8125 97.203125 C-119.57644043 96.43871094 -119.34038086 95.67429687 -119.09716797 94.88671875 C-113.51447108 77.17758357 -104.73626924 61.39992295 -92.8125 47.203125 C-92.10738281 46.34589844 -91.40226562 45.48867187 -90.67578125 44.60546875 C-69.02879484 19.35732009 -33.65762134 0.20961506 0 0 Z " fill="#0A2D1F" transform="translate(189.8125,65.796875)"/>
<path d="M0 0 C9.57 0 19.14 0 29 0 C29 44.22 29 88.44 29 134 C17.20582958 136.9485426 6.14703354 138.3460183 -6 138.3125 C-7.75183594 138.33666992 -7.75183594 138.33666992 -9.5390625 138.36132812 C-24.8406092 138.36981014 -39.50016032 135.21893938 -50.73828125 124.421875 C-59.74557503 114.77675903 -62.57460081 104.66698703 -62.4375 91.625 C-62.42992676 90.61421387 -62.42235352 89.60342773 -62.41455078 88.56201172 C-62.11868642 75.15741258 -57.82511381 64.99499527 -48.625 55.25 C-36.36837833 43.71278874 -22.22365329 42.37845529 -6.08374023 42.82299805 C-4 43 -4 43 0 44 C0 29.48 0 14.96 0 0 Z " fill="#FBFDFC" transform="translate(182,119)"/>
<path d="M0 0 C9.57 0 19.14 0 29 0 C29.0455555 10.08528699 29.0820888 20.17050336 29.10362434 30.25587082 C29.11397094 34.94112788 29.12795873 39.62630967 29.15087891 44.31152344 C29.17293864 48.85032112 29.18463677 53.38904735 29.18975449 57.92789459 C29.19339185 59.64184949 29.20049007 61.35580139 29.21146011 63.06972504 C29.26845537 72.36151773 29.00793709 81.54345362 28.12451172 90.79785156 C28.01030223 92.03203386 28.01030223 92.03203386 27.89378548 93.29114914 C26.57031369 105.83309924 20.91262635 115.85831484 11.5625 124.25 C1.7751452 132.1018779 1.7751452 132.1018779 -2.24609375 131.87109375 C-6.02503351 130.67576954 -9.42449208 128.94510995 -12.9375 127.125 C-13.62779297 126.77308594 -14.31808594 126.42117188 -15.02929688 126.05859375 C-16.38252367 125.36851222 -17.73461467 124.676198 -19.08544922 123.98144531 C-21.71362051 122.63418076 -24.35597054 121.31580809 -27 120 C-27 119.34 -27 118.68 -27 118 C-25.20197473 116.91818813 -23.35903908 115.91073457 -21.5 114.9375 C-13.28011984 110.24596462 -6.89800256 104.30515159 -3.81283569 95.15328979 C-2.84178836 91.38623862 -2.34013645 87.63279743 -1.92431641 83.77392578 C-1.83862207 82.98519136 -1.75292774 82.19645695 -1.66463661 81.38382149 C-0.80714828 72.94314968 -0.64906177 64.53222263 -0.5859375 56.0546875 C-0.56715455 54.42130637 -0.54757635 52.78793421 -0.5272522 51.15457153 C-0.47667543 46.92325215 -0.4366596 42.69190155 -0.39910889 38.46044922 C-0.35859283 34.11548627 -0.30772186 29.77064465 -0.2578125 25.42578125 C-0.16193912 16.95059905 -0.07822238 8.4753635 0 0 Z " fill="#FBFCFC" transform="translate(228,164)"/>
<path d="M0 0 C0 15.18 0 30.36 0 46 C-21.61157621 46 -21.61157621 46 -26.3984375 41.87109375 C-32.31226985 34.96200669 -32.68915048 27.55134369 -32.3125 18.75 C-31.68930353 11.27164233 -29.39245091 6.49942624 -23.8046875 1.41015625 C-17.34809967 -3.63492645 -7.08163631 -3.54081816 0 0 Z " fill="#0B2D1F" transform="translate(182,187)"/>
<path d="M0 0 C9.57 0 19.14 0 29 0 C29 9.9 29 19.8 29 30 C19.43 30 9.86 30 0 30 C0 20.1 0 10.2 0 0 Z " fill="#F6FAF8" transform="translate(228,119)"/>
<path d="M0 0 C9.57 0 19.14 0 29 0 C29 44.22 29 88.44 29 134 C21 136 21 136 18 135 C18.84884766 134.72736328 18.84884766 134.72736328 19.71484375 134.44921875 C20.44832031 134.19785156 21.18179688 133.94648438 21.9375 133.6875 C22.66839844 133.44386719 23.39929688 133.20023438 24.15234375 132.94921875 C26.35932024 132.08759559 26.35932024 132.08759559 27 129 C27.10175883 127.26213139 27.14628339 125.52066578 27.15821838 123.77986145 C27.1680072 122.69872574 27.17779602 121.61759003 27.18788147 120.50369263 C27.19363693 119.31758392 27.1993924 118.13147522 27.20532227 116.90942383 C27.21522186 115.66052872 27.22512146 114.41163361 27.23532104 113.12489319 C27.2615172 109.69956533 27.28337578 106.27426089 27.30332303 102.84889436 C27.32518772 99.26941051 27.35257405 95.68996906 27.37937927 92.11051941 C27.42929962 85.33202637 27.47424089 78.55350979 27.51740164 71.77497071 C27.56677963 64.05797045 27.62169568 56.34101272 27.67708123 48.6240536 C27.79089119 32.74940686 27.89700127 16.87472112 28 1 C18.76 1 9.52 1 0 1 C0 0.67 0 0.34 0 0 Z " fill="#E1EDE8" transform="translate(182,119)"/>
<path d="M0 0 C1.485 0.99 1.485 0.99 3 2 C2.34 2 1.68 2 1 2 C1.0169693 2.93881012 1.0339386 3.87762024 1.05142212 4.84487915 C1.21014751 13.70196822 1.35783345 22.55918209 1.49477577 31.41663551 C1.5655285 35.97009252 1.64013864 40.52341754 1.72363281 45.07666016 C1.80409993 49.4726291 1.87434483 53.86865451 1.93757248 58.26490402 C1.96345096 59.94024017 1.99298217 61.6155241 2.02626419 63.29072952 C2.0723318 65.64121307 2.10528475 67.99154871 2.13525391 70.34228516 C2.1517952 71.03136963 2.16833649 71.7204541 2.18537903 72.43041992 C2.22248147 76.67276265 1.55076642 80.05657343 0 84 C-0.33 84 -0.66 84 -1 84 C-0.67 56.28 -0.34 28.56 0 0 Z " fill="#E6F1ED" transform="translate(228,164)"/>
<path d="M0 0 C1.97161865 1.20906067 1.97161865 1.20906067 4 3 C4.48101807 5.14506531 4.48101807 5.14506531 4.45410156 7.6550293 C4.45379944 8.59577805 4.45349731 9.53652679 4.45318604 10.50578308 C4.43254089 11.51836685 4.41189575 12.53095062 4.390625 13.57421875 C4.38496521 14.61318802 4.37930542 15.65215729 4.37347412 16.72261047 C4.35106327 20.04470681 4.3008569 23.36572904 4.25 26.6875 C4.22994115 28.93813548 4.21168931 31.18878784 4.1953125 33.43945312 C4.1511832 38.9600026 4.08422421 44.47992457 4 50 C0.5309615 50.96470453 -2.15452847 50.94772909 -5.75 50.5625 C-7.22726563 50.40974609 -7.22726563 50.40974609 -8.734375 50.25390625 C-9.48203125 50.17011719 -10.2296875 50.08632812 -11 50 C-11 49.67 -11 49.34 -11 49 C-6.71 49 -2.42 49 2 49 C1.93130657 42.48513059 1.84343033 35.97091433 1.73754883 29.45654297 C1.70423784 27.23916854 1.67622537 25.02170806 1.65356445 22.80419922 C1.62013181 19.62169623 1.56782218 16.43998635 1.51171875 13.2578125 C1.50532883 12.26194122 1.4989389 11.26606995 1.49235535 10.24002075 C1.46266411 8.85881546 1.46266411 8.85881546 1.43237305 7.44970703 C1.42126999 6.6369632 1.41016693 5.82421936 1.39872742 4.98684692 C1.16278126 2.59816831 1.16278126 2.59816831 -2 1 C-1.34 0.67 -0.68 0.34 0 0 Z " fill="#E3F2EC" transform="translate(180,184)"/>
<path d="M0 0 C-0.99 0.495 -0.99 0.495 -2 1 C0.31 1.33 2.62 1.66 5 2 C5 2.33 5 2.66 5 3 C-6.88 3 -18.76 3 -31 3 C-31 2.67 -31 2.34 -31 2 C-30.06027344 1.90912109 -30.06027344 1.90912109 -29.1015625 1.81640625 C-27.87566406 1.69072266 -27.87566406 1.69072266 -26.625 1.5625 C-25.81289062 1.48128906 -25.00078125 1.40007812 -24.1640625 1.31640625 C-21.95727195 1.10909886 -21.95727195 1.10909886 -20 0 C-17.36933708 -0.26017545 -14.76177437 -0.46632685 -12.125 -0.625 C-11.40441406 -0.6765625 -10.68382812 -0.728125 -9.94140625 -0.78125 C-6.44885852 -0.99993623 -3.33440481 -1.16966033 0 0 Z " fill="#1B342A" transform="translate(212,331)"/>
<path d="M0 0 C0.33 0 0.66 0 1 0 C1.16829455 4.18065038 1.32877828 8.36150738 1.48217773 12.54272461 C1.5353937 13.96370413 1.59070571 15.38460681 1.64819336 16.80541992 C1.73067774 18.85318439 1.80550405 20.90111102 1.87890625 22.94921875 C1.9260376 24.17987061 1.97316895 25.41052246 2.02172852 26.6784668 C1.98669998 32.03310904 0.66095218 36.91944039 -1 42 C-1.99 42.495 -1.99 42.495 -3 43 C-2.85704109 41.60386935 -2.71048442 40.20810692 -2.5625 38.8125 C-2.48128906 38.03519531 -2.40007812 37.25789063 -2.31640625 36.45703125 C-2 34 -2 34 -1.5 31.7734375 C-0.91854757 28.54819357 -0.78461194 25.44384423 -0.68359375 22.16796875 C-0.64169922 20.87568359 -0.59980469 19.58339844 -0.55664062 18.25195312 C-0.51683648 16.89713808 -0.47712409 15.54232033 -0.4375 14.1875 C-0.39426277 12.81313895 -0.35064688 11.43878976 -0.30664062 10.06445312 C-0.2007021 6.70973331 -0.09862811 3.3549414 0 0 Z " fill="#CBD9D3" transform="translate(334,188)"/>
<path d="M0 0 C0 3 0 3 -1 5 C-1.66 5 -2.32 5 -3 5 C-2.67 5.99 -2.34 6.98 -2 8 C-4 11 -4 11 -7 12 C-8.68538601 13.99665314 -8.68538601 13.99665314 -10 16 C-10.66 15.34 -11.32 14.68 -12 14 C-8.34161026 8.88863277 -4.55388068 4.33702922 0 0 Z " fill="#EDF6F2" transform="translate(137,171)"/>
<path d="M0 0 C-0.33 0.33 -0.66 0.66 -1 1 C-3.02408755 0.90997602 -5.04544287 0.75358962 -7.0625 0.5625 C-8.71958984 0.40974609 -8.71958984 0.40974609 -10.41015625 0.25390625 C-11.26480469 0.17011719 -12.11945313 0.08632812 -13 0 C-13 0.99 -13 1.98 -13 3 C-14.98 3 -16.96 3 -19 3 C-18.67 2.01 -18.34 1.02 -18 0 C-19.65 0 -21.3 0 -23 0 C-23 -0.33 -23 -0.66 -23 -1 C-15.73691811 -2.32056034 -6.5620734 -3.96230208 0 0 Z " fill="#243D32" transform="translate(198,68)"/>
<path d="M0 0 C0 0.66 0 1.32 0 2 C0.66 2.33 1.32 2.66 2 3 C2.99 3.66 3.98 4.32 5 5 C5 5.66 5 6.32 5 7 C-0.19644079 5.40109514 -5.06612142 3.25861997 -10 1 C-3.625 -1.125 -3.625 -1.125 0 0 Z " fill="#E6F3EE" transform="translate(261,75)"/>
<path d="M0 0 C0.66 0.33 1.32 0.66 2 1 C2.20413361 6.73842251 2.27141454 11.60539047 0 17 C-0.33 17 -0.66 17 -1 17 C-1.10477512 11.21408489 -0.99250545 5.70690634 0 0 Z " fill="#E1EBE7" transform="translate(228,231)"/>
<path d="M0 0 C0.66 0 1.32 0 2 0 C2 3.3 2 6.6 2 10 C-1.7857779 10.94644447 -3.95261384 10.9693628 -7.75 10.5625 C-8.73484375 10.46066406 -9.7196875 10.35882813 -10.734375 10.25390625 C-11.48203125 10.17011719 -12.2296875 10.08632812 -13 10 C-13 9.67 -13 9.34 -13 9 C-8.71 9 -4.42 9 0 9 C0 6.03 0 3.06 0 0 Z " fill="#CFDED9" transform="translate(182,224)"/>
<path d="M0 0 C0.66 0.33 1.32 0.66 2 1 C-1.3 3.97 -4.6 6.94 -8 10 C-8.66 9.67 -9.32 9.34 -10 9 C-9.525625 8.21625 -9.05125 7.4325 -8.5625 6.625 C-7.66101977 5.11051322 -6.78820515 3.5764103 -6 2 C-5.34 2.33 -4.68 2.66 -4 3 C-3.67 2.34 -3.34 1.68 -3 1 C-2.01 0.67 -1.02 0.34 0 0 Z " fill="#E6EFEA" transform="translate(112,96)"/>
<path d="M0 0 C0.99 0.99 1.98 1.98 3 3 C1.35 4.98 -0.3 6.96 -2 9 C-2.66 8.67 -3.32 8.34 -4 8 C-2.87548273 5.0280615 -1.77706209 2.66559313 0 0 Z " fill="#19352A" transform="translate(305,278)"/>
<path d="M0 0 C4.29 0 8.58 0 13 0 C13 0.33 13 0.66 13 1 C8.49646738 2.75747614 4.82360189 3.19294408 0 3 C0 2.01 0 1.02 0 0 Z " fill="#1B342A" transform="translate(204,66)"/>
<path d="M0 0 C1.65 0.33 3.3 0.66 5 1 C5 1.99 5 2.98 5 4 C4.34 4.66 3.68 5.32 3 6 C3 5.34 3 4.68 3 4 C1.02 4 -0.96 4 -3 4 C-2.01 2.68 -1.02 1.36 0 0 Z " fill="#153126" transform="translate(105,104)"/>
<path d="M0 0 C1.65 0 3.3 0 5 0 C4.95875 0.70125 4.9175 1.4025 4.875 2.125 C5.01668332 5.38371628 5.86734686 7.9559947 7 11 C6.01 11.495 6.01 11.495 5 12 C3.35 8.04 1.7 4.08 0 0 Z " fill="#E3EFEA" transform="translate(319,137)"/>
<path d="M0 0 C3.96 1.98 7.92 3.96 12 6 C11.67 6.99 11.34 7.98 11 9 C10.34 8.34 9.68 7.68 9 7 C8.360625 6.855625 7.72125 6.71125 7.0625 6.5625 C4.60812713 5.89312558 3.72817117 4.80672441 2 3 C1.34 3 0.68 3 0 3 C0 2.01 0 1.02 0 0 Z " fill="#DAE8E2" transform="translate(128,314)"/>
<path d="M0 0 C0.33 0.99 0.66 1.98 1 3 C0.67 3.33 0.34 3.66 0 4 C-2.33944736 3.71269945 -4.6739143 3.38063221 -7 3 C-7 2.01 -7 1.02 -7 0 C-3.98968256 -0.93423645 -3.13349732 -1.04449911 0 0 Z " fill="#223C30" transform="translate(168,229)"/>
<path d="M0 0 C0.33 0 0.66 0 1 0 C1.18451025 9.41002278 1.18451025 9.41002278 0 14 C-2 12 -2 12 -2.01171875 9.94140625 C-1.90472656 9.15636719 -1.79773438 8.37132812 -1.6875 7.5625 C-1.58824219 6.78003906 -1.48898437 5.99757812 -1.38671875 5.19140625 C-1 3 -1 3 0 0 Z " fill="#293F35" transform="translate(333,208)"/>
<path d="M0 0 C3.96 0 7.92 0 12 0 C12 0.33 12 0.66 12 1 C7.545 1.495 7.545 1.495 3 2 C3 2.99 3 3.98 3 5 C2.01 5.33 1.02 5.66 0 6 C-0.66 5.34 -1.32 4.68 -2 4 C-1.01 3.67 -0.02 3.34 1 3 C0.67 2.01 0.34 1.02 0 0 Z " fill="#324B42" transform="translate(166,185)"/>
<path d="M0 0 C0.763125 0.20625 1.52625 0.4125 2.3125 0.625 C-0.94602365 2.7973491 -4.27994728 4.69619658 -7.6875 6.625 C-6.22846393 2.36012534 -5.12714281 -0.71541528 0 0 Z " fill="#20342C" transform="translate(145.6875,164.375)"/>
<path d="M0 0 C0.66 0.33 1.32 0.66 2 1 C0.8553125 1.8971875 0.8553125 1.8971875 -0.3125 2.8125 C-2.91335259 4.84004112 -2.91335259 4.84004112 -4.6875 6.75 C-6 8 -6 8 -8 8 C-7.9375 6.25 -7.9375 6.25 -7 4 C-4.74876994 2.27481113 -2.59865097 1.23093993 0 0 Z " fill="#E0EDE8" transform="translate(269,315)"/>
<path d="M0 0 C0.66 1.32 1.32 2.64 2 4 C-0.78407039 7.08236365 -1.80825346 7.95206337 -6 9 C-4.02 6.03 -2.04 3.06 0 0 Z " fill="#E8F0EC" transform="translate(222,264)"/>
<path d="M0 0 C0.66 0 1.32 0 2 0 C2 1.65 2 3.3 2 5 C-5.625 7.125 -5.625 7.125 -9 6 C-8.15115234 5.72736328 -8.15115234 5.72736328 -7.28515625 5.44921875 C-6.55167969 5.19785156 -5.81820312 4.94648438 -5.0625 4.6875 C-3.96615234 4.32205078 -3.96615234 4.32205078 -2.84765625 3.94921875 C-0.64067976 3.08759559 -0.64067976 3.08759559 0 0 Z " fill="#D7E6E0" transform="translate(209,248)"/>
<path d="M0 0 C0.66 0 1.32 0 2 0 C1.67 3.63 1.34 7.26 1 11 C-0.99512373 7.00975253 -1.28727578 5.30913667 -1 1 C-0.67 0.67 -0.34 0.34 0 0 Z " fill="#DFEDE8" transform="translate(67,166)"/>
<path d="M0 0 C-0.99 0.495 -0.99 0.495 -2 1 C0.31 1.33 2.62 1.66 5 2 C5 2.33 5 2.66 5 3 C1.37 3 -2.26 3 -6 3 C-6 2.01 -6 1.02 -6 0 C-3.50907189 -1.24546405 -2.58919267 -0.7767578 0 0 Z " fill="#213B30" transform="translate(212,331)"/>
<path d="M0 0 C0.66 0.33 1.32 0.66 2 1 C-0.31 4.63 -2.62 8.26 -5 12 C-5.33 11.34 -5.66 10.68 -6 10 C-4.15885893 6.50818073 -2.18840439 3.28260659 0 0 Z " fill="#DCE8E2" transform="translate(250,271)"/>
<path d="M0 0 C0.99 0.66 1.98 1.32 3 2 C1.92598892 4.91517292 1.22189824 6.77810176 -1 9 C-1.80967438 6.08517222 -2.21845993 4.53886783 -1.0625 1.6875 C-0.711875 1.130625 -0.36125 0.57375 0 0 Z " fill="#233A30" transform="translate(220,260)"/>
<path d="M0 0 C0.66 0 1.32 0 2 0 C2 2.31 2 4.62 2 7 C1.34 7 0.68 7 0 7 C0 8.98 0 10.96 0 13 C-0.33 13 -0.66 13 -1 13 C-1.07654536 8.48382401 -1.10228696 4.40914783 0 0 Z " fill="#354B41" transform="translate(67,177)"/>
<path d="M0 0 C0.66 2.31 1.32 4.62 2 7 C1.01 7 0.02 7 -1 7 C-4 3.66666667 -4 3.66666667 -4 1 C-2 0 -2 0 0 0 Z " fill="#223C32" transform="translate(325,149)"/>
<path d="M0 0 C2.04119788 1.61594832 4.04072937 3.2856382 6 5 C6 5.66 6 6.32 6 7 C4.35 7 2.7 7 1 7 C1 6.01 1 5.02 1 4 C0.6937566 2.66018514 0.36548445 1.32488113 0 0 Z " fill="#173428" transform="translate(284,95)"/>
<path d="M0 0 C2 3 2 3 1.625 5.6875 C1.41875 6.450625 1.2125 7.21375 1 8 C0.01 7.67 -0.98 7.34 -2 7 C-2 6.34 -2 5.68 -2 5 C-2.66 4.67 -3.32 4.34 -4 4 C-2.68 2.68 -1.36 1.36 0 0 Z " fill="#133427" transform="translate(115,95)"/>
<path d="M0 0 C4.95 0.99 4.95 0.99 10 2 C10 2.33 10 2.66 10 3 C2.25 4.125 2.25 4.125 0 3 C0 2.01 0 1.02 0 0 Z " fill="#DDE9E5" transform="translate(165,330)"/>
<path d="M0 0 C0.99 0.33 1.98 0.66 3 1 C3.8125 2.9375 3.8125 2.9375 4 5 C3.34 5.66 2.68 6.32 2 7 C0.35 5.35 -1.3 3.7 -3 2 C-2.01 2 -1.02 2 0 2 C0 1.34 0 0.68 0 0 Z " fill="#1A392D" transform="translate(113,298)"/>
<path d="M0 0 C0.99 0.66 1.98 1.32 3 2 C1.35 3.65 -0.3 5.3 -2 7 C-2.99 6.67 -3.98 6.34 -5 6 C-3.35 4.02 -1.7 2.04 0 0 Z " fill="#E8F0ED" transform="translate(307,281)"/>
<path d="M0 0 C0.66 0.33 1.32 0.66 2 1 C-0.5 7.75 -0.5 7.75 -5 10 C-3.35 6.7 -1.7 3.4 0 0 Z " fill="#DCECE5" transform="translate(320,260)"/>
<path d="M0 0 C1 3 1 3 -0.4375 6.1875 C-1.2109375 7.5796875 -1.2109375 7.5796875 -2 9 C-2.99 8.34 -3.98 7.68 -5 7 C-3.35 4.69 -1.7 2.38 0 0 Z " fill="#D9E4E0" transform="translate(130,178)"/>
<path d="M0 0 C0.99 0.99 1.98 1.98 3 3 C2.01 3.99 1.02 4.98 0 6 C-0.99 5.34 -1.98 4.68 -3 4 C-2.67 3.01 -2.34 2.02 -2 1 C-1.34 0.67 -0.68 0.34 0 0 Z " fill="#17332A" transform="translate(276,89)"/>
<path d="M0 0 C-2.64738916 1.4606285 -3.89448334 2 -7 2 C-7 2.99 -7 3.98 -7 5 C-8.32 5 -9.64 5 -11 5 C-10 2 -10 2 -8.22265625 1.015625 C-7.15337891 0.63664062 -7.15337891 0.63664062 -6.0625 0.25 C-5.35222656 -0.01296875 -4.64195312 -0.2759375 -3.91015625 -0.546875 C-2 -1 -2 -1 0 0 Z " fill="#273E35" transform="translate(159,73)"/>
<path d="M0 0 C0.33 0.99 0.66 1.98 1 3 C1.66 3 2.32 3 3 3 C3 5.31 3 7.62 3 10 C2.01 10.495 2.01 10.495 1 11 C0.67 7.37 0.34 3.74 0 0 Z " fill="#394F45" transform="translate(66,213)"/>
<path d="M0 0 C0.99 0.33 1.98 0.66 3 1 C2.5359375 1.7734375 2.5359375 1.7734375 2.0625 2.5625 C0.70940713 5.66665423 0.38640576 8.65115007 0 12 C-0.33 12 -0.66 12 -1 12 C-1.02712066 10.56260487 -1.04645067 9.12506137 -1.0625 7.6875 C-1.07410156 6.88699219 -1.08570312 6.08648437 -1.09765625 5.26171875 C-1 3 -1 3 0 0 Z " fill="#D4E1DB" transform="translate(121,196)"/>
<path d="M0 0 C0.99 0.33 1.98 0.66 3 1 C3 3.31 3 5.62 3 8 C2.01 8.495 2.01 8.495 1 9 C0.67 6.03 0.34 3.06 0 0 Z " fill="#EAF6F2" transform="translate(331,166)"/>
<path d="M0 0 C0.66 0.33 1.32 0.66 2 1 C0.35 4.63 -1.3 8.26 -3 12 C-4.31223496 8.06329512 -3.24296256 5.87511856 -2 2 C-1.34 2 -0.68 2 0 2 C0 1.34 0 0.68 0 0 Z " fill="#DEEBE6" transform="translate(79,137)"/>
<path d="M0 0 C1.98 1.65 3.96 3.3 6 5 C5.01 5.66 4.02 6.32 3 7 C1.68 5.35 0.36 3.7 -1 2 C-0.67 1.34 -0.34 0.68 0 0 Z " fill="#1A362A" transform="translate(299,110)"/>
<path d="M0 0 C0.66 1.65 1.32 3.3 2 5 C-0.64 4.34 -3.28 3.68 -6 3 C-3.375 0 -3.375 0 0 0 Z " fill="#294134" transform="translate(154,322)"/>
<path d="M0 0 C0.33 1.32 0.66 2.64 1 4 C-0.32 4.99 -1.64 5.98 -3 7 C-3.1875 4.625 -3.1875 4.625 -3 2 C-2.01 1.34 -1.02 0.68 0 0 Z " fill="#173529" transform="translate(287,298)"/>
<path d="M0 0 C1.2380014 3.57644848 0.74926071 6.33694766 0 10 C-0.66 9.67 -1.32 9.34 -2 9 C-2.25 3.375 -2.25 3.375 0 0 Z " fill="#CDD9D5" transform="translate(255,254)"/>
<path d="M0 0 C1.16959987 0.97566112 2.33561177 1.955625 3.5 2.9375 C4.1496875 3.48277344 4.799375 4.02804688 5.46875 4.58984375 C5.9740625 5.05519531 6.479375 5.52054688 7 6 C7 6.33 7 6.66 7 7 C5.35 7 3.7 7 2 7 C0.5393715 4.35261084 0 3.10551666 0 0 Z " fill="#E3EFEC" transform="translate(152,224)"/>
<path d="M0 0 C3.3 0 6.6 0 10 0 C8.68 1.32 7.36 2.64 6 4 C4.02 3.01 2.04 2.02 0 1 C0 0.67 0 0.34 0 0 Z " fill="#EAF3F0" transform="translate(174,162)"/>
<path d="M0 0 C0.33 0 0.66 0 1 0 C1 1.98 1 3.96 1 6 C-0.65 6 -2.3 6 -4 6 C-2.69593116 3.98079663 -1.36176581 1.98075027 0 0 Z " fill="#1D3A2E" transform="translate(101,108)"/>
<path d="M0 0 C0 0.66 0 1.32 0 2 C-4.455 2.495 -4.455 2.495 -9 3 C-7.14340032 -0.71319936 -3.69365381 -0.09982848 0 0 Z " fill="#D4E4DF" transform="translate(232,331)"/>
<path d="M0 0 C2.62187494 1.04874998 3.79371361 1.64931313 5.25 4.125 C5.4975 4.74375 5.745 5.3625 6 6 C5.01 6.66 4.02 7.32 3 8 C2.690625 7.05125 2.38125 6.1025 2.0625 5.125 C1.12605258 2.13919592 1.12605258 2.13919592 0 0 Z " fill="#F0F7F3" transform="translate(102,294)"/>
<path d="M0 0 C0.99 0.33 1.98 0.66 3 1 C3.33 1.99 3.66 2.98 4 4 C3.34 4 2.68 4 2 4 C1.67 4.66 1.34 5.32 1 6 C0.34 4.35 -0.32 2.7 -1 1 C-0.67 0.67 -0.34 0.34 0 0 Z " fill="#1A332A" transform="translate(89,272)"/>
<path d="M0 0 C0.33 0 0.66 0 1 0 C1.33 3.63 1.66 7.26 2 11 C-1 8 -1 8 -1.07421875 5.95703125 C-0.71614583 3.97135417 -0.35807292 1.98567708 0 0 Z " fill="#50635A" transform="translate(332,175)"/>
</svg>
