<?xml version="1.0" encoding="UTF-8"?>
<svg version="1.1" xmlns="http://www.w3.org/2000/svg" width="300" height="300">
<path d="M0 0 C99 0 198 0 300 0 C300 99 300 198 300 300 C201 300 102 300 0 300 C0 201 0 102 0 0 Z " fill="#06988B" transform="translate(0,0)"/>
<path d="M0 0 C0.66 0 1.32 0 2 0 C1.84982422 1.26457031 1.69964844 2.52914062 1.54492188 3.83203125 C0.95955743 9.10906344 0.60618517 14.38897887 0.28125 19.6875 C0.15248655 21.7044362 0.02357616 23.72136303 -0.10546875 25.73828125 C-0.30475038 28.88970025 -0.50255156 32.04119665 -0.69775391 35.19287109 C-0.88820867 38.25385246 -1.08432758 41.31442891 -1.28125 44.375 C-1.338573 45.32592529 -1.395896 46.27685059 -1.45495605 47.2565918 C-1.51171509 48.12840088 -1.56847412 49.00020996 -1.62695312 49.8984375 C-1.67501099 50.66849121 -1.72306885 51.43854492 -1.77258301 52.23193359 C-2 54 -2 54 -3 55 C-3.23115919 57.5165391 -3.40344456 60.01284261 -3.53515625 62.53515625 C-3.57346558 63.20252808 -3.6117749 63.8698999 -3.65124512 64.55749512 C-3.79344807 67.05887771 -3.92747531 69.56071966 -4.0625 72.0625 C-4.5265625 80.4465625 -4.5265625 80.4465625 -5 89 C16.78 89 38.56 89 61 89 C57.62745098 99.11764706 57.62745098 99.11764706 55.58984375 102.421875 C55.15736328 103.13730469 54.72488281 103.85273438 54.27929688 104.58984375 C53.83650391 105.30269531 53.39371094 106.01554687 52.9375 106.75 C48.98253568 113.12863118 48.98253568 113.12863118 46 120 C45.34 120 44.68 120 44 120 C43.82984375 120.59167969 43.6596875 121.18335938 43.484375 121.79296875 C43.12085938 122.97826172 43.12085938 122.97826172 42.75 124.1875 C42.51796875 124.96480469 42.2859375 125.74210937 42.046875 126.54296875 C40.79418512 129.4830506 39.00093848 131.51375928 37 134 C35.8637524 136.11829016 34.7836653 138.26730465 33.75 140.4375 C31.33303341 145.41853568 28.77852017 150.27361508 26 155.0625 C22.18961231 161.63390526 18.57978318 168.30069148 15 175 C12.32302095 179.96536437 9.62140757 184.91488433 6.8359375 189.8203125 C2.31892986 197.77812479 -2.01874776 205.75646594 -6 214 C-6.66 214 -7.32 214 -8 214 C-8.0825 214.721875 -8.165 215.44375 -8.25 216.1875 C-9.1481065 219.55539937 -10.77875936 221.35672363 -13 224 C-13.20020218 216.88170038 -13.11150443 210.06824597 -12.0859375 203.01953125 C-10.44651881 190.89674441 -9.99281691 178.66477774 -9.32275391 166.45874023 C-9.14793586 163.30938111 -8.96489416 160.16057373 -8.78125 157.01171875 C-8.73222534 156.06874435 -8.68320068 155.12576996 -8.63269043 154.15422058 C-8.24334576 147.53701162 -7.20511018 141.62810601 -6 135 C-28.11 135 -50.22 135 -73 135 C-72.25565924 131.27829621 -71.78398291 129.19729996 -70.15234375 126.01171875 C-69.61577148 124.95307617 -69.61577148 124.95307617 -69.06835938 123.87304688 C-68.69517578 123.15181641 -68.32199219 122.43058594 -67.9375 121.6875 C-67.56044922 120.94693359 -67.18339844 120.20636719 -66.79492188 119.44335938 C-65.86871843 117.62612478 -64.93509371 115.81267596 -64 114 C-63.34 114 -62.68 114 -62 114 C-61.773125 113.19820313 -61.54625 112.39640625 -61.3125 111.5703125 C-59.65144097 107.05183644 -57.38225888 103.04735626 -55 98.875 C-54.10348438 97.28944809 -53.20762774 95.70352335 -52.3125 94.1171875 C-51.91675781 93.42222168 -51.52101563 92.72725586 -51.11328125 92.01123047 C-50.0181208 90.03273666 -48.99639475 88.0297562 -48 86 C-47.34 86 -46.68 86 -46 86 C-45.34 83.36 -44.68 80.72 -44 78 C-43.34 78 -42.68 78 -42 78 C-41.89429687 77.45085937 -41.78859375 76.90171875 -41.6796875 76.3359375 C-40.85474853 73.50080243 -39.57323152 71.1972321 -38.125 68.625 C-35.98808244 64.78779468 -33.92111594 60.94896055 -32 57 C-31.34 57 -30.68 57 -30 57 C-29.88785156 56.28457031 -29.77570313 55.56914063 -29.66015625 54.83203125 C-28.95543995 51.80884002 -27.86712202 49.43677312 -26.4375 46.6875 C-25.98246094 45.80449219 -25.52742188 44.92148438 -25.05859375 44.01171875 C-24.70925781 43.34785156 -24.35992187 42.68398437 -24 42 C-23.34 42 -22.68 42 -22 42 C-21.7525 40.989375 -21.505 39.97875 -21.25 38.9375 C-20.10339362 34.86621646 -18.20258527 31.59755594 -16 28 C-15.34 28 -14.68 28 -14 28 C-13.81824219 27.41992188 -13.63648438 26.83984375 -13.44921875 26.2421875 C-11.9581894 21.60852707 -10.31666424 17.30237645 -8 13 C-7.34 13 -6.68 13 -6 13 C-5.62875 11.453125 -5.62875 11.453125 -5.25 9.875 C-4.1642896 6.06725852 -2.44759325 3.13597885 0 0 Z " fill="#FAFDFD" transform="translate(157,38)"/>
<path d="M0 0 C0.33 0 0.66 0 1 0 C1 46.2 1 92.4 1 140 C-45.2 140 -91.4 140 -139 140 C-139 139.67 -139 139.34 -139 139 C-138.14277344 138.95101562 -137.28554687 138.90203125 -136.40234375 138.8515625 C-134.68724609 138.73941406 -134.68724609 138.73941406 -132.9375 138.625 C-131.24947266 138.52058594 -131.24947266 138.52058594 -129.52734375 138.4140625 C-125.82579384 137.97955055 -122.56135982 137.08830163 -119 136 C-116.34040873 135.28425262 -113.67073647 134.61030047 -111 133.9375 C-110.32710937 133.76412109 -109.65421875 133.59074219 -108.9609375 133.41210938 C-104.65359559 132.32695857 -100.40747182 131.55667287 -96 131 C-96 130.34 -96 129.68 -96 129 C-91.05 128.01 -91.05 128.01 -86 127 C-86 126.34 -86 125.68 -86 125 C-85.36835938 124.74347656 -84.73671875 124.48695313 -84.0859375 124.22265625 C-77.46037661 121.38722169 -71.55471716 117.9616239 -65.59716797 113.94750977 C-61.19055049 111 -61.19055049 111 -59 111 C-59 110.34 -59 109.68 -59 109 C-57.49096123 107.64626036 -55.91587302 106.36556599 -54.3125 105.125 C-53.44238281 104.44695312 -52.57226562 103.76890625 -51.67578125 103.0703125 C-49.91026204 101.70429034 -48.14463925 100.33840204 -46.37890625 98.97265625 C-39.84564868 93.55509455 -32.80269127 85.60538253 -29 78 C-28.34 78 -27.68 78 -27 78 C-26.72671875 77.25878906 -26.4534375 76.51757812 -26.171875 75.75390625 C-25.07573824 73.17798486 -23.87360467 71.20269039 -22.25 68.9375 C-11.81231711 53.61192658 -4.83137074 34.52708457 -2.359375 16.16015625 C-2 14 -2 14 -1 13 C-0.76518307 10.81707226 -0.58636677 8.62796826 -0.4375 6.4375 C-0.35371094 5.23996094 -0.26992188 4.04242188 -0.18359375 2.80859375 C-0.12300781 1.88175781 -0.06242188 0.95492187 0 0 Z " fill="#FDFEFE" transform="translate(299,160)"/>
<path d="M0 0 C0.33 0 0.66 0 1 0 C1.14695313 1.4540625 1.14695313 1.4540625 1.296875 2.9375 C2.38025535 12.90635678 4.387094 22.33019038 7 32 C7.22429688 32.96421875 7.44859375 33.9284375 7.6796875 34.921875 C11.5195723 50.945098 20.7438274 67.21308351 31 80 C31.58910156 80.78375 32.17820313 81.5675 32.78515625 82.375 C33.39230469 83.179375 33.99945313 83.98375 34.625 84.8125 C35.44871094 85.90498047 35.44871094 85.90498047 36.2890625 87.01953125 C37.93723523 89.07835727 37.93723523 89.07835727 40.1484375 90.56640625 C42 92 42 92 43 95.125 C43.33 96.07375 43.66 97.0225 44 98 C44.58136719 98.13277344 45.16273437 98.26554687 45.76171875 98.40234375 C48.95816247 99.25584443 50.46630615 101.12734599 52.8125 103.4375 C72.46020718 121.98751364 98.70595079 132.28390753 124.9375 137.125 C125.90751953 137.30675781 126.87753906 137.48851562 127.87695312 137.67578125 C130.25076774 138.12014064 132.62510299 138.56146909 135 139 C135 139.33 135 139.66 135 140 C90.45 140 45.9 140 0 140 C0 93.8 0 47.6 0 0 Z " fill="#FBFEFE" transform="translate(0,160)"/>
<path d="M0 0 C45.21 0 90.42 0 137 0 C137 44.88 137 89.76 137 136 C136.67 136 136.34 136 136 136 C135.72736328 134.47632813 135.72736328 134.47632813 135.44921875 132.921875 C133.92498947 124.52529745 132.18995339 116.25266646 130 108 C129.66355469 106.61554688 129.66355469 106.61554688 129.3203125 105.203125 C127.60640622 98.38601461 125.07054689 92.30980515 122 86 C121.53078125 84.95328125 121.0615625 83.9065625 120.578125 82.828125 C113.96312991 68.6157098 104.62382772 55.54254142 93 45 C91.7315625 43.700625 91.7315625 43.700625 90.4375 42.375 C86.21861532 38.26429185 81.90645934 34.27097289 77 31 C77 30.34 77 29.68 77 29 C76.12601563 28.83177734 76.12601563 28.83177734 75.234375 28.66015625 C72.77760908 27.93429359 71.30991146 26.94947501 69.25 25.4375 C62.57717724 20.85681639 55.28040591 17.49139548 48 14 C46.94554687 13.48824219 45.89109375 12.97648438 44.8046875 12.44921875 C39.58521527 9.98487184 34.65506033 8.17369177 29 7 C29 6.34 29 5.68 29 5 C28.31035156 4.95101563 27.62070313 4.90203125 26.91015625 4.8515625 C21.54132982 4.42441307 16.44635867 3.74423519 11.21484375 2.4765625 C7.50584919 1.67850723 3.77410147 1.35943824 0 1 C0 0.67 0 0.34 0 0 Z " fill="#FBFEFE" transform="translate(163,0)"/>
<path d="M0 0 C44.22 0 88.44 0 134 0 C134 0.33 134 0.66 134 1 C132.94941406 1.19335938 131.89882812 1.38671875 130.81640625 1.5859375 C115.71855344 4.37843751 102.17580693 7.95297746 88 14 C87.31550781 14.27972656 86.63101563 14.55945312 85.92578125 14.84765625 C82.87570977 16.10195531 80.02747208 17.52309013 77.1875 19.1875 C74 21 74 21 72 21 C72 21.66 72 22.32 72 23 C69.50563799 24.6379544 67.00648413 26.17532299 64.4375 27.6875 C59.24566535 30.83168321 54.58305033 33.80847515 50.5 38.359375 C48.790385 40.22926641 46.93859227 41.80732014 45 43.4375 C35.95821264 51.27951173 28.13576287 61.18953619 23 72 C22.34 72 21.68 72 21 72 C20.79375 72.928125 20.5875 73.85625 20.375 74.8125 C19.41760332 78.20752369 17.9443706 81.00942924 16.1875 84.0625 C12.59896747 90.43433337 10.26094685 97.06318817 8 104 C7.71253906 104.8765625 7.42507812 105.753125 7.12890625 106.65625 C4.02007586 116.57873457 1.6802124 126.60916921 1 137 C0.67 137 0.34 137 0 137 C0 91.79 0 46.58 0 0 Z " fill="#FDFEFE" transform="translate(0,0)"/>
<path d="M0 0 C0.33 0 0.66 0 1 0 C1.21222719 4.56288469 0.77997029 6.55007426 -1 11 C19.79 11 40.58 11 62 11 C62 11.66 62 12.32 62 13 C39.89 13 17.78 13 -5 13 C-4.22998773 9.14993864 -3.6738858 6.99223427 -1.9375 3.6875 C-1.57527344 2.99011719 -1.21304688 2.29273438 -0.83984375 1.57421875 C-0.56269531 1.05472656 -0.28554687 0.53523437 0 0 Z " fill="#E3FEFE" transform="translate(89,160)"/>
<path d="M0 0 C2.64 0 5.28 0 8 0 C7.67 0.66 7.34 1.32 7 2 C6.01 2 5.02 2 4 2 C4 2.66 4 3.32 4 4 C0.7 4.66 -2.6 5.32 -6 6 C-6 6.66 -6 7.32 -6 8 C-14.90411836 10.76407466 -23.60789792 13.38150787 -32.875 14.640625 C-34.97841254 14.78531362 -34.97841254 14.78531362 -36 16 C-37.41327947 16.15620555 -38.8335459 16.25056173 -40.25390625 16.31640625 C-41.10791016 16.35830078 -41.96191406 16.40019531 -42.84179688 16.44335938 C-44.18854492 16.50233398 -44.18854492 16.50233398 -45.5625 16.5625 C-46.46419922 16.60568359 -47.36589844 16.64886719 -48.29492188 16.69335938 C-50.52978485 16.79978142 -52.76476308 16.90179988 -55 17 C-55 16.34 -55 15.68 -55 15 C-53.09154297 14.77957031 -53.09154297 14.77957031 -51.14453125 14.5546875 C-36.82861648 12.77463367 -23.24377775 9.55637497 -9.61328125 4.82421875 C-6.63203032 3.88394379 -4.10732863 3.85203197 -1 4 C-0.67 2.68 -0.34 1.36 0 0 Z " fill="#28978A" transform="translate(209,283)"/>
<path d="M0 0 C0.495 0.99 0.495 0.99 1 2 C0.34 2 -0.32 2 -1 2 C-1.33 3.32 -1.66 4.64 -2 6 C-3.32 6 -4.64 6 -6 6 C-6.33 7.32 -6.66 8.64 -7 10 C-8.32 10 -9.64 10 -11 10 C-11 10.66 -11 11.32 -11 12 C-11.7425 12.20625 -12.485 12.4125 -13.25 12.625 C-16.82509179 14.4125459 -17.91470217 16.63661641 -20 20 C-22.125 22.375 -22.125 22.375 -24 24 C-24.66 24 -25.32 24 -26 24 C-26.226875 24.598125 -26.45375 25.19625 -26.6875 25.8125 C-28 28 -28 28 -30.5 29.4375 C-33.47826266 31.29891416 -34.01825158 32.69775531 -35 36 C-36.32 35.67 -37.64 35.34 -39 35 C-36.67614586 32.32495247 -34.33916702 29.66166247 -32 27 C-31.278125 26.17113281 -30.55625 25.34226562 -29.8125 24.48828125 C-20.91772247 14.40444491 -11.22423078 7.26359726 0 0 Z " fill="#399A92" transform="translate(70,23)"/>
<path d="M0 0 C12.85395133 -0.43572716 25.43604403 2.58075302 38 5 C38 5.66 38 6.32 38 7 C39.918125 7.185625 39.918125 7.185625 41.875 7.375 C45.75 7.75 45.75 7.75 48 10 C41.25 10.125 41.25 10.125 39 9 C36.88032315 8.63434146 34.75407841 8.30620454 32.625 8 C29.0284651 7.48041031 25.50563084 6.96707058 22 6 C22 5.34 22 4.68 22 4 C21.40574219 4.02320313 20.81148437 4.04640625 20.19921875 4.0703125 C13.69983578 4.21182317 7.27189202 3.84400455 1 2 C0.67 1.34 0.34 0.68 0 0 Z " fill="#2D9F91" transform="translate(154,0)"/>
<path d="M0 0 C0.33 0 0.66 0 1 0 C1 8.58 1 17.16 1 26 C31.195 26.495 31.195 26.495 62 27 C62 27.33 62 27.66 62 28 C40.88 28 19.76 28 -2 28 C-2 12.25 -2 12.25 -1 6.125 C-0.814375 4.95195313 -0.62875 3.77890625 -0.4375 2.5703125 C-0.293125 1.72210938 -0.14875 0.87390625 0 0 Z " fill="#138B7F" transform="translate(154,98)"/>
<path d="M0 0 C0.33 0 0.66 0 1 0 C1.14695313 1.4540625 1.14695313 1.4540625 1.296875 2.9375 C2.37974504 12.90166104 4.36341403 22.33930469 7 32 C7.28230469 33.06863281 7.56460937 34.13726562 7.85546875 35.23828125 C9.09293799 39.88036128 10.4065266 44.46472955 12 49 C7.15833646 46.57916823 4.80891957 38.15506054 2.9765625 33.2734375 C2.48147816 31.76857719 2.00124419 30.25866259 1.54296875 28.7421875 C1.02512741 26.91623198 1.02512741 26.91623198 0 25 C-0.084915 23.1136088 -0.107193 21.22421485 -0.09765625 19.3359375 C-0.09443359 18.21445313 -0.09121094 17.09296875 -0.08789062 15.9375 C-0.07951172 14.761875 -0.07113281 13.58625 -0.0625 12.375 C-0.05798828 11.19164062 -0.05347656 10.00828125 -0.04882812 8.7890625 C-0.03701467 5.85932493 -0.02054258 2.92968728 0 0 Z " fill="#C2F0ED" transform="translate(0,160)"/>
<path d="M0 0 C0.99 0 1.98 0 3 0 C3.05469084 2.0205228 3.09310129 4.04148888 3.125 6.0625 C3.14820313 7.18785156 3.17140625 8.31320313 3.1953125 9.47265625 C2.98449926 13.27994328 2.13704589 16.36622398 1 20 C0.65681702 21.32170036 0.32374754 22.64606138 0 23.97265625 C-0.165 24.64490234 -0.33 25.31714844 -0.5 26.00976562 C-0.83423159 27.38194297 -1.16756025 28.75434056 -1.5 30.12695312 C-2.49094317 34.15653063 -3.63108458 38.08270186 -5 42 C-5.66 41.34 -6.32 40.68 -7 40 C-6.67 39.01 -6.34 38.02 -6 37 C-5.33905099 33.57671518 -4.71530869 30.14941081 -4.10546875 26.71679688 C-3.10379464 21.20758929 -3.10379464 21.20758929 -2 19 C-1.78217533 17.55487563 -1.61026332 16.10263322 -1.46484375 14.6484375 C-1.37783203 13.79765625 -1.29082031 12.946875 -1.20117188 12.0703125 C-1.0706543 10.73613281 -1.0706543 10.73613281 -0.9375 9.375 C-0.80118164 8.02921875 -0.80118164 8.02921875 -0.66210938 6.65625 C-0.43790708 4.43782728 -0.21735434 2.2191024 0 0 Z " fill="#2F978F" transform="translate(296,160)"/>
<path d="M0 0 C1.13529002 3.34491489 0.86633118 5.26065531 -0.3125 8.5625 C-0.57675781 9.32691406 -0.84101563 10.09132812 -1.11328125 10.87890625 C-2 13 -2 13 -4 16 C-4.66 16 -5.32 16 -6 16 C-6.99925249 18.48044533 -7.9859252 20.96268403 -8.9296875 23.46484375 C-10.82643538 28.42617188 -12.77011393 32.7677355 -16 37 C-16.33 37 -16.66 37 -17 37 C-17.125 31.25 -17.125 31.25 -16 29 C-15.34 29 -14.68 29 -14 29 C-13.86851562 27.96939453 -13.86851562 27.96939453 -13.734375 26.91796875 C-12.83080548 23.32772178 -11.14166082 20.45117263 -9.25 17.3125 C-5.92012374 11.6514109 -2.84008995 5.92595691 0 0 Z " fill="#28998E" transform="translate(217,129)"/>
<path d="M0 0 C0.33 0 0.66 0 1 0 C0.99214478 0.88522339 0.99214478 0.88522339 0.98413086 1.78833008 C0.96333953 4.46304255 0.95033299 7.13773801 0.9375 9.8125 C0.92912109 10.74126953 0.92074219 11.67003906 0.91210938 12.62695312 C0.90727539 13.9659668 0.90727539 13.9659668 0.90234375 15.33203125 C0.89448853 16.56530151 0.89448853 16.56530151 0.88647461 17.82348633 C0.91258476 20.18172596 0.91258476 20.18172596 2 23 C1.55725358 24.8050431 1.10497252 26.60826964 0.60546875 28.3984375 C-0.44515545 32.91273246 -0.89133875 37.52261106 -1.4375 42.12109375 C-1.623125 43.07113281 -1.80875 44.02117187 -2 45 C-2.99 45.495 -2.99 45.495 -4 46 C-2.60155266 12.60363862 -2.60155266 12.60363862 0 0 Z " fill="#C4EDEB" transform="translate(151,173)"/>
<path d="M0 0 C4.95 0 9.9 0 15 0 C15 0.33 15 0.66 15 1 C13.94941406 1.19335938 12.89882812 1.38671875 11.81640625 1.5859375 C-2.3532902 4.20676564 -15.25978232 7.22656992 -28.49609375 13.109375 C-29.32238281 13.40328125 -30.14867188 13.6971875 -31 14 C-31.66 13.67 -32.32 13.34 -33 13 C-26.57964123 5.82789037 -14.06320419 3.94729416 -5 2 C-2.05078125 1.890625 -2.05078125 1.890625 0 2 C0 1.34 0 0.68 0 0 Z " fill="#C6F1EF" transform="translate(119,0)"/>
<path d="M0 0 C0.66 0.66 1.32 1.32 2 2 C1.01 4.31 0.02 6.62 -1 9 C-1.66 9 -2.32 9 -3 9 C-3.144375 9.94875 -3.28875 10.8975 -3.4375 11.875 C-4 15 -4 15 -5 17 C-5.66 17 -6.32 17 -7 17 C-7.20625 17.78375 -7.4125 18.5675 -7.625 19.375 C-9.15726058 23.41459608 -11.20386493 26.78934033 -13.46875 30.453125 C-15.52781641 33.87789872 -17.26705629 37.40080922 -19 41 C-19.95544559 37.96467285 -20.11111941 37.26317754 -18.8125 34.1875 C-18.214375 33.135625 -17.61625 32.08375 -17 31 C-16.6390625 30.35933594 -16.278125 29.71867187 -15.90625 29.05859375 C-14.94879787 27.36595516 -13.97567593 25.68219988 -13 24 C-12.34 24 -11.68 24 -11 24 C-11 22.68 -11 21.36 -11 20 C-10.34 20 -9.68 20 -9 20 C-8.7215625 19.30132812 -8.443125 18.60265625 -8.15625 17.8828125 C-6.94984672 14.87495568 -5.73203666 11.87245504 -4.5 8.875 C-4.0771875 7.84117188 -3.654375 6.80734375 -3.21875 5.7421875 C-2 3 -2 3 0 0 Z " fill="#359B90" transform="translate(116,107)"/>
<path d="M0 0 C1.125 1.75 1.125 1.75 2 4 C1.125 6.25 1.125 6.25 0 8 C-0.66 8 -1.32 8 -2 8 C-2.11214844 8.71542969 -2.22429687 9.43085937 -2.33984375 10.16796875 C-3.04456005 13.19115998 -4.13287798 15.56322688 -5.5625 18.3125 C-6.01753906 19.19550781 -6.47257813 20.07851563 -6.94140625 20.98828125 C-7.29074219 21.65214844 -7.64007813 22.31601563 -8 23 C-8.66 23 -9.32 23 -10 23 C-10.2475 23.825 -10.495 24.65 -10.75 25.5 C-12.18704811 29.52373471 -14.02354515 33.21979024 -16 37 C-16.33 37 -16.66 37 -17 37 C-17 34.69 -17 32.38 -17 30 C-16.01 29.67 -15.02 29.34 -14 29 C-14.1546875 27.6078125 -14.1546875 27.6078125 -14.3125 26.1875 C-14.209375 25.135625 -14.10625 24.08375 -14 23 C-13.21238281 22.55140625 -12.42476562 22.1028125 -11.61328125 21.640625 C-8.35789082 19.59688213 -7.96654734 18.18624049 -6.875 14.5625 C-5.72477077 10.82171026 -4.6655902 7.92110014 -2 5 C-1.34 5 -0.68 5 0 5 C0 3.35 0 1.7 0 0 Z " fill="#2D988E" transform="translate(151,43)"/>
<path d="M0 0 C0.33 0 0.66 0 1 0 C1.13375745 11.7325715 0.75586016 23.3555451 0 35.0625 C-0.09683168 36.62301732 -0.19318757 38.18356423 -0.2890625 39.74414062 C-0.52059509 43.49644869 -0.75843298 47.24832291 -1 51 C-1.66 51 -2.32 51 -3 51 C-2.97679687 51.67546875 -2.95359375 52.3509375 -2.9296875 53.046875 C-2.91164062 53.93890625 -2.89359375 54.8309375 -2.875 55.75 C-2.85179687 56.63171875 -2.82859375 57.5134375 -2.8046875 58.421875 C-3.01061734 61.1401489 -3.72741299 62.63096259 -5 65 C-4.86177801 61.85378318 -4.71314916 58.70814434 -4.5625 55.5625 C-4.52318359 54.66466797 -4.48386719 53.76683594 -4.44335938 52.84179688 C-4.40146484 51.98779297 -4.35957031 51.13378906 -4.31640625 50.25390625 C-4.27974854 49.46314697 -4.24309082 48.6723877 -4.20532227 47.85766602 C-4 46 -4 46 -3 45 C-2.81955735 43.59078344 -2.70191894 42.17343041 -2.61108398 40.75561523 C-2.5211039 39.40432777 -2.5211039 39.40432777 -2.42930603 38.02574158 C-2.36884598 37.04658279 -2.30838593 36.06742401 -2.24609375 35.05859375 C-2.14833397 33.56248314 -2.14833397 33.56248314 -2.04859924 32.03614807 C-1.84055594 28.8368623 -1.63896387 25.63720619 -1.4375 22.4375 C-1.29794938 20.27406119 -1.15798099 18.11064929 -1.01757812 15.94726562 C-0.67352928 10.63181362 -0.33478216 5.31604324 0 0 Z " fill="#4CA49D" transform="translate(157,47)"/>
<path d="M0 0 C-1.39025391 0.41572266 -1.39025391 0.41572266 -2.80859375 0.83984375 C-4.60490234 1.38318359 -4.60490234 1.38318359 -6.4375 1.9375 C-8.22994141 2.47697266 -8.22994141 2.47697266 -10.05859375 3.02734375 C-12.85867545 3.70889142 -12.85867545 3.70889142 -14 5 C-15.99958364 5.04080783 -18.00045254 5.04254356 -20 5 C-20 5.66 -20 6.32 -20 7 C-26.37848752 10.73081346 -31.64576595 11.72962375 -39 12 C-38 10 -38 10 -35.55859375 9.03515625 C-34.52863281 8.71417969 -33.49867187 8.39320312 -32.4375 8.0625 C-28.88065615 6.92867728 -25.3530667 5.79444594 -21.875 4.4375 C-17.33060974 2.69770206 -12.68108983 1.32153216 -8 0 C-7.32453125 -0.21398437 -6.6490625 -0.42796875 -5.953125 -0.6484375 C-3.67939445 -1.057709 -2.18036569 -0.70083183 0 0 Z " fill="#369A91" transform="translate(122,4)"/>
<path d="M0 0 C0.33 0.66 0.66 1.32 1 2 C3.41332647 2.4285068 5.754728 2.75095794 8.1875 3 C13.0131323 3.50845687 17.42925412 4.29396732 22 6 C22 6.33 22 6.66 22 7 C14.48173815 7.3566716 7.43380396 6.01566466 0.0625 4.625 C-1.18080078 4.40328125 -2.42410156 4.1815625 -3.70507812 3.953125 C-4.88392578 3.73398437 -6.06277344 3.51484375 -7.27734375 3.2890625 C-8.35234131 3.09006348 -9.42733887 2.89106445 -10.53491211 2.68603516 C-11.34839111 2.45964355 -12.16187012 2.23325195 -13 2 C-13.33 1.34 -13.66 0.68 -14 0 C-9.05313841 -0.76761645 -4.92057839 -1.32015518 0 0 Z " fill="#34A094" transform="translate(121,293)"/>
<path d="M0 0 C0.66 0.99 1.32 1.98 2 3 C4.78598173 3.47879398 4.78598173 3.47879398 8.10205078 3.43237305 C9.38322784 3.45216721 10.66440491 3.47196136 11.98440552 3.49235535 C13.38803969 3.49912566 14.79167546 3.50557246 16.1953125 3.51171875 C17.62736564 3.52855841 19.05940393 3.54670768 20.49142456 3.56611633 C24.26266847 3.61370058 28.03385221 3.643455 31.80529785 3.66955566 C35.65287158 3.69931904 39.50023778 3.74586371 43.34765625 3.79101562 C50.89833472 3.87714436 58.44902813 3.94444659 66 4 C66 4.33 66 4.66 66 5 C43.89 5 21.78 5 -1 5 C-0.67 3.35 -0.34 1.7 0 0 Z " fill="#A9E2E0" transform="translate(85,168)"/>
<path d="M0 0 C0.66 0.99 1.32 1.98 2 3 C1.4273599 4.2549347 0.84128945 5.50374378 0.25 6.75 C-0.07484375 7.44609375 -0.3996875 8.1421875 -0.734375 8.859375 C-2 11 -2 11 -3.9375 12.875 C-6.42861564 15.441604 -7.71006971 18.03014575 -9.25 21.25 C-9.77078125 22.32765625 -10.2915625 23.4053125 -10.828125 24.515625 C-11.21484375 25.33546875 -11.6015625 26.1553125 -12 27 C-12.66 27 -13.32 27 -14 27 C-14 27.99 -14 28.98 -14 30 C-14.99 30.33 -15.98 30.66 -17 31 C-15.48574986 26.87444095 -13.46413175 23.15518667 -11.25 19.375 C-8.11665599 13.96820658 -5.08042726 8.52068847 -2.12890625 3.01171875 C-1 1 -1 1 0 0 Z " fill="#46A298" transform="translate(172,212)"/>
<path d="M0 0 C1.32 0.33 2.64 0.66 4 1 C0.87608257 4.22468896 -2.36331966 7.29392978 -5.6875 10.3125 C-6.45449219 11.00988281 -7.22148437 11.70726562 -8.01171875 12.42578125 C-10 14 -10 14 -12 14 C-12 14.66 -12 15.32 -12 16 C-13.65 16.66 -15.3 17.32 -17 18 C-17 16.68 -17 15.36 -17 14 C-15.68 13.67 -14.36 13.34 -13 13 C-13 12.34 -13 11.68 -13 11 C-10.35261084 9.5393715 -9.10551666 9 -6 9 C-5.9175 8.21625 -5.835 7.4325 -5.75 6.625 C-5 4 -5 4 -3 2.8125 C-2.34 2.544375 -1.68 2.27625 -1 2 C-0.67 1.34 -0.34 0.68 0 0 Z " fill="#29988C" transform="translate(252,255)"/>
<path d="M0 0 C-3.33452193 1.92966281 -6.3926409 2.51245343 -10.1875 3.0625 C-13.90971452 3.3228285 -13.90971452 3.3228285 -17 5 C-18.41327947 5.15620555 -19.8335459 5.25056173 -21.25390625 5.31640625 C-22.10791016 5.35830078 -22.96191406 5.40019531 -23.84179688 5.44335938 C-24.73962891 5.48267578 -25.63746094 5.52199219 -26.5625 5.5625 C-27.46419922 5.60568359 -28.36589844 5.64886719 -29.29492188 5.69335938 C-31.52978485 5.79978142 -33.76476308 5.90179988 -36 6 C-36 5.34 -36 4.68 -36 4 C-31.6772092 3.4262221 -27.35388605 2.85669096 -23.0300293 2.29101562 C-21.56047624 2.09816004 -20.09107244 1.90416342 -18.62182617 1.70898438 C-16.50478107 1.42795434 -14.38722561 1.15108961 -12.26953125 0.875 C-10.99698486 0.70742188 -9.72443848 0.53984375 -8.41333008 0.3671875 C-5.56697468 0.06099205 -2.85723564 -0.07638391 0 0 Z " fill="#329D93" transform="translate(190,294)"/>
<path d="M0 0 C0.66 0 1.32 0 2 0 C1.34 12.54 0.68 25.08 0 38 C-0.99 38.495 -0.99 38.495 -2 39 C-2.0270203 36.24993392 -2.04684883 33.50013454 -2.0625 30.75 C-2.07087891 29.97269531 -2.07925781 29.19539063 -2.08789062 28.39453125 C-2.09111328 27.64042969 -2.09433594 26.88632813 -2.09765625 26.109375 C-2.10289307 25.41811523 -2.10812988 24.72685547 -2.11352539 24.01464844 C-1.99395908 21.89279639 -1.52434649 20.05551798 -1 18 C-0.85966422 16.560265 -0.75583143 15.11662851 -0.68359375 13.671875 C-0.64169922 12.87265625 -0.59980469 12.0734375 -0.55664062 11.25 C-0.49766602 10.0125 -0.49766602 10.0125 -0.4375 8.75 C-0.39431641 7.90953125 -0.35113281 7.0690625 -0.30664062 6.203125 C-0.20091457 4.13559329 -0.09998705 2.06781719 0 0 Z " fill="#B9EBE8" transform="translate(155,54)"/>
<path d="M0 0 C5.95703125 0.390625 5.95703125 0.390625 8 1 C8.4640625 1.6496875 8.928125 2.299375 9.40625 2.96875 C11.57931143 5.7383381 13.26072219 5.7662196 16.6875 6.25 C17.68136719 6.39953125 18.67523438 6.5490625 19.69921875 6.703125 C20.45847656 6.80109375 21.21773437 6.8990625 22 7 C22 6.34 22 5.68 22 5 C22.99 5 23.98 5 25 5 C25 5.99 25 6.98 25 8 C22.82802659 10.17197341 21.97695384 10.60761621 19 11 C17.12475586 10.42675781 17.12475586 10.42675781 15.21484375 9.453125 C14.51939453 9.1025 13.82394531 8.751875 13.10742188 8.390625 C12.39134766 8.01421875 11.67527344 7.6378125 10.9375 7.25 C10.21755859 6.8890625 9.49761719 6.528125 8.75585938 6.15625 C5.33385796 4.40235513 2.63851064 2.84264191 0 0 Z " fill="#23998E" transform="translate(71,277)"/>
<path d="M0 0 C0.33 0 0.66 0 1 0 C0.85795259 1.58367747 0.71119847 3.16693318 0.5625 4.75 C0.48128906 5.63171875 0.40007812 6.5134375 0.31640625 7.421875 C0.03761535 9.69350452 -0.38790577 11.79851823 -1 14 C-1.66 14 -2.32 14 -3 14 C-3.10957031 14.59167969 -3.21914063 15.18335938 -3.33203125 15.79296875 C-4.27042409 20.46967451 -5.35193901 23.97034197 -8 28 C-8.12375 28.70125 -8.2475 29.4025 -8.375 30.125 C-9.33276872 32.99830615 -11.40521168 33.66933933 -14 35 C-13.03954437 31.63840529 -12.02587597 29.0383966 -10.0625 26.125 C-7.72157616 22.5781457 -6.37506168 18.98223309 -5 15 C-4.29273476 13.08293894 -3.58435814 11.16628762 -2.875 9.25 C-1.74587403 6.18647993 -0.72899215 3.18376165 0 0 Z " fill="#CCF3F1" transform="translate(293,192)"/>
<path d="M0 0 C-4.04473594 2.74099582 -8.1025086 4.08407468 -12.8125 5.1875 C-13.54718506 5.3618457 -14.28187012 5.53619141 -15.03881836 5.71582031 C-22.71109239 7.38822387 -30.19176924 7.37832612 -38 7 C-38 6.67 -38 6.34 -38 6 C-37.14277344 5.95101563 -36.28554687 5.90203125 -35.40234375 5.8515625 C-33.68724609 5.73941406 -33.68724609 5.73941406 -31.9375 5.625 C-30.24947266 5.52058594 -30.24947266 5.52058594 -28.52734375 5.4140625 C-24.82397443 4.97933698 -21.56289253 4.09060218 -18 3 C-15.2364901 2.24184826 -12.46307009 1.52504209 -9.6875 0.8125 C-8.97271484 0.62236328 -8.25792969 0.43222656 -7.52148438 0.23632812 C-2.23029086 -1.11514543 -2.23029086 -1.11514543 0 0 Z " fill="#B6EDEA" transform="translate(198,293)"/>
<path d="M0 0 C0.66 0.33 1.32 0.66 2 1 C-0.64531805 9.65740453 -4.45222585 17.20381575 -9 25 C-9.33 25 -9.66 25 -10 25 C-9.505 20.545 -9.505 20.545 -9 16 C-8.34 16 -7.68 16 -7 16 C-5.92474806 13.34771188 -4.90543849 10.71631546 -4 8 C-3.01 8 -2.02 8 -1 8 C-1.020625 7.05125 -1.04125 6.1025 -1.0625 5.125 C-1 2 -1 2 0 0 Z " fill="#29978A" transform="translate(288,202)"/>
<path d="M0 0 C2.97 0 5.94 0 9 0 C5.98527826 8.41609819 1.82117854 15.5341944 -3 23 C-3.33 21.68 -3.66 20.36 -4 19 C-3.34 19 -2.68 19 -2 19 C-1.87625 18.443125 -1.7525 17.88625 -1.625 17.3125 C-0.63008238 13.63130481 0.27565846 10.72434154 3 8 C3.40047444 5.67724823 3.7397104 3.34260643 4 1 C2.68 0.67 1.36 0.34 0 0 Z " fill="#CEF4F2" transform="translate(209,128)"/>
<path d="M0 0 C8.95443637 2.35643062 16.23406204 7.11943029 24 12 C22 13 22 13 19.06640625 12.109375 C17.91011719 11.66078125 16.75382812 11.2121875 15.5625 10.75 C14.40878906 10.31171875 13.25507813 9.8734375 12.06640625 9.421875 C9.36575989 8.16960076 7.7651672 7.35355627 6 5 C6 4.34 6 3.68 6 3 C3.03 2.505 3.03 2.505 0 2 C0 1.34 0 0.68 0 0 Z " fill="#279487" transform="translate(211,14)"/>
<path d="M0 0 C4.02869098 1.34289699 6.05255124 3.00983459 9 6 C10.73226184 7.43830225 12.48280295 8.85484444 14.25 10.25 C15.14203125 10.95640625 16.0340625 11.6628125 16.953125 12.390625 C17.62859375 12.92171875 18.3040625 13.4528125 19 14 C16.50907189 15.24546405 15.58919267 14.7767578 13 14 C13 13.34 13 12.68 13 12 C12.01 12 11.02 12 10 12 C10 11.34 10 10.68 10 10 C8.68 10 7.36 10 6 10 C5.731875 9.195625 5.46375 8.39125 5.1875 7.5625 C4.795625 6.716875 4.40375 5.87125 4 5 C3.01 4.67 2.02 4.34 1 4 C0.3125 1.9375 0.3125 1.9375 0 0 Z " fill="#2D998F" transform="translate(235,27)"/>
<path d="M0 0 C3.22909006 -0.05834353 6.45804338 -0.09371115 9.6875 -0.125 C10.59951172 -0.14175781 11.51152344 -0.15851562 12.45117188 -0.17578125 C17.06848227 -0.20936169 20.81932331 -0.23556185 25 2 C25 2.66 25 3.32 25 4 C26.32 4.33 27.64 4.66 29 5 C22.93405587 4.56914789 17.12650407 3.90904439 11.21484375 2.4765625 C7.50584919 1.67850723 3.77410147 1.35943824 0 1 C0 0.67 0 0.34 0 0 Z " fill="#CDF7F4" transform="translate(163,0)"/>
<path d="M0 0 C2.58454515 2.58454515 2.50874628 4.153321 3 7.75 C3.16242188 8.91015625 3.32484375 10.0703125 3.4921875 11.265625 C3.65976562 12.49796875 3.82734375 13.7303125 4 15 C4.18820313 16.25296875 4.37640625 17.5059375 4.5703125 18.796875 C6.12585026 29.18173275 6.12585026 29.18173275 6 34 C0.40132084 24.014477 0.42105093 11.17962805 0 0 Z " fill="#3EA397" transform="translate(0,156)"/>
<path d="M0 0 C-1.49170266 4.9723422 -3.60457417 9.41845739 -6 14 C-6.33 14 -6.66 14 -7 14 C-7.125 8.25 -7.125 8.25 -6 6 C-6.99 6 -7.98 6 -9 6 C-8.875 4.125 -8.875 4.125 -8 2 C-5.25822503 0.83328724 -2.99432393 0 0 0 Z " fill="#149389" transform="translate(89,160)"/>
<path d="M0 0 C0.33 0.66 0.66 1.32 1 2 C0.07421875 3.9453125 0.07421875 3.9453125 -1.3125 6.125 C-1.76238281 6.84945312 -2.21226562 7.57390625 -2.67578125 8.3203125 C-3.11277344 8.87460938 -3.54976563 9.42890625 -4 10 C-4.66 10 -5.32 10 -6 10 C-6.2475 10.7425 -6.495 11.485 -6.75 12.25 C-8.09147301 15.20124062 -9.60905526 16.84814974 -12 19 C-11.74913563 14.73530568 -11.50006552 12.56586361 -8.625 9.3125 C-7.75875 8.549375 -6.8925 7.78625 -6 7 C-5.443125 6.236875 -4.88625 5.47375 -4.3125 4.6875 C-3.6628125 3.8521875 -3.6628125 3.8521875 -3 3 C-2.34 3 -1.68 3 -1 3 C-0.67 2.01 -0.34 1.02 0 0 Z " fill="#29968B" transform="translate(276,228)"/>
<path d="M0 0 C0.33 0.66 0.66 1.32 1 2 C0.37498605 3.68272986 -0.30177383 5.34630643 -1 7 C-1.309375 8.175625 -1.61875 9.35125 -1.9375 10.5625 C-2.91691163 13.73118468 -3.72356379 15.62871228 -6 18 C-6.66 18 -7.32 18 -8 18 C-8 18.66 -8 19.32 -8 20 C-8.66 20 -9.32 20 -10 20 C-8.68938409 15.76570244 -7.05643741 11.92592596 -5 8 C-4.34 8 -3.68 8 -3 8 C-2.690625 6.865625 -2.38125 5.73125 -2.0625 4.5625 C-1 1 -1 1 0 0 Z " fill="#D2F5F2" transform="translate(138,72)"/>
<path d="M0 0 C4.57143943 6.85715914 7.32297804 14.25372368 10 22 C9.34 22 8.68 22 8 22 C7.67 21.01 7.34 20.02 7 19 C6.34 18.67 5.68 18.34 5 18 C4.375 14.9375 4.375 14.9375 4 12 C3.34 12 2.68 12 2 12 C0.00214565 7.8794254 -0.17835515 4.54805635 0 0 Z " fill="#40A297" transform="translate(282,79)"/>
<path d="M0 0 C2 0 2 0 3.625 1.25 C5 3 5 3 5 7 C5.99 7.33 6.98 7.66 8 8 C11.62823894 11.48869129 11.60075629 15.20907546 12 20 C8.73070976 16.14164845 6.20932966 12.14035887 3.75 7.75 C3.38648438 7.11320313 3.02296875 6.47640625 2.6484375 5.8203125 C0 1.14074248 0 1.14074248 0 0 Z " fill="#2D978B" transform="translate(16,217)"/>
<path d="M0 0 C0.33 0 0.66 0 1 0 C1.66 9.24 2.32 18.48 3 28 C0 25 0 25 -0.34057617 22.36450195 C-0.32486572 21.33284912 -0.30915527 20.30119629 -0.29296875 19.23828125 C-0.28330078 18.12001953 -0.27363281 17.00175781 -0.26367188 15.84960938 C-0.23853516 14.68236328 -0.21339844 13.51511719 -0.1875 12.3125 C-0.17396484 11.13365234 -0.16042969 9.95480469 -0.14648438 8.74023438 C-0.11109326 5.82636589 -0.06171809 2.91341055 0 0 Z " fill="#D0F8F4" transform="translate(0,160)"/>
<path d="M0 0 C0.33 0.66 0.66 1.32 1 2 C0.06421005 4.35981813 -0.93347808 6.69631264 -2 9 C-2.66 9 -3.32 9 -4 9 C-4.12375 9.78375 -4.2475 10.5675 -4.375 11.375 C-5 14 -5 14 -7 16 C-7.99 15.67 -8.98 15.34 -10 15 C-9.34 13.68 -8.68 12.36 -8 11 C-7.34 11 -6.68 11 -6 11 C-5.7525 10.29875 -5.505 9.5975 -5.25 8.875 C-3.83911974 5.62997541 -2.02104602 2.89683263 0 0 Z " fill="#BFEAE8" transform="translate(278,227)"/>
<path d="M0 0 C3.22900326 2.57959478 3.75759392 5.16924701 4.625 9.125 C5.19026853 12.87096828 5.19026853 12.87096828 7 16 C7.07179964 17.51928038 7.08392007 19.04167482 7.0625 20.5625 C7.05347656 21.38878906 7.04445313 22.21507813 7.03515625 23.06640625 C7.02355469 23.70449219 7.01195312 24.34257813 7 25 C4.95435642 21.93153463 4.59434157 20.43074077 4.0625 16.875 C3.30451778 12.30891508 2.17231657 8.12025278 0.5859375 3.77734375 C0 2 0 2 0 0 Z " fill="#ABE4E0" transform="translate(292,103)"/>
<path d="M0 0 C1.05602687 3.66036382 0.91217967 6.2683559 0 10 C-0.99 10.495 -0.99 10.495 -2 11 C-2.65213292 13.02463255 -2.65213292 13.02463255 -3 15 C-3.66 15 -4.32 15 -5 15 C-5.33 17.31 -5.66 19.62 -6 22 C-6.66 22 -7.32 22 -8 22 C-6.44379725 14.21898625 -3.21822743 7.20559099 0 0 Z " fill="#34998F" transform="translate(15,84)"/>
<path d="M0 0 C-1.72101918 1.32316536 -3.45218093 2.63314524 -5.1875 3.9375 C-6.63189453 5.03384766 -6.63189453 5.03384766 -8.10546875 6.15234375 C-10.88959799 7.92952746 -12.75667585 8.62645444 -16 9 C-16 8.01 -16 7.02 -16 6 C-14.71086513 5.32845067 -13.41859796 4.66291141 -12.125 4 C-11.40570313 3.62875 -10.68640625 3.2575 -9.9453125 2.875 C-8 2 -8 2 -6 2 C-6 1.34 -6 0.68 -6 0 C-3.50907189 -1.24546405 -2.58919267 -0.7767578 0 0 Z " fill="#2C968B" transform="translate(234,274)"/>
<path d="M0 0 C0.33 0 0.66 0 1 0 C1.08115993 3.06303578 1.14057409 6.12390815 1.1875 9.1875 C1.21263672 10.05181641 1.23777344 10.91613281 1.26367188 11.80664062 C1.32026662 16.73038334 1.18027571 19.96831189 -2 24 C-3.33493038 20.66267406 -2.62320807 18.59751945 -1.546875 15.28125 C-0.35332535 10.3024429 -0.29131197 5.09795949 0 0 Z " fill="#B5ECE9" transform="translate(299,160)"/>
<path d="M0 0 C0.33 0 0.66 0 1 0 C1 1.98 1 3.96 1 6 C0.37609375 6.23460938 -0.2478125 6.46921875 -0.890625 6.7109375 C-3.60255941 8.36823075 -3.88975997 9.6141599 -4.75 12.625 C-4.99234375 13.44226563 -5.2346875 14.25953125 -5.484375 15.1015625 C-5.65453125 15.72804688 -5.8246875 16.35453125 -6 17 C-6.99 16.67 -7.98 16.34 -9 16 C-8.67 15.01 -8.34 14.02 -8 13 C-7.34 13 -6.68 13 -6 13 C-5.83177734 12.15695313 -5.83177734 12.15695313 -5.66015625 11.296875 C-4.90942661 8.68486892 -3.78832624 6.60528678 -2.4375 4.25 C-1.98246094 3.45078125 -1.52742188 2.6515625 -1.05859375 1.828125 C-0.70925781 1.22484375 -0.35992187 0.6215625 0 0 Z " fill="#B3E5E2" transform="translate(121,103)"/>
<path d="M0 0 C0.33 0.66 0.66 1.32 1 2 C0.34 2 -0.32 2 -1 2 C-1.33 3.32 -1.66 4.64 -2 6 C-3.32 6 -4.64 6 -6 6 C-6.33 7.32 -6.66 8.64 -7 10 C-8.32 10 -9.64 10 -11 10 C-11.33 10.66 -11.66 11.32 -12 12 C-11.84765625 9.73828125 -11.84765625 9.73828125 -11 7 C-8.49609375 4.98046875 -8.49609375 4.98046875 -5.4375 3.1875 C-4.42558594 2.58292969 -3.41367188 1.97835938 -2.37109375 1.35546875 C-1.58863281 0.90816406 -0.80617188 0.46085937 0 0 Z " fill="#2A968B" transform="translate(70,23)"/>
<path d="M0 0 C-4.60513939 3.99112081 -9.75483244 6.94456259 -15 10 C-14.67 8.35 -14.34 6.7 -14 5 C-12.68 5 -11.36 5 -10 5 C-9.67 4.01 -9.34 3.02 -9 2 C-5.99208089 -0.04108797 -3.57804656 -0.19878036 0 0 Z " fill="#CFF3F2" transform="translate(72,22)"/>
<path d="M0 0 C5.56890517 0.47986031 10.67067568 1.29915181 16 3 C16.33 4.32 16.66 5.64 17 7 C16.443125 6.80664062 15.88625 6.61328125 15.3125 6.4140625 C10.24882873 4.68625575 5.20677935 3.2306933 0 2 C0 1.34 0 0.68 0 0 Z " fill="#C8F2EF" transform="translate(192,5)"/>
<path d="M0 0 C1.28179927 2.56359854 0.87670752 3.71958533 0.3125 6.5 C0.16425781 7.2940625 0.01601563 8.088125 -0.13671875 8.90625 C-1 11 -1 11 -3.08203125 12.28125 C-3.71496094 12.5184375 -4.34789062 12.755625 -5 13 C-5 12.34 -5 11.68 -5 11 C-5.66 10.67 -6.32 10.34 -7 10 C-4.93992341 6.39486597 -2.6486859 3.19668988 0 0 Z " fill="#289A8C" transform="translate(30,60)"/>
<path d="M0 0 C2.125 0.375 2.125 0.375 4 1 C1.63707344 3.52588702 0.33537489 4.88820837 -3 6 C-4.21869929 8.50447516 -4.21869929 8.50447516 -5 11 C-6.32 10.67 -7.64 10.34 -9 10 C-7.8758824 8.70756532 -6.75067408 7.41607925 -5.625 6.125 C-4.99851562 5.40570313 -4.37203125 4.68640625 -3.7265625 3.9453125 C-2.52573166 2.5923402 -1.2791655 1.2791655 0 0 Z " fill="#309B91" transform="translate(40,48)"/>
<path d="M0 0 C2 2 2 2 2.21118164 3.83178711 C2.19434326 4.5563208 2.17750488 5.28085449 2.16015625 6.02734375 C2.14919922 6.81947266 2.13824219 7.61160156 2.12695312 8.42773438 C2.09504883 9.67006836 2.09504883 9.67006836 2.0625 10.9375 C2.02800534 12.57152493 1.9978794 14.20564941 1.97265625 15.83984375 C1.95468994 16.56550537 1.93672363 17.29116699 1.91821289 18.03881836 C1.91850712 20.216229 1.91850712 20.216229 3 23 C1.68 23.33 0.36 23.66 -1 24 C-0.67 16.08 -0.34 8.16 0 0 Z " fill="#34A29A" transform="translate(143,240)"/>
<path d="M0 0 C4 4 8 8 12 12 C11.01 12.495 11.01 12.495 10 13 C7.375 12.0625 7.375 12.0625 5 11 C5 9.68 5 8.36 5 7 C4.01 6.67 3.02 6.34 2 6 C0.3125 3.9375 0.3125 3.9375 -1 2 C-0.67 1.34 -0.34 0.68 0 0 Z " fill="#309C92" transform="translate(254,42)"/>
<path d="M0 0 C0.66 0 1.32 0 2 0 C1.67 2.97 1.34 5.94 1 9 C-3 10 -3 10 -5 9 C-3.35 6.03 -1.7 3.06 0 0 Z " fill="#96E5DF" transform="translate(157,38)"/>
<path d="M0 0 C4.95 0 9.9 0 15 0 C15 0.33 15 0.66 15 1 C12.45953542 1.50688605 9.91791124 2.00566874 7.375 2.5 C6.66214844 2.64308594 5.94929688 2.78617187 5.21484375 2.93359375 C1.07855065 3.73049426 -2.76433679 4.16034056 -7 4 C-5 2 -5 2 -2.375 1.875 C-1.59125 1.91625 -0.8075 1.9575 0 2 C0 1.34 0 0.68 0 0 Z " fill="#D6FAF8" transform="translate(119,0)"/>
<path d="M0 0 C2.64 0.66 5.28 1.32 8 2 C8.33 4.64 8.66 7.28 9 10 C8.34 10 7.68 10 7 10 C5 7 5 7 5 4 C4.360625 3.71125 3.72125 3.4225 3.0625 3.125 C1 2 1 2 0 0 Z " fill="#339D95" transform="translate(37,248)"/>
<path d="M0 0 C0.99 0 1.98 0 3 0 C3 0.66 3 1.32 3 2 C2.34 2 1.68 2 1 2 C0.88785156 2.56203125 0.77570313 3.1240625 0.66015625 3.703125 C-0.09057339 6.31513108 -1.21167376 8.39471322 -2.5625 10.75 C-3.01753906 11.54921875 -3.47257812 12.3484375 -3.94140625 13.171875 C-4.29074219 13.77515625 -4.64007813 14.3784375 -5 15 C-5.33 15 -5.66 15 -6 15 C-6 13.35 -6 11.7 -6 10 C-5.34 10 -4.68 10 -4 10 C-3.67 8.02 -3.34 6.04 -3 4 C-2.01 3.67 -1.02 3.34 0 3 C0 2.01 0 1.02 0 0 Z " fill="#309A8F" transform="translate(124,93)"/>
<path d="M0 0 C0.33 0 0.66 0 1 0 C0.85433594 1.00417969 0.70867187 2.00835937 0.55859375 3.04296875 C0.19977545 5.58480745 -0.14277785 8.12902486 -0.46484375 10.67578125 C-0.62082031 11.87589844 -0.77679688 13.07601562 -0.9375 14.3125 C-1.09089844 15.52550781 -1.24429687 16.73851562 -1.40234375 17.98828125 C-2 21 -2 21 -4 23 C-4.625 20.6875 -4.625 20.6875 -5 18 C-4.01 16.515 -4.01 16.515 -3 15 C-2.5760716 12.82494253 -2.22956899 10.63415336 -1.9375 8.4375 C-1.09465649 2.18931298 -1.09465649 2.18931298 0 0 Z " fill="#24958B" transform="translate(294,179)"/>
<path d="M0 0 C0.99 0 1.98 0 3 0 C1.43551329 5.6143991 -0.16395187 10.86810338 -3 16 C-4.60080151 11.99799622 -3.29279692 8.95443764 -2 5 C-1.34 5 -0.68 5 0 5 C0 3.35 0 1.7 0 0 Z " fill="#C2F0ED" transform="translate(12,84)"/>
<path d="M0 0 C0.33 1.32 0.66 2.64 1 4 C0.34 4 -0.32 4 -1 4 C-1.82638376 6.89234315 -2 8.88742431 -2 12 C-3.375 13.75 -3.375 13.75 -5 15 C-5.66 15 -6.32 15 -7 15 C-6.39254603 10.14036821 -4.27241033 6.2594482 -2 2 C-1.34 2 -0.68 2 0 2 C0 1.34 0 0.68 0 0 Z " fill="#C4ECEA" transform="translate(151,49)"/>
<path d="M0 0 C0.66 0 1.32 0 2 0 C0.42219077 3.71045247 -1.90703248 6.29906384 -4.625 9.25 C-5.44226562 10.14203125 -6.25953125 11.0340625 -7.1015625 11.953125 C-7.72804687 12.62859375 -8.35453125 13.3040625 -9 14 C-9.66 13.01 -10.32 12.02 -11 11 C-10.01 11 -9.02 11 -8 11 C-7.7525 10.21625 -7.505 9.4325 -7.25 8.625 C-5.84610901 5.67682892 -4.99324263 5.0975223 -2 4 C-2 3.34 -2 2.68 -2 2 C-1.34 2 -0.68 2 0 2 C0 1.34 0 0.68 0 0 Z " fill="#D6F8F6" transform="translate(45,39)"/>
<path d="M0 0 C0.6875 1.6875 0.6875 1.6875 1 4 C-0.25 6.3125 -0.25 6.3125 -2 9 C-2.5172421 10.24296444 -3.01688183 11.4933788 -3.5 12.75 C-3.995 13.8225 -4.49 14.895 -5 16 C-5.99 16.33 -6.98 16.66 -8 17 C-6.09519008 10.84599871 -3.37843316 5.46984416 0 0 Z " fill="#3C9D94" transform="translate(181,195)"/>
<path d="M0 0 C2.31 0.33 4.62 0.66 7 1 C7 1.66 7 2.32 7 3 C8.918125 3.185625 8.918125 3.185625 10.875 3.375 C14.75 3.75 14.75 3.75 17 6 C11.32806491 6.36203841 6.10916517 5.66422132 1 3 C0.67 2.01 0.34 1.02 0 0 Z " fill="#3D9E97" transform="translate(185,4)"/>
<path d="M0 0 C0.66 0.99 1.32 1.98 2 3 C0.68 5.64 -0.64 8.28 -2 11 C-2.66 11 -3.32 11 -4 11 C-3.56179109 6.44262737 -3.14958831 3.42346555 0 0 Z " fill="#319991" transform="translate(172,212)"/>
<path d="M0 0 C0.33 0 0.66 0 1 0 C1 5.28 1 10.56 1 16 C0.34 16 -0.32 16 -1 16 C-1 18.64 -1 21.28 -1 24 C-1.33 24 -1.66 24 -2 24 C-2.33853295 15.83759432 -1.29901921 8.04927976 0 0 Z " fill="#269189" transform="translate(154,98)"/>
<path d="M0 0 C7.541939 0.49455338 7.541939 0.49455338 9.8125 3 C10.204375 3.66 10.59625 4.32 11 5 C11.99 5.33 12.98 5.66 14 6 C14 6.66 14 7.32 14 8 C9.02790438 6.23570801 4.56561939 3.6060834 0 1 C0 0.67 0 0.34 0 0 Z " fill="#48A59B" transform="translate(71,277)"/>
<path d="M0 0 C0 4.17739134 -1.84340636 6.52797173 -4.375 9.75 C-6.49255542 11.37888879 -8.38377923 11.64645665 -11 12 C-7.83741823 8.11454239 -4.59805717 4.49811114 -1 1 C-0.67 0.67 -0.34 0.34 0 0 Z " fill="#C6ECEB" transform="translate(259,252)"/>
<path d="M0 0 C1.12021481 3.32279933 0.88681157 5.26909001 -0.25 8.5625 C-0.50265625 9.32691406 -0.7553125 10.09132812 -1.015625 10.87890625 C-2.04955782 13.1067853 -3.1679581 14.38924406 -5 16 C-5.82200425 9.75276774 -2.92551394 5.28682163 0 0 Z " fill="#29978A" transform="translate(217,129)"/>
<path d="M0 0 C0.66 0 1.32 0 2 0 C1.01 3.63 0.02 7.26 -1 11 C-2.32 11.33 -3.64 11.66 -5 12 C-3.68938409 7.76570244 -2.05643741 3.92592596 0 0 Z " fill="#CEF4F2" transform="translate(109,124)"/>
<path d="M0 0 C2.97 0 5.94 0 9 0 C8.01 2.64 7.02 5.28 6 8 C5.34 8 4.68 8 4 8 C4 5.69 4 3.38 4 1 C2.68 0.67 1.36 0.34 0 0 Z " fill="#D9F8F7" transform="translate(209,128)"/>
<path d="M0 0 C-1.78881736 1.00508801 -3.58114696 2.00392736 -5.375 3 C-6.37273437 3.556875 -7.37046875 4.11375 -8.3984375 4.6875 C-11 6 -11 6 -13 6 C-13 5.34 -13 4.68 -13 4 C-12.01 4 -11.02 4 -10 4 C-10.33 3.01 -10.66 2.02 -11 1 C-8.28823289 -1.71176711 -3.29832916 -1.09944305 0 0 Z " fill="#E2FBFB" transform="translate(83,16)"/>
<path d="M0 0 C1.5 1.375 1.5 1.375 3 3 C3 3.66 3 4.32 3 5 C3.66 5 4.32 5 5 5 C6.625 7 6.625 7 8 9 C7.67 9.66 7.34 10.32 7 11 C5.49410612 9.71520959 3.99542625 8.42195918 2.5 7.125 C1.6646875 6.40570313 0.829375 5.68640625 -0.03125 4.9453125 C-0.6809375 4.30335938 -1.330625 3.66140625 -2 3 C-2 2.34 -2 1.68 -2 1 C-1.34 0.67 -0.68 0.34 0 0 Z " fill="#319C91" transform="translate(52,259)"/>
<path d="M0 0 C-0.33 1.32 -0.66 2.64 -1 4 C-1.66 4 -2.32 4 -3 4 C-3.103125 4.763125 -3.20625 5.52625 -3.3125 6.3125 C-4.04364039 9.17059424 -4.76951913 10.15742885 -7 12 C-7 10.02 -7 8.04 -7 6 C-6.34 6 -5.68 6 -5 6 C-4.87625 5.195625 -4.7525 4.39125 -4.625 3.5625 C-4.41875 2.716875 -4.2125 1.87125 -4 1 C-2 0 -2 0 0 0 Z " fill="#269489" transform="translate(96,148)"/>
<path d="M0 0 C0.66 0.66 1.32 1.32 2 2 C1.01 4.31 0.02 6.62 -1 9 C-1.66 9 -2.32 9 -3 9 C-3.33 10.65 -3.66 12.3 -4 14 C-5.2277183 10.31684509 -4.6026666 9.37044582 -3.125 5.875 C-2.75632812 4.98554687 -2.38765625 4.09609375 -2.0078125 3.1796875 C-1 1 -1 1 0 0 Z " fill="#28958A" transform="translate(116,107)"/>
<path d="M0 0 C0.33 0.99 0.66 1.98 1 3 C1.66 3 2.32 3 3 3 C4.19287411 6.87684087 5 9.91621923 5 14 C4.34 14 3.68 14 3 14 C-0.44419134 4.58997722 -0.44419134 4.58997722 0 0 Z " fill="#249087" transform="translate(289,98)"/>
<path d="M0 0 C0.33 0 0.66 0 1 0 C0.85795259 1.58367747 0.71119847 3.16693318 0.5625 4.75 C0.48128906 5.63171875 0.40007812 6.5134375 0.31640625 7.421875 C0.03761535 9.69350452 -0.38790577 11.79851823 -1 14 C-1.66 14 -2.32 14 -3 14 C-3 14.66 -3 15.32 -3 16 C-3.66 15.67 -4.32 15.34 -5 15 C-4.72285156 14.25234375 -4.44570313 13.5046875 -4.16015625 12.734375 C-3.79792969 11.74953125 -3.43570312 10.7646875 -3.0625 9.75 C-2.52302734 8.28820312 -2.52302734 8.28820312 -1.97265625 6.796875 C-1.18620345 4.53542839 -0.52748399 2.33203448 0 0 Z " fill="#B8E9E4" transform="translate(293,192)"/>
<path d="M0 0 C0.33 0 0.66 0 1 0 C1.20086443 3.71599191 1.1519437 4.77208445 -1 8 C-1.38499891 9.65549531 -1.72793135 11.3222433 -2 13 C-2.99 13 -3.98 13 -5 13 C-3.92268251 8.11063599 -2.96912769 4.13096026 0 0 Z " fill="#DAF8F8" transform="translate(299,179)"/>
<path d="M0 0 C0.33 0 0.66 0 1 0 C1.35858439 3.85478218 1.2754818 5.57759458 -0.875 8.875 C-1.57625 9.57625 -2.2775 10.2775 -3 11 C-3.66 11 -4.32 11 -5 11 C-3.55049545 7.2089881 -1.84827434 3.6125362 0 0 Z " fill="#CBF2EF" transform="translate(101,139)"/>
<path d="M0 0 C0.66 0.33 1.32 0.66 2 1 C1.24163557 2.65161581 0.46787924 4.29617138 -0.3125 5.9375 C-0.95638672 7.31228516 -0.95638672 7.31228516 -1.61328125 8.71484375 C-3 11 -3 11 -6 12 C-4.43358249 7.69235185 -2.31663844 3.93828536 0 0 Z " fill="#40A299" transform="translate(211,141)"/>
<path d="M0 0 C2 2 2 2 2.125 5.125 C2.08375 6.07375 2.0425 7.0225 2 8 C1.34 8 0.68 8 0 8 C-0.33 7.34 -0.66 6.68 -1 6 C-1.99 6.495 -1.99 6.495 -3 7 C-3.1875 4.625 -3.1875 4.625 -3 2 C-2.01 1.34 -1.02 0.68 0 0 Z " fill="#EAFFFE" transform="translate(155,46)"/>
<path d="M0 0 C0 0.99 0 1.98 0 3 C-5.08086796 3.84681133 -9.84828377 4.09038099 -15 4 C-15 3.67 -15 3.34 -15 3 C-13.0636296 2.49564306 -11.12585854 1.99666126 -9.1875 1.5 C-8.10855469 1.2215625 -7.02960938 0.943125 -5.91796875 0.65625 C-3 0 -3 0 0 0 Z " fill="#179087" transform="translate(192,291)"/>
<path d="M0 0 C3.25524265 3.02272532 5.61820737 6.25718301 8 10 C6.68 10 5.36 10 4 10 C4 9.34 4 8.68 4 8 C3.34 8 2.68 8 2 8 C1.34 5.36 0.68 2.72 0 0 Z " fill="#CFF1ED" transform="translate(30,240)"/>
<path d="M0 0 C0.66 0.33 1.32 0.66 2 1 C1.54554036 2.41791408 1.08625056 3.83428046 0.625 5.25 C0.36976563 6.03890625 0.11453125 6.8278125 -0.1484375 7.640625 C-0.95173667 9.86627958 -1.89711662 11.90931672 -3 14 C-3.33 14 -3.66 14 -4 14 C-4 12.02 -4 10.04 -4 8 C-3.01 8 -2.02 8 -1 8 C-1.020625 7.05125 -1.04125 6.1025 -1.0625 5.125 C-1 2 -1 2 0 0 Z " fill="#3AA093" transform="translate(288,202)"/>
<path d="M0 0 C4.13782924 4.27575688 5.05944297 8.31953056 6 14 C5.34 14 4.68 14 4 14 C4 12.68 4 11.36 4 10 C3.34 10 2.68 10 2 10 C0.68373308 6.38026598 0 3.90432869 0 0 Z " fill="#1E9188" transform="translate(6,188)"/>
<path d="M0 0 C0.33 0 0.66 0 1 0 C1.09507063 6.43311296 1.15316726 12.65758005 0 19 C-0.33 19 -0.66 19 -1 19 C-1.82810601 12.18491136 -2.50413785 6.48129797 0 0 Z " fill="#D5F9F8" transform="translate(151,108)"/>
<path d="M0 0 C0.33 0 0.66 0 1 0 C0.38857603 7.45937249 0.38857603 7.45937249 -1.4375 10 C-3 11 -3 11 -5 11 C-4.690625 10.236875 -4.38125 9.47375 -4.0625 8.6875 C-3.32106407 6.81210323 -2.63771783 4.91315348 -2 3 C-1.34 3 -0.68 3 0 3 C0 2.01 0 1.02 0 0 Z " fill="#C9F3F1" transform="translate(127,92)"/>
<path d="M0 0 C-1.53079667 3.44429252 -3.61654706 6.09516673 -6 9 C-6.66 9.99 -7.32 10.98 -8 12 C-8 10.35 -8 8.7 -8 7 C-7.34 6.67 -6.68 6.34 -6 6 C-5.7834375 5.0409375 -5.7834375 5.0409375 -5.5625 4.0625 C-4.74144461 1.05196356 -3.10523422 0 0 0 Z " fill="#C9F3F0" transform="translate(31,58)"/>
<path d="M0 0 C1.3357457 3.77371512 0.72408671 6.85831347 0.0625 10.75 C-0.13214844 11.92046875 -0.32679688 13.0909375 -0.52734375 14.296875 C-0.68332031 15.18890625 -0.83929688 16.0809375 -1 17 C-1.33 17 -1.66 17 -2 17 C-2.05383848 14.54137599 -2.09359038 12.0839245 -2.125 9.625 C-2.14175781 8.92632812 -2.15851563 8.22765625 -2.17578125 7.5078125 C-2.19344267 5.67102514 -2.10303261 3.83398037 -2 2 C-1.34 1.34 -0.68 0.68 0 0 Z " fill="#C0F3EF" transform="translate(2,120)"/>
<path d="M0 0 C0.66 0 1.32 0 2 0 C1.22225866 5.05531868 0.14051606 10.01716284 -1 15 C-1.93826619 11.93312991 -2.01788333 9.54992204 -1.625 6.375 C-1.53476563 5.59898438 -1.44453125 4.82296875 -1.3515625 4.0234375 C-1 2 -1 2 0 0 Z " fill="#1B9186" transform="translate(7,106)"/>
<path d="M0 0 C0.33 0.99 0.66 1.98 1 3 C0.0409375 3.1546875 0.0409375 3.1546875 -0.9375 3.3125 C-1.618125 3.539375 -2.29875 3.76625 -3 4 C-3.33 4.99 -3.66 5.98 -4 7 C-5.65 7 -7.3 7 -9 7 C-6.3765992 4.08511023 -3.28183606 2.11496102 0 0 Z " fill="#BFEAE8" transform="translate(236,272)"/>
<path d="M0 0 C2.31 0.66 4.62 1.32 7 2 C7 2.66 7 3.32 7 4 C8.65 4 10.3 4 12 4 C12 4.33 12 4.66 12 5 C9.36 5 6.72 5 4 5 C3.67 4.01 3.34 3.02 3 2 C2.01 2 1.02 2 0 2 C0 1.34 0 0.68 0 0 Z " fill="#22938A" transform="translate(179,3)"/>
<path d="M0 0 C0.66 0.66 1.32 1.32 2 2 C0.35 4.97 -1.3 7.94 -3 11 C-4.32342458 7.02972626 -3.36639254 4.88343142 -2 1 C-1.34 0.67 -0.68 0.34 0 0 Z " fill="#2C948B" transform="translate(131,81)"/>
<path d="M0 0 C1.32 0.33 2.64 0.66 4 1 C3.67 1.99 3.34 2.98 3 4 C2.34 3.67 1.68 3.34 1 3 C0.34 4.65 -0.32 6.3 -1 8 C-1.33 8 -1.66 8 -2 8 C-2.20086443 4.28400809 -2.1519437 3.22791555 0 0 Z " fill="#249C91" transform="translate(156,35)"/>
<path d="M0 0 C5.94 3.465 5.94 3.465 12 7 C11.01 7.495 11.01 7.495 10 8 C7.64018187 7.06421005 5.30368736 6.06652192 3 5 C3 4.34 3 3.68 3 3 C2.01 2.67 1.02 2.34 0 2 C0 1.34 0 0.68 0 0 Z " fill="#389A8F" transform="translate(223,19)"/>
<path d="M0 0 C4.29 0.66 8.58 1.32 13 2 C13 2.33 13 2.66 13 3 C9.04 3 5.08 3 1 3 C0.67 2.01 0.34 1.02 0 0 Z " fill="#B5EAE6" transform="translate(112,295)"/>
<path d="M0 0 C2.64 1.98 5.28 3.96 8 6 C7.67 6.66 7.34 7.32 7 8 C5.1875 7.8125 5.1875 7.8125 3 7 C0 2.82142857 0 2.82142857 0 0 Z " fill="#CCF5F2" transform="translate(48,260)"/>
<path d="M0 0 C1.90318884 2.85478326 2.4619099 4.41941308 3.125 7.6875 C3.29257812 8.49574219 3.46015625 9.30398437 3.6328125 10.13671875 C3.75398438 10.75160156 3.87515625 11.36648437 4 12 C3.34 12 2.68 12 2 12 C0.00214565 7.8794254 -0.17835515 4.54805635 0 0 Z " fill="#2C998D" transform="translate(282,79)"/>
<path d="M0 0 C1.46726798 3.81489674 0.43336419 6.29011622 -1 10 C-1.66 10 -2.32 10 -3 10 C-3 10.66 -3 11.32 -3 12 C-3.66 12 -4.32 12 -5 12 C-3.68938409 7.76570244 -2.05643741 3.92592596 0 0 Z " fill="#B9EAE7" transform="translate(133,80)"/>
<path d="M0 0 C0.33 0 0.66 0 1 0 C0.67 2.31 0.34 4.62 0 7 C-1.32 7.33 -2.64 7.66 -4 8 C-3.34 6.02 -2.68 4.04 -2 2 C-1.34 2 -0.68 2 0 2 C0 1.34 0 0.68 0 0 Z " fill="#CBF2F0" transform="translate(143,64)"/>
<path d="M0 0 C0.66 0.33 1.32 0.66 2 1 C-0.97 5.95 -0.97 5.95 -4 11 C-4.33 9.68 -4.66 8.36 -5 7 C-4.34 7 -3.68 7 -3 7 C-2.87625 6.030625 -2.7525 5.06125 -2.625 4.0625 C-2.41875 3.051875 -2.2125 2.04125 -2 1 C-1.34 0.67 -0.68 0.34 0 0 Z " fill="#C3F0ED" transform="translate(162,227)"/>
<path d="M0 0 C2.64 1.65 5.28 3.3 8 5 C4 6 4 6 1.75 5.0625 C1.1725 4.711875 0.595 4.36125 0 4 C0 2.68 0 1.36 0 0 Z " fill="#D1F5F2" transform="translate(63,272)"/>
<path d="M0 0 C6.52307692 1.35384615 6.52307692 1.35384615 8.9375 4.625 C9.288125 5.40875 9.63875 6.1925 10 7 C5.56541027 5.6062718 3.12621626 3.39417765 0 0 Z " fill="#3DA194" transform="translate(61,270)"/>
<path d="M0 0 C0.33 1.32 0.66 2.64 1 4 C-0.65 5.32 -2.3 6.64 -4 8 C-4.33 7.01 -4.66 6.02 -5 5 C-4.34 4.67 -3.68 4.34 -3 4 C-3 3.01 -3 2.02 -3 1 C-2.01 0.67 -1.02 0.34 0 0 Z " fill="#119385" transform="translate(277,224)"/>
<path d="M0 0 C0.12375 0.598125 0.2475 1.19625 0.375 1.8125 C0.95475985 4.26231348 0.95475985 4.26231348 3 7 C2.67 7.99 2.34 8.98 2 10 C0.5 8.875 0.5 8.875 -1 7 C-1.25 3.875 -1.25 3.875 -1 1 C-0.67 0.67 -0.34 0.34 0 0 Z " fill="#1E958C" transform="translate(47,251)"/>
<path d="M0 0 C0.66 0.33 1.32 0.66 2 1 C-4.45 5.09326923 -4.45 5.09326923 -7.234375 4.62109375 C-7.81703125 4.41613281 -8.3996875 4.21117187 -9 4 C-7.54618103 3.30300448 -6.08677047 2.61766134 -4.625 1.9375 C-3.40683594 1.36322266 -3.40683594 1.36322266 -2.1640625 0.77734375 C-1.44992188 0.52082031 -0.73578125 0.26429688 0 0 Z " fill="#DBFAF8" transform="translate(203,290)"/>
<path d="M0 0 C1.32 0 2.64 0 4 0 C3.25 1.9375 3.25 1.9375 2 4 C-0.125 4.75 -0.125 4.75 -2 5 C-1.34 3.35 -0.68 1.7 0 0 Z " fill="#CCF2F1" transform="translate(270,238)"/>
<path d="M0 0 C2.50298434 2.93828597 3.46930939 5.17902761 4 9 C2.68 8.34 1.36 7.68 0 7 C0 4.69 0 2.38 0 0 Z " fill="#BBE7E4" transform="translate(12,209)"/>
<path d="M0 0 C0.66 0 1.32 0 2 0 C0.84414715 3.91211733 -0.35534962 6.8745041 -3 10 C-3 8.02 -3 6.04 -3 4 C-2.34 3.67 -1.68 3.34 -1 3 C-0.67 2.01 -0.34 1.02 0 0 Z " fill="#2E9B8F" transform="translate(85,164)"/>
<path d="M0 0 C0.33 0 0.66 0 1 0 C1.125 5.75 1.125 5.75 0 8 C-0.99 8 -1.98 8 -3 8 C-1.125 2.25 -1.125 2.25 0 0 Z " fill="#BFEDEA" transform="translate(89,160)"/>
<path d="M0 0 C2.31 0 4.62 0 7 0 C7.66 1.32 8.32 2.64 9 4 C6.03 3.01 3.06 2.02 0 1 C0 0.67 0 0.34 0 0 Z " fill="#BCE8E4" transform="translate(209,12)"/>
<path d="M0 0 C0.99 0 1.98 0 3 0 C2.39816251 2.02045442 1.72693904 4.02111039 1 6 C0.01 6.495 0.01 6.495 -1 7 C-0.67 4.69 -0.34 2.38 0 0 Z " fill="#C5EDEA" transform="translate(172,206)"/>
<path d="M0 0 C0.33 0 0.66 0 1 0 C0.67 3.3 0.34 6.6 0 10 C-0.66 9.67 -1.32 9.34 -2 9 C-2 7.35 -2 5.7 -2 4 C-1.34 4 -0.68 4 0 4 C0 2.68 0 1.36 0 0 Z " fill="#0E9288" transform="translate(291,188)"/>
<path d="M0 0 C0.33 0 0.66 0 1 0 C1 1.98 1 3.96 1 6 C-0.98 6.99 -0.98 6.99 -3 8 C-2.01 5.36 -1.02 2.72 0 0 Z " fill="#CFF5F4" transform="translate(121,103)"/>
<path d="M0 0 C0.66 0 1.32 0 2 0 C2.33 0.66 2.66 1.32 3 2 C3.99 2.33 4.98 2.66 6 3 C6 4.65 6 6.3 6 8 C1.125 3.375 1.125 3.375 0 0 Z " fill="#CBF5F2" transform="translate(266,54)"/>
<path d="M0 0 C0.99 0 1.98 0 3 0 C3 1.65 3 3.3 3 5 C0 5 0 5 -2 4 C-1.34 2.68 -0.68 1.36 0 0 Z " fill="#C0F1EE" transform="translate(154,43)"/>
<path d="M0 0 C0.66 0 1.32 0 2 0 C1.875 1.875 1.875 1.875 1 4 C-2.0625 5.25 -2.0625 5.25 -5 6 C-3.38405168 3.95880212 -1.7143618 1.95927063 0 0 Z " fill="#45A69C" transform="translate(56,32)"/>
</svg>
