<?xml version="1.0" encoding="UTF-8"?>
<svg version="1.1" xmlns="http://www.w3.org/2000/svg" width="1000" height="1500">
<path d="M0 0 C330 0 660 0 1000 0 C1000 495 1000 990 1000 1500 C670 1500 340 1500 0 1500 C0 1005 0 510 0 0 Z " fill="#000000" transform="translate(0,0)"/>
<path d="M0 0 C132 0 264 0 400 0 C400 132 400 264 400 400 C268 400 136 400 0 400 C0 268 0 136 0 0 Z " fill="#F6DE1D" transform="translate(300,550)"/>
<path d="M0 0 C1.67352539 -0.00483398 1.67352539 -0.00483398 3.38085938 -0.00976562 C20.68922615 0.10177042 33.30518765 4.79143305 45.8125 16.8125 C48.98515709 20.11117385 51.69212158 23.38656074 54.0625 27.3125 C53.99707031 29.29443359 53.99707031 29.29443359 53.0625 31.3125 C50.91699219 33.11181641 50.91699219 33.11181641 48.109375 34.9140625 C47.09746094 35.56890625 46.08554687 36.22375 45.04296875 36.8984375 C43.97691406 37.57132813 42.91085937 38.24421875 41.8125 38.9375 C40.23662109 39.9584375 40.23662109 39.9584375 38.62890625 41 C34.19331394 43.84462574 30.02667874 46.49110259 25.0625 48.3125 C24.26585937 47.28189453 24.26585937 47.28189453 23.453125 46.23046875 C22.74671875 45.32941406 22.0403125 44.42835938 21.3125 43.5 C20.26835938 42.16001953 20.26835938 42.16001953 19.203125 40.79296875 C14.84160735 35.73902037 10.56021422 33.85449074 3.890625 33.05078125 C-1.76912999 32.7677935 -6.35459068 33.8875849 -10.9375 37.3125 C-14.62137127 41.06834744 -15.48683141 43.51470407 -15.4375 48.75 C-15.25068668 54.09527146 -14.7919425 57.35922564 -10.9375 61.3125 C-4.56065223 66.5094508 2.76351064 69.50575983 10.25 72.75 C52.09957319 91.02325696 52.09957319 91.02325696 62.0625 111.3125 C67.70396144 126.01981193 67.74080645 141.63328673 62.0625 156.3125 C55.5500346 170.03184353 44.58351183 178.16226744 30.49609375 183.2109375 C8.96526006 190.11844046 -14.38741472 189.1108654 -34.9375 179.3125 C-47.46119451 172.42446802 -60.08207114 162.26546925 -64.9375 148.3125 C-63.84953125 147.67183594 -62.7615625 147.03117188 -61.640625 146.37109375 C-60.58137817 145.74702637 -60.58137817 145.74702637 -59.50073242 145.11035156 C-57.95268579 144.19998578 -56.40335677 143.2917973 -54.8527832 142.38574219 C-51.29878932 140.30676105 -47.75869146 138.21843128 -44.27734375 136.01953125 C-42.71693359 135.05080078 -42.71693359 135.05080078 -41.125 134.0625 C-40.21105469 133.47984375 -39.29710937 132.8971875 -38.35546875 132.296875 C-35.9375 131.3125 -35.9375 131.3125 -33.84375 131.84375 C-31.48722793 133.65943094 -29.99246228 135.6515459 -28.25 138.0625 C-22.52920543 145.40418636 -15.24248105 150.68782077 -5.9375 152.3125 C3.42629383 153.10504681 12.67773066 153.14816063 21.0625 148.3125 C24.67619303 145.21620373 26.79584886 141.85224286 27.30078125 137.04296875 C27.47068638 131.22148235 27.07300544 127.85070353 23.0625 123.3125 C18.49480998 119.10198273 13.88198634 116.50673829 8.25 113.9375 C7.41831299 113.54884766 6.58662598 113.16019531 5.72973633 112.75976562 C0.99575484 110.57174192 -3.77694921 108.54745606 -8.6315918 106.64428711 C-26.72992697 99.53802597 -41.10415021 89.30710744 -50.2578125 71.78515625 C-55.14171045 60.15601464 -54.95252146 43.30315893 -51.3125 31.3125 C-49.23615929 26.35677392 -46.52863874 22.28926438 -42.9375 18.3125 C-42.28910156 17.56097656 -41.64070312 16.80945313 -40.97265625 16.03515625 C-35.4251277 10.00610623 -29.50826546 6.37420662 -21.9375 3.3125 C-21.30255615 3.04252197 -20.6676123 2.77254395 -20.01342773 2.49438477 C-13.36402045 -0.07065725 -7.06178194 -0.10163762 0 0 Z " fill="#030201" transform="translate(602.9375,731.6875)"/>
<path d="M0 0 C12.54 0 25.08 0 38 0 C38.04525791 17.37729756 38.08205359 34.75454432 38.10362434 52.13188457 C38.11390905 60.20163276 38.12791533 68.27134156 38.15087891 76.34106445 C38.17089912 83.37984346 38.18373679 90.41859392 38.18817699 97.45740062 C38.19076985 101.17965629 38.19680474 104.90183033 38.21146011 108.62405968 C38.22774014 112.79327289 38.2279742 116.96234684 38.22705078 121.1315918 C38.23424133 122.34720291 38.24143188 123.56281403 38.24884033 124.81526184 C38.21348733 139.6514799 36.22635705 153.89040637 27 166 C26.319375 166.969375 25.63875 167.93875 24.9375 168.9375 C16.76983986 178.45394805 2.08946713 183.96018924 -10.1628418 185.22290039 C-28.92521574 186.18162229 -46.91024167 182.66868972 -61.3125 169.8125 C-67.25742489 164.26588221 -72.40274114 157.79177658 -75 150 C-67.97848057 145.6544728 -60.94100353 141.33534983 -53.875 137.0625 C-53.23618896 136.67328369 -52.59737793 136.28406738 -51.93920898 135.88305664 C-49.30968282 134.29857598 -46.92344907 132.97448302 -44 132 C-43.57589844 132.65226563 -43.15179688 133.30453125 -42.71484375 133.9765625 C-37.93522179 141.09872446 -33.38711721 147.24173675 -25 150 C-18.394303 150.75020453 -12.75511182 150.40608658 -7 147 C-1.72519783 141.86776005 -0.90957459 136.09037137 -0.7215271 129.03309631 C-0.69807319 126.62638891 -0.68535478 124.21956216 -0.68115234 121.81274414 C-0.67110672 120.49498993 -0.6610611 119.17723572 -0.65071106 117.81954956 C-0.62351299 114.22298356 -0.60829208 110.62645651 -0.59528303 107.02981496 C-0.57960766 103.26482147 -0.55283158 99.49990698 -0.5272522 95.73497009 C-0.4805422 88.61308201 -0.44376055 81.49117894 -0.41057932 74.36921638 C-0.37230284 66.25791399 -0.32290722 58.1466911 -0.27259517 50.03545582 C-0.16939103 33.35702231 -0.08156097 16.67855553 0 0 Z " fill="#030200" transform="translate(480,734)"/>
<path d="M0 0 C132 0 264 0 400 0 C400 132 400 264 400 400 C268 400 136 400 0 400 C0 268 0 136 0 0 Z M387 3 C384.87956648 3.09290013 382.7562537 3.12373941 380.6337862 3.12304783 C379.65609066 3.1247786 379.65609066 3.1247786 378.65864369 3.12654433 C376.45944099 3.12920576 374.26031048 3.1246927 372.06111145 3.12025452 C370.47459877 3.12069031 368.88808616 3.12156538 367.30157393 3.12284368 C362.9301385 3.12508695 358.55872741 3.12106963 354.18729508 3.11606562 C349.47769236 3.11175891 344.76809108 3.1132077 340.05848694 3.1139679 C331.89484645 3.11449299 323.73121394 3.1113477 315.56757545 3.10573006 C303.76423248 3.0976131 291.96089338 3.09499964 280.15754791 3.09374207 C261.00875697 3.09155186 241.85997028 3.0848926 222.71118164 3.07543945 C204.10668967 3.06626454 185.50219885 3.05918409 166.89770508 3.05493164 C165.75148695 3.05466892 164.60526882 3.05440619 163.4243168 3.05413551 C157.67424535 3.0528305 151.92417389 3.05156678 146.17410243 3.05032361 C98.44939868 3.03995195 50.72469955 3.02233447 3 3 C3.33 4.32 3.66 5.64 4 7 C3.01 7.495 3.01 7.495 2 8 C2.33 136.37 2.66 264.74 3 397 C2.34 397.33 1.68 397.66 1 398 C131.68 398 262.36 398 397 398 C397.94543378 394.21826487 398.12530615 391.3312366 398.12584114 387.45944214 C398.12729458 386.80093616 398.12874802 386.14243018 398.13024551 385.46396947 C398.13390737 383.24792925 398.13041821 381.03195773 398.12698364 378.81591797 C398.12813539 377.21489362 398.12972327 375.61386953 398.13171089 374.01284599 C398.13589689 369.60578806 398.13381678 365.19875171 398.13072467 360.79169369 C398.12846784 356.04181202 398.1319516 351.29193414 398.13470459 346.54205322 C398.13915823 337.23404198 398.13818761 327.92603878 398.13529195 318.61802721 C398.13303633 311.05522629 398.13272609 303.49242763 398.13381577 295.92962646 C398.133969 294.85448316 398.13412223 293.77933985 398.13428011 292.67161644 C398.13459982 290.48768949 398.13492404 288.30376255 398.1352527 286.11983562 C398.1381063 265.62664884 398.13482234 245.13346653 398.12945233 224.64028049 C398.1249844 207.04468996 398.12576037 189.44910603 398.13037109 171.85351562 C398.13571896 151.43516239 398.13783162 131.01681308 398.13475883 110.59845924 C398.13444027 108.42243067 398.1341259 106.24640211 398.13381577 104.07037354 C398.13366149 102.99964155 398.13350721 101.92890957 398.13334826 100.82573116 C398.13248375 93.2693789 398.13394458 85.71302912 398.13629532 78.15667725 C398.13909587 68.95180624 398.13834964 59.74694376 398.13301457 50.54207373 C398.13038103 45.84292729 398.12936668 41.14379509 398.13266373 36.44464874 C398.13563376 32.14667345 398.13402197 27.84872566 398.12868617 23.55075288 C398.12756503 21.99226542 398.12814652 20.43377567 398.13056196 18.87528968 C398.13358475 16.76367896 398.13050183 14.65216353 398.12584114 12.54055786 C398.12567879 11.36559313 398.12551644 10.1906284 398.12534916 8.98005867 C398.01942791 6.46188041 397.7405605 4.39444714 397 2 C391.91696314 1.88679144 391.91696314 1.88679144 387 3 Z " fill="#EFDD3A" transform="translate(300,550)"/>
<path d="M0 0 C0.99 0.33 1.98 0.66 3 1 C2.67 1.99 2.34 2.98 2 4 C1.90949947 6.17499521 1.88168455 8.35275076 1.88533211 10.52962494 C1.88507705 11.19909529 1.884822 11.86856564 1.88455921 12.55832297 C1.88492201 14.81768087 1.89247401 17.07695889 1.89993286 19.33630371 C1.90164395 20.96605054 1.90290673 22.5957979 1.90375793 24.22554541 C1.90735547 28.71661166 1.91716705 33.20764661 1.92791152 37.69870067 C1.93837249 42.53719177 1.94302127 47.37568853 1.94824219 52.21418762 C1.95796407 60.60209249 1.97100905 68.98998685 1.98596573 77.37788391 C2.00930085 90.6276905 2.02232861 103.87749782 2.03366089 117.12731934 C2.03766251 121.65726476 2.04173117 126.18721011 2.04582024 130.71715546 C2.04734908 132.4153235 2.04734908 132.4153235 2.04890881 134.14779797 C2.06065605 147.0397774 2.07453421 159.93175423 2.08935547 172.82373047 C2.09138412 174.59194457 2.09138412 174.59194457 2.09345375 176.39588016 C2.11564895 195.51195869 2.14551741 214.6280197 2.17732288 233.7440843 C2.2096708 253.35329415 2.23056725 272.96249481 2.24159515 292.57172823 C2.24883343 304.67686168 2.26558372 316.78190855 2.29439591 328.88701022 C2.3133417 337.17637888 2.32148244 345.46571284 2.32099093 353.75510299 C2.32105418 358.54328129 2.32611391 363.33132345 2.34415817 368.1194706 C2.36056157 372.49767415 2.36330488 376.87565987 2.35490941 381.25388414 C2.35433253 382.84267322 2.3589008 384.43147368 2.36897077 386.02023095 C2.38187485 388.17055171 2.37650621 390.32005816 2.36635017 392.47037506 C2.36803141 393.66752593 2.36971264 394.86467679 2.37144482 396.09810495 C2 399 2 399 0.88865668 400.88503009 C-1.95185889 402.56193062 -4.30059451 402.37224087 -7.58485699 402.36914349 C-8.26029125 402.37260502 -8.93572551 402.37606655 -9.63162747 402.37963298 C-11.91143198 402.38761979 -14.19061012 402.37407757 -16.47038269 402.36076355 C-18.11464392 402.36207091 -19.75890455 402.36469604 -21.40316182 402.36853105 C-25.9342896 402.37526168 -30.46520596 402.36320806 -34.99630678 402.34819686 C-39.87769033 402.33527779 -44.75906133 402.33962303 -49.64045715 402.34190369 C-58.10205614 402.34347904 -66.56358589 402.33404248 -75.02516747 402.31719017 C-87.25928123 402.2928402 -99.49336141 402.284999 -111.72749678 402.2812262 C-131.57510474 402.27465542 -151.42267577 402.25467728 -171.27026367 402.22631836 C-190.55379043 402.19879399 -209.83730718 402.17755247 -229.12084961 402.16479492 C-230.30888568 402.16400675 -231.49692175 402.16321858 -232.72095891 402.16240653 C-238.6808073 402.1584915 -244.64065577 402.15470036 -250.60050428 402.15097082 C-300.06702838 402.11985541 -349.53351239 402.06700258 -399 402 C-399.33 401.34 -399.66 400.68 -400 400 C-268 400 -136 400 0 400 C0 268 0 136 0 0 Z " fill="#0E0400" transform="translate(700,550)"/>
<path d="M0 0 C0.33 0 0.66 0 1 0 C1 47.85 1 95.7 1 145 C0.34 145 -0.32 145 -1 145 C-0.95875 145.9075 -0.9175 146.815 -0.875 147.75 C-0.99531556 150.8782046 -1.3914708 152.38614006 -3 155 C-3.66 155 -4.32 155 -5 155 C-4.79503906 154.07058594 -4.59007812 153.14117188 -4.37890625 152.18359375 C-4.10949219 150.94738281 -3.84007812 149.71117187 -3.5625 148.4375 C-3.16224609 146.61025391 -3.16224609 146.61025391 -2.75390625 144.74609375 C-1.13556023 136.7046749 -0.83311596 129.10469622 -0.79467773 120.90454102 C-0.77982834 118.94254005 -0.77982834 118.94254005 -0.76467896 116.94090271 C-0.73776852 113.37120232 -0.71668442 109.8014889 -0.69667697 106.23174405 C-0.67473135 102.49479915 -0.64738483 98.75789378 -0.62062073 95.02098083 C-0.57080933 87.95220857 -0.5258279 80.88341422 -0.48259836 73.81459898 C-0.43312692 65.76377776 -0.3782457 57.71299622 -0.32291877 49.66221344 C-0.2092762 33.10817893 -0.10239893 16.55410796 0 0 Z " fill="#F0DE4E" transform="translate(518,735)"/>
<path d="M0 0 C0.99 0 1.98 0 3 0 C4.60355101 3.50776784 5.22036864 6.14354879 5 10 C5.66 10 6.32 10 7 10 C9.19547908 15.33187777 9.31024575 20.08320053 9.25 25.75 C9.24468262 26.64162842 9.23936523 27.53325684 9.23388672 28.4519043 C9.14643279 34.50338385 8.66692784 40.16000453 7 46 C6.84402344 46.69609375 6.68804688 47.3921875 6.52734375 48.109375 C6.0625 50.0625 6.0625 50.0625 5 53 C3.515 53.495 3.515 53.495 2 54 C0.70536974 56.1323322 -0.05810144 58.18324299 -0.8125 60.5625 C-2.31331208 63.64311428 -4.03504239 64.40348436 -7 66 C-7.495 66.99 -7.495 66.99 -8 68 C-9.32 67.67 -10.64 67.34 -12 67 C-11.23816406 66.41605469 -11.23816406 66.41605469 -10.4609375 65.8203125 C-0.74804752 57.92631577 3.68125241 48.20945058 6 36 C7.22716477 23.59046858 4.80707302 11.44541194 0 0 Z " fill="#E6D63F" transform="translate(662,838)"/>
<path d="M0 0 C0.33 0.33 0.66 0.66 1 1 C3.60397609 1.21934633 6.18779421 1.37935203 8.796875 1.5 C9.97555145 1.5609082 9.97555145 1.5609082 11.17803955 1.62304688 C13.70182359 1.75315496 16.22585285 1.87715177 18.75 2 C21.25984222 2.12318244 23.76957183 2.24779055 26.27911377 2.37695312 C27.84269499 2.45735972 29.40645768 2.53433085 30.97039795 2.60742188 C34.73335469 2.80019348 38.32987001 3.13090163 42 4 C42 4.99 42 5.98 42 7 C41.36320313 6.855625 40.72640625 6.71125 40.0703125 6.5625 C32.01378304 5.02385246 24.06225916 4.71773407 15.875 4.625 C14.77945801 4.59921875 13.68391602 4.5734375 12.55517578 4.546875 C5.75817266 4.5305385 0.49119801 5.51198901 -5.75341797 8.23583984 C-8 9 -8 9 -11 8 C-11 6.02 -11 4.04 -11 2 C-7.18009548 0.20239787 -4.21571713 -0.28743526 0 0 Z " fill="#F3DE2C" transform="translate(587,728)"/>
<path d="M0 0 C1.32 0.33 2.64 0.66 4 1 C3.67 1.66 3.34 2.32 3 3 C2.89470462 4.81156199 2.85339229 6.62697647 2.84178162 8.44155884 C2.8319928 9.59704727 2.82220398 10.75253571 2.81211853 11.94303894 C2.80636307 13.21689957 2.8006076 14.49076019 2.79467773 15.80322266 C2.78510131 17.15325726 2.77509137 18.50328885 2.76467896 19.85331726 C2.73759821 23.5245501 2.71660585 27.19579584 2.69667697 30.86707354 C2.67483693 34.70147596 2.64743856 38.53583848 2.62062073 42.37020874 C2.57066699 49.63393522 2.52573813 56.89768381 2.48259836 64.1614536 C2.43324888 72.42980911 2.37832228 80.69812459 2.32291877 88.96644139 C2.20905757 105.97759062 2.10222756 122.98877697 2 140 C1.67 140 1.34 140 1 140 C0.67 93.8 0.34 47.6 0 0 Z " fill="#F2DC2A" transform="translate(518,734)"/>
<path d="M0 0 C1.32 0.33 2.64 0.66 4 1 C3.18208984 1.49306641 3.18208984 1.49306641 2.34765625 1.99609375 C-8.9993263 9.1534212 -17.00531495 17.73919422 -20.60522461 30.88037109 C-21.45825181 35.46044666 -21.32693775 40.10681931 -21.3125 44.75 C-21.32861328 45.7709375 -21.34472656 46.791875 -21.36132812 47.84375 C-21.36586487 54.99366113 -20.21803313 61.20910931 -18 68 C-18.66 68 -19.32 68 -20 68 C-20.495 65.525 -20.495 65.525 -21 63 C-21.66 63 -22.32 63 -23 63 C-23.10038357 58.6808038 -23.17216491 54.36226129 -23.21972656 50.04223633 C-23.23959449 48.57889958 -23.26669882 47.11563951 -23.30175781 45.65258789 C-23.52530319 36.06972347 -23.35071287 26.82146437 -19 18 C-18.01 17.67 -17.02 17.34 -16 17 C-16 16.01 -16 15.02 -16 14 C-15.34 14 -14.68 14 -14 14 C-13.67 12.35 -13.34 10.7 -13 9 C-11.68 9 -10.36 9 -9 9 C-9 8.01 -9 7.02 -9 6 C-8.360625 5.71125 -7.72125 5.4225 -7.0625 5.125 C-4.84793921 4.17176549 -4.84793921 4.17176549 -4 2 C-2.68 2 -1.36 2 0 2 C0 1.34 0 0.68 0 0 Z " fill="#DBCB39" transform="translate(572,737)"/>
<path d="M0 0 C1.34578125 0.59748047 1.34578125 0.59748047 2.71875 1.20703125 C23.48860585 10.14945155 44.07495369 11.08056245 66 6 C66.495 6.99 66.495 6.99 67 8 C58.57775043 12.21112479 47.80918876 11.21379208 38.66015625 11.24023438 C36.63500038 11.24995201 34.61085748 11.28109067 32.5859375 11.3125 C20.71329587 11.35905938 9.17336741 10.31625985 0 2 C0 1.34 0 0.68 0 0 Z " fill="#EBD941" transform="translate(566,909)"/>
<path d="M0 0 C0.495 1.98 0.495 1.98 1 4 C0.18595703 4.29003906 0.18595703 4.29003906 -0.64453125 4.5859375 C-1.35996094 4.84632813 -2.07539063 5.10671875 -2.8125 5.375 C-3.52019531 5.63023437 -4.22789062 5.88546875 -4.95703125 6.1484375 C-7.24773359 7.0265769 -7.24773359 7.0265769 -10 9 C-11.32 9 -12.64 9 -14 9 C-14 9.66 -14 10.32 -14 11 C-14.85464844 11.13277344 -15.70929688 11.26554688 -16.58984375 11.40234375 C-17.69457031 11.57894531 -18.79929687 11.75554688 -19.9375 11.9375 C-21.03964844 12.11152344 -22.14179688 12.28554688 -23.27734375 12.46484375 C-25.90426929 12.71845136 -25.90426929 12.71845136 -27 14 C-29.96967657 14.12898595 -32.90465273 14.18974241 -35.875 14.1875 C-37.16434448 14.1884668 -37.16434448 14.1884668 -38.47973633 14.18945312 C-44.81858056 14.13696246 -50.83480416 13.55168974 -57 12 C-57 11.34 -57 10.68 -57 10 C-58.32 10 -59.64 10 -61 10 C-61 9.34 -61 8.68 -61 8 C-60.13761719 8.2165625 -59.27523438 8.433125 -58.38671875 8.65625 C-38.99347973 13.0796287 -20.54584385 12.50532201 -2.9765625 2.26953125 C-1.07853147 1.14947152 -1.07853147 1.14947152 0 0 Z " fill="#E8D73F" transform="translate(499,907)"/>
<path d="M0 0 C-1.485 1.485 -1.485 1.485 -3 3 C4.22775384 16.32174237 13.54821978 26.59357862 28 32 C28 32.33 28 32.66 28 33 C24.15830842 33.21952523 21.45329726 32.72664863 18 31 C17.67 30.34 17.34 29.68 17 29 C15.00969087 27.95891522 12.97178024 27.08581433 10.91015625 26.1953125 C8.56153078 24.72562049 8.1088442 23.50635446 7 21 C4.95175669 17.9897849 2.84348633 15.29184998 0 13 C-3.85060367 12.79629883 -3.85060367 12.79629883 -7 14 C-7.33 12.02 -7.66 10.04 -8 8 C-6.68 8 -5.36 8 -4 8 C-4.66 5.36 -5.32 2.72 -6 0 C-3.50907189 -1.24546405 -2.58919267 -0.7767578 0 0 Z " fill="#F7DE28" transform="translate(409,882)"/>
<path d="M0 0 C0.763125 0.309375 1.52625 0.61875 2.3125 0.9375 C4.18789677 1.67893593 6.08684652 2.36228217 8 3 C8 3.66 8 4.32 8 5 C9.65 5 11.3 5 13 5 C13 5.66 13 6.32 13 7 C14.175625 7.144375 15.35125 7.28875 16.5625 7.4375 C20.38212272 7.91410176 24.19110019 8.44453544 28 9 C28 8.34 28 7.68 28 7 C28.75925781 7.02320313 29.51851562 7.04640625 30.30078125 7.0703125 C31.79158203 7.09738281 31.79158203 7.09738281 33.3125 7.125 C34.79169922 7.15980469 34.79169922 7.15980469 36.30078125 7.1953125 C39.22406527 7.20682639 39.22406527 7.20682639 42 5 C44.6875 4.875 44.6875 4.875 47 5 C42.65282776 9.77520151 37.5385778 10.77856642 31.23828125 11.328125 C19.63195221 11.79003373 10.5620387 9.5511128 1.36328125 2.26953125 C0.91339844 1.85058594 0.46351563 1.43164062 0 1 C0 0.67 0 0.34 0 0 Z " fill="#E1D445" transform="translate(578,874)"/>
<path d="M0 0 C1.45703125 1.9765625 1.45703125 1.9765625 2.8125 4.625 C5.662856 9.71234425 9.02596796 14.60467319 14.7578125 16.6171875 C17.91306465 17.15588909 21.0566208 17.35552172 24.25 17.5625 C25.51328125 17.64628906 26.7765625 17.73007812 28.078125 17.81640625 C29.52445312 17.90728516 29.52445312 17.90728516 31 18 C31 17.34 31 16.68 31 16 C32.65 15.67 34.3 15.34 36 15 C32.57609954 18.79074694 30.490883 19.76406232 25.484375 20.23828125 C16.82453545 20.47333404 11.55774523 18.62105695 5.25 12.6875 C2.14748023 9.40749054 0.04700866 6.01213698 -2 2 C-4.97 3.32 -7.94 4.64 -11 6 C-11.33 5.01 -11.66 4.02 -12 3 C-10.75336669 2.49166409 -9.50250613 1.99368855 -8.25 1.5 C-7.55390625 1.2215625 -6.8578125 0.943125 -6.140625 0.65625 C-4 0 -4 0 0 0 Z " fill="#DCD048" transform="translate(438,865)"/>
<path d="M0 0 C8.44223378 3.65968755 15.73688286 7.47376571 20 16 C20.55941256 21.98141127 20.45873534 26.87594764 17 32 C16.01 32.66 15.02 33.32 14 34 C14.33 32.35 14.66 30.7 15 29 C15.66 29 16.32 29 17 29 C16.979375 28.2575 16.95875 27.515 16.9375 26.75 C17 24 17 24 17.58203125 22.08984375 C18.09159296 19.54203522 17.67217012 18.22189546 16.75 15.8125 C16.49734375 15.11769531 16.2446875 14.42289063 15.984375 13.70703125 C15.04828019 11.64728347 15.04828019 11.64728347 12 11 C12 10.34 12 9.68 12 9 C11.195625 8.731875 10.39125 8.46375 9.5625 8.1875 C8.716875 7.795625 7.87125 7.40375 7 7 C6.67 6.01 6.34 5.02 6 4 C2.99152582 2.77479736 2.99152582 2.77479736 0 2 C0 1.34 0 0.68 0 0 Z " fill="#E1D243" transform="translate(611,845)"/>
<path d="M0 0 C1.75 0.8125 1.75 0.8125 3.75 2.8125 C3.875 6.4375 3.875 6.4375 3.75 9.8125 C4.41 9.8125 5.07 9.8125 5.75 9.8125 C5.75 10.8025 5.75 11.7925 5.75 12.8125 C7.07 12.8125 8.39 12.8125 9.75 12.8125 C9.42 13.4725 9.09 14.1325 8.75 14.8125 C7.76 14.8125 6.77 14.8125 5.75 14.8125 C3.92578125 12.84375 3.92578125 12.84375 2.0625 10.3125 C1.43988281 9.4771875 0.81726563 8.641875 0.17578125 7.78125 C-0.29472656 7.1315625 -0.76523437 6.481875 -1.25 5.8125 C-3.56 6.4725 -5.87 7.1325 -8.25 7.8125 C-8.25 6.1625 -8.25 4.5125 -8.25 2.8125 C-2.87790698 -0.23982558 -2.87790698 -0.23982558 0 0 Z " fill="#F0DA2D" transform="translate(570.25,858.1875)"/>
<path d="M0 0 C3.36402499 1.84544691 6.37380524 4.19121334 8.9296875 7.05859375 C8.9296875 7.71859375 8.9296875 8.37859375 8.9296875 9.05859375 C6.5546875 8.87109375 6.5546875 8.87109375 3.9296875 8.05859375 C3.22756856 6.40654919 2.55997337 4.73935606 1.9296875 3.05859375 C-0.85076417 2.04762395 -3.4611275 1.93995671 -6.3984375 1.9609375 C-7.59726562 1.96577148 -7.59726562 1.96577148 -8.8203125 1.97070312 C-9.6453125 1.97908203 -10.4703125 1.98746094 -11.3203125 1.99609375 C-12.16078125 2.00060547 -13.00125 2.00511719 -13.8671875 2.00976562 C-15.93492651 2.02151414 -18.00262874 2.03944853 -20.0703125 2.05859375 C-20.0703125 1.39859375 -20.0703125 0.73859375 -20.0703125 0.05859375 C-13.62401846 -3.26852575 -6.55944327 -2.75285872 0 0 Z " fill="#E6D53F" transform="translate(615.0703125,765.94140625)"/>
<path d="M0 0 C0.721875 0.144375 1.44375 0.28875 2.1875 0.4375 C4.94737475 1.02651047 4.94737475 1.02651047 7.5625 1.3125 C10.66954755 2.18884675 11.74413474 3.70363446 14 6 C16.62181854 8.10539974 19.28366785 10.15078607 21.953125 12.1953125 C22.62859375 12.79085937 23.3040625 13.38640625 24 14 C24 14.66 24 15.32 24 16 C24.66 16 25.32 16 26 16 C27.72264494 19.29549466 29.29445932 22.33118845 30 26 C26.88356174 22.93981514 23.90749811 19.81391484 21.00488281 16.54663086 C14.69803797 9.47765314 8.91156182 4.45550356 0 1 C0 0.67 0 0.34 0 0 Z " fill="#D7C939" transform="translate(629,735)"/>
<path d="M0 0 C0.33 0.66 0.66 1.32 1 2 C-1.52788007 4.79872437 -3.20411134 6.45773019 -7 7 C-7.66 9.31 -8.32 11.62 -9 14 C-9.66 13.67 -10.32 13.34 -11 13 C-12.8334517 13 -14.66684055 13.02976501 -16.5 13.0625 C-20 13 -20 13 -22 12 C-22.625 9.4375 -22.625 9.4375 -23 7 C-21.68 8.32 -20.36 9.64 -19 11 C-14.44435939 9.41467191 -10.68524231 7.00996919 -6.6875 4.375 C-6.04232422 3.95476563 -5.39714844 3.53453125 -4.73242188 3.1015625 C-3.15239276 2.07161759 -1.57583953 1.03634372 0 0 Z " fill="#ECD836" transform="translate(647,768)"/>
<path d="M0 0 C2.56976865 3.18651312 5.10453855 6.39944077 7.625 9.625 C8.21539063 10.38039063 8.80578125 11.13578125 9.4140625 11.9140625 C10.66952015 13.56532945 11.8493672 15.27405081 13 17 C11.35 17 9.7 17 8 17 C7.71125 16.401875 7.4225 15.80375 7.125 15.1875 C5.2482612 11.41164839 5.2482612 11.41164839 1.9375 9 C0 8 0 8 -1 5 C-1.66 5.99 -2.32 6.98 -3 8 C-3.75 6.25 -3.75 6.25 -4 4 C-2.0625 1.75 -2.0625 1.75 0 0 Z " fill="#EBD62F" transform="translate(554,806)"/>
<path d="M0 0 C0.61875 0.639375 1.2375 1.27875 1.875 1.9375 C2.91354972 2.96150421 3.95581495 3.9817428 5 5 C5.70511719 5.70125 6.41023438 6.4025 7.13671875 7.125 C13.19816362 12.90338223 19.34259404 16.644951 27 20 C27 20.33 27 20.66 27 21 C23.15830842 21.21952523 20.45329726 20.72664863 17 19 C16.67 18.34 16.34 17.68 16 17 C14.00969087 15.95891522 11.97178024 15.08581433 9.91015625 14.1953125 C7.572291 12.73235388 7.11680037 11.48383817 6 9 C4.47693244 7.12970461 2.86785142 5.36716735 1.2421875 3.5859375 C0 2 0 2 0 0 Z " fill="#E0D147" transform="translate(410,894)"/>
<path d="M0 0 C-9.90291315 6.6019421 -22.62531776 5.32125149 -34 5 C-34 4.67 -34 4.34 -34 4 C-33.21753906 3.93941406 -32.43507813 3.87882813 -31.62890625 3.81640625 C-30.61699219 3.73261719 -29.60507812 3.64882813 -28.5625 3.5625 C-27.55316406 3.48128906 -26.54382813 3.40007813 -25.50390625 3.31640625 C-23.06359221 3.26788532 -23.06359221 3.26788532 -22 2 C-20.41666264 1.97947526 -18.83255466 2.00865568 -17.25 2.0625 C-11.12556258 2.14068431 -6.22282567 -0.24403238 0 0 Z " fill="#342A02" transform="translate(487,914)"/>
<path d="M0 0 C0.33 0.66 0.66 1.32 1 2 C-0.3125 4.625 -0.3125 4.625 -2 7 C-2.66 7 -3.32 7 -4 7 C-3.4618629 12.69051363 -2.8599867 18.34865884 -2 24 C-4.73944762 21.75714547 -5.89235122 20.53474881 -6.6015625 17.01171875 C-6.67261221 6.9345018 -6.67261221 6.9345018 -3 2.6875 C-1.3125 1.07421875 -1.3125 1.07421875 0 0 Z " fill="#E2D33E" transform="translate(593,767)"/>
<path d="M0 0 C0.78036621 0.04310303 1.56073242 0.08620605 2.36474609 0.13061523 C6.24029749 0.37382458 9.95832915 0.73016568 13.75 1.625 C13.75 2.615 13.75 3.605 13.75 4.625 C13.03199219 4.49222656 12.31398438 4.35945312 11.57421875 4.22265625 C1.65556052 2.53043187 -8.20852557 2.02793139 -18.25 1.625 C-18.25 1.295 -18.25 0.965 -18.25 0.625 C-12.07997382 -0.4033377 -6.21946285 -0.3502599 0 0 Z " fill="#CCBE33" transform="translate(615.25,730.375)"/>
<path d="M0 0 C0 3 0 3 -1.625 5.0625 C-4.31458222 7.25663287 -6.67331292 8.09272171 -10 9 C-9.62746094 9.54269531 -9.25492188 10.08539062 -8.87109375 10.64453125 C-8.39800781 11.35996094 -7.92492187 12.07539062 -7.4375 12.8125 C-6.72400391 13.87404297 -6.72400391 13.87404297 -5.99609375 14.95703125 C-5 17 -5 17 -6 20 C-8.31 16.37 -10.62 12.74 -13 9 C-10.30212925 6.30212925 -8.06590529 4.71384075 -4.8125 2.8125 C-3.91144531 2.28269531 -3.01039063 1.75289062 -2.08203125 1.20703125 C-1.39496094 0.80871094 -0.70789063 0.41039062 0 0 Z " fill="#291D01" transform="translate(551,872)"/>
<path d="M0 0 C1.98 0 3.96 0 6 0 C6 0.99 6 1.98 6 3 C3.953125 5.0078125 3.953125 5.0078125 1.25 7.125 C0.36828125 7.82882812 -0.5134375 8.53265625 -1.421875 9.2578125 C-3.7460454 10.82838826 -5.26690306 11.57854113 -8 12 C-8.33 11.01 -8.66 10.02 -9 9 C-3.25 7 -3.25 7 -1 7 C-0.67 4.69 -0.34 2.38 0 0 Z " fill="#130E01" transform="translate(649,899)"/>
<path d="M0 0 C0.33 0 0.66 0 1 0 C1 4.62 1 9.24 1 14 C0.34 14 -0.32 14 -1 14 C-0.95875 14.9075 -0.9175 15.815 -0.875 16.75 C-0.99531556 19.8782046 -1.3914708 21.38614006 -3 24 C-3.66 24 -4.32 24 -5 24 C-4.80664062 23.10539063 -4.61328125 22.21078125 -4.4140625 21.2890625 C-2.88805195 14.20293431 -1.39319492 7.11348936 0 0 Z " fill="#E0D43E" transform="translate(518,866)"/>
<path d="M0 0 C3.43493576 0.59772664 6.44231496 1.47527784 9.64453125 2.84765625 C10.48564453 3.20537109 11.32675781 3.56308594 12.19335938 3.93164062 C13.05767578 4.30482422 13.92199219 4.67800781 14.8125 5.0625 C16.13797852 5.62807617 16.13797852 5.62807617 17.49023438 6.20507812 C19.66201124 7.13248554 21.83181367 8.06423634 24 9 C23.34 9.66 22.68 10.32 22 11 C18.65431382 9.68200241 15.34845689 8.28763627 12.046875 6.86328125 C8.05649197 5.18031436 4.02587217 3.59576824 0 2 C0 1.34 0 0.68 0 0 Z " fill="#E2D33F" transform="translate(586,835)"/>
<path d="M0 0 C0.87822019 2.45901654 1.19223228 3.56061193 0.125 6 C-0.24625 6.66 -0.6175 7.32 -1 8 C-1.1546875 9.0209375 -1.1546875 9.0209375 -1.3125 10.0625 C-2.34022454 12.95881461 -4.37087607 13.56024166 -7 15 C-8.75149165 16.58245275 -8.75149165 16.58245275 -10 18 C-10.66 17.34 -11.32 16.68 -12 16 C-11.2575 15.278125 -10.515 14.55625 -9.75 13.8125 C-5.54068709 9.50752089 -2.54568784 5.47322886 0 0 Z " fill="#E5D53C" transform="translate(512,890)"/>
<path d="M0 0 C-3.54223173 4.13071751 -7.79431078 4.39371491 -13 5 C-17.00722284 5.14597404 -20.99255885 5.12394148 -25 5 C-25 4.67 -25 4.34 -25 4 C-23.02 4 -21.04 4 -19 4 C-19 3.34 -19 2.68 -19 2 C-18.24074219 2.02320313 -17.48148438 2.04640625 -16.69921875 2.0703125 C-15.20841797 2.09738281 -15.20841797 2.09738281 -13.6875 2.125 C-12.20830078 2.15980469 -12.20830078 2.15980469 -10.69921875 2.1953125 C-6.57218517 1.89668489 -4.41429441 -0.23861051 0 0 Z " fill="#F2DE36" transform="translate(625,879)"/>
<path d="M0 0 C0.33 0 0.66 0 1 0 C1.03738281 1.31613281 1.07476563 2.63226562 1.11328125 3.98828125 C1.44073839 13.32036606 1.76468823 22.12832746 5 31 C4.34 31 3.68 31 3 31 C2.67 29.35 2.34 27.7 2 26 C1.34 26 0.68 26 0 26 C0 17.42 0 8.84 0 0 Z " fill="#C1B333" transform="translate(549,774)"/>
<path d="M0 0 C0.66 0 1.32 0 2 0 C0.89503731 3.59112874 -0.42005867 6.9734099 -2 10.375 C-3.88956429 14.52781106 -5.0284755 18.54717939 -6 23 C-6.33 23 -6.66 23 -7 23 C-6.68676801 15.63904818 -5.06085395 9.69116911 -2 3 C-1.34 3 -0.68 3 0 3 C0 2.01 0 1.02 0 0 Z " fill="#E5D646" transform="translate(556,751)"/>
<path d="M0 0 C0.33 1.32 0.66 2.64 1 4 C0.45730469 4.19335938 -0.08539063 4.38671875 -0.64453125 4.5859375 C-1.35996094 4.84632813 -2.07539063 5.10671875 -2.8125 5.375 C-3.52019531 5.63023437 -4.22789062 5.88546875 -4.95703125 6.1484375 C-7.24773359 7.0265769 -7.24773359 7.0265769 -10 9 C-11.32 9 -12.64 9 -14 9 C-14 9.66 -14 10.32 -14 11 C-15.65 11 -17.3 11 -19 11 C-19 10.34 -19 9.68 -19 9 C-18.29875 8.76925781 -17.5975 8.53851562 -16.875 8.30078125 C-10.70323016 6.17923537 -5.35189843 3.74172841 0 0 Z " fill="#DCCC40" transform="translate(499,907)"/>
<path d="M0 0 C0.33 0.99 0.66 1.98 1 3 C-0.38866323 3.9893091 -1.78629851 4.96603078 -3.1875 5.9375 C-3.96480469 6.48277344 -4.74210938 7.02804687 -5.54296875 7.58984375 C-8.12448455 9.07144503 -10.04943132 9.69576788 -13 10 C-13.99 9.67 -14.98 9.34 -16 9 C-13.03613966 7.02409311 -10.07091912 5.50465552 -6.875 3.9375 C-3.19709011 2.32806646 -3.19709011 2.32806646 0 0 Z " fill="#E0CE40" transform="translate(649,906)"/>
<path d="M0 0 C2 0 2 0 3.25 1.1875 C3.8275 1.785625 4.405 2.38375 5 3 C6.97553449 4.697646 8.98781794 6.34553919 11 8 C10.34 9.32 9.68 10.64 9 12 C7.49405319 10.38050958 5.99539332 8.75424026 4.5 7.125 C3.6646875 6.22007812 2.829375 5.31515625 1.96875 4.3828125 C0 2 0 2 0 0 Z " fill="#100D01" transform="translate(410,892)"/>
<path d="M0 0 C0.66 0 1.32 0 2 0 C0.52848475 4.85600034 -2.35047748 8.54549014 -6 12 C-6.99 12.33 -7.98 12.66 -9 13 C-9 11.68 -9 10.36 -9 9 C-8.34 9 -7.68 9 -7 9 C-7 8.34 -7 7.68 -7 7 C-5.01739574 5.31267723 -3.0167658 3.64633943 -1 2 C-0.67 1.34 -0.34 0.68 0 0 Z " fill="#211501" transform="translate(508,894)"/>
<path d="M0 0 C1.7074998 1.28062485 3.37373596 2.61767557 5 4 C5 4.66 5 5.32 5 6 C5.9590625 6.433125 5.9590625 6.433125 6.9375 6.875 C9 8 9 8 10 10 C7.03 10 4.06 10 1 10 C1 7.37886292 1.31292445 5.49064888 2 3 C1.34 3 0.68 3 0 3 C0 2.01 0 1.02 0 0 Z " fill="#DFCF34" transform="translate(544,891)"/>
<path d="M0 0 C-5.28 2.97 -10.56 5.94 -16 9 C-16.66 8.34 -17.32 7.68 -18 7 C-16.75747321 6.15556432 -15.5056114 5.3248542 -14.25 4.5 C-13.20585938 3.80390625 -13.20585938 3.80390625 -12.140625 3.09375 C-10 2 -10 2 -6 2 C-6 1.34 -6 0.68 -6 0 C-3 -1 -3 -1 0 0 Z " fill="#E1D23F" transform="translate(555,871)"/>
<path d="M0 0 C1.484375 1.6796875 1.484375 1.6796875 2.75 3.875 C3.39195312 4.95394531 3.39195312 4.95394531 4.046875 6.0546875 C5 8 5 8 5 10 C0.60841671 8.5361389 0.12052567 6.02168662 -2 2 C-4.97 3.32 -7.94 4.64 -11 6 C-11.33 5.01 -11.66 4.02 -12 3 C-10.75336669 2.49166409 -9.50250613 1.99368855 -8.25 1.5 C-7.55390625 1.2215625 -6.8578125 0.943125 -6.140625 0.65625 C-4 0 -4 0 0 0 Z " fill="#DECC3F" transform="translate(438,865)"/>
<path d="M0 0 C0.66 0.33 1.32 0.66 2 1 C1.01 3.31 0.02 5.62 -1 8 C-0.01 8.66 0.98 9.32 2 10 C0.35 10.33 -1.3 10.66 -3 11 C-3.99 8.69 -4.98 6.38 -6 4 C-4.02 2.68 -2.04 1.36 0 0 Z " fill="#231903" transform="translate(411,880)"/>
<path d="M0 0 C0 5.06495871 -0.0853549 7.97381281 -3.5625 11.875 C-4.366875 12.57625 -5.17125 13.2775 -6 14 C-6.33 13.34 -6.66 12.68 -7 12 C-6.07421875 9.6875 -6.07421875 9.6875 -4.6875 7 C-4.23761719 6.113125 -3.78773438 5.22625 -3.32421875 4.3125 C-2 2 -2 2 0 0 Z " fill="#211903" transform="translate(559,751)"/>
<path d="M0 0 C0.66 0 1.32 0 2 0 C3 3 3 3 3 5 C3.99 5.66 4.98 6.32 6 7 C5.67 7.66 5.34 8.32 5 9 C3.58124235 8.23302204 2.16508548 7.46123222 0.75 6.6875 C-0.03890625 6.25824219 -0.8278125 5.82898438 -1.640625 5.38671875 C-3.89727134 4.0603786 -5.93998597 2.61115776 -8 1 C-6.865625 1.020625 -5.73125 1.04125 -4.5625 1.0625 C-1.18424326 1.41577477 -1.18424326 1.41577477 0 0 Z " fill="#E1D03A" transform="translate(636,810)"/>
<path d="M0 0 C0.33 0 0.66 0 1 0 C1.58469222 3.92579059 1.61369681 5.97222282 -0.453125 9.43359375 C-5.26836133 15.75612044 -5.26836133 15.75612044 -9 17 C-11.1875 16.0625 -11.1875 16.0625 -13 15 C-11.9275 14.608125 -10.855 14.21625 -9.75 13.8125 C-6.059674 12.20963113 -4.14110827 10.48921348 -2 7 C-1.15366807 4.67379624 -0.56899981 2.41824921 0 0 Z " fill="#271C00" transform="translate(479,869)"/>
<path d="M0 0 C4.95 1.98 9.9 3.96 15 6 C15 6.33 15 6.66 15 7 C12.5625 7.875 12.5625 7.875 9 8 C5.72243805 6.36388371 2.75478279 4.41808712 0 2 C0 1.34 0 0.68 0 0 Z " fill="#DECE3A" transform="translate(566,909)"/>
<path d="M0 0 C2.27434653 1.26486115 4.54438745 2.53654703 6.8125 3.8125 C7.45509766 4.16892578 8.09769531 4.52535156 8.75976562 4.89257812 C11.86538435 6.6465286 14.67459095 8.25964807 17 11 C11.66813752 10.08596643 7.77452115 8.93863076 4 5 C1.90010348 3.82425289 1.90010348 3.82425289 0 3 C0 2.01 0 1.02 0 0 Z " fill="#E3D543" transform="translate(569,824)"/>
<path d="M0 0 C0.66 0.33 1.32 0.66 2 1 C2 1.66 2 2.32 2 3 C2.66 3 3.32 3 4 3 C5.72264494 6.29549466 7.29445932 9.33118845 8 13 C1.55458515 6.73362445 1.55458515 6.73362445 -1 3 C-0.67 2.01 -0.34 1.02 0 0 Z " fill="#E8D53D" transform="translate(651,748)"/>
<path d="M0 0 C0.99 0.33 1.98 0.66 3 1 C2.21658881 2.98244892 1.42302514 4.96088859 0.625 6.9375 C0.18414063 8.03964844 -0.25671875 9.14179687 -0.7109375 10.27734375 C-2 13 -2 13 -4 14 C-4.75 12.25 -4.75 12.25 -5 10 C-3.66666667 8.66666667 -2.33333333 7.33333333 -1 6 C-0.19684346 2.85518209 -0.19684346 2.85518209 0 0 Z " fill="#1E1200" transform="translate(664,881)"/>
<path d="M0 0 C1.65 0 3.3 0 5 0 C0.98745115 3.51098025 -3.20983041 5.76537994 -8 8 C-8 7.34 -8 6.68 -8 6 C-7.34 6 -6.68 6 -6 6 C-5.67 4.68 -5.34 3.36 -5 2 C-3.35 1.67 -1.7 1.34 0 1 C0 0.67 0 0.34 0 0 Z " fill="#E0D043" transform="translate(418,873)"/>
<path d="M0 0 C0.680625 0.309375 1.36125 0.61875 2.0625 0.9375 C5.36965912 2.13370649 8.51545878 2.59005397 12 3 C12.33 3.99 12.66 4.98 13 6 C12.01 6.495 12.01 6.495 11 7 C8.92803369 6.26821134 6.8891448 5.44100997 4.875 4.5625 C3.77929688 4.08941406 2.68359375 3.61632812 1.5546875 3.12890625 C0.71164062 2.75636719 -0.13140625 2.38382813 -1 2 C-0.67 1.34 -0.34 0.68 0 0 Z " fill="#DED13C" transform="translate(611,802)"/>
<path d="M0 0 C0.96808594 -0.01417969 1.93617188 -0.02835938 2.93359375 -0.04296875 C5.5625 0.1875 5.5625 0.1875 8.5625 2.1875 C0.6425 2.6825 0.6425 2.6825 -7.4375 3.1875 C-7.4375 2.5275 -7.4375 1.8675 -7.4375 1.1875 C-4.84996844 -0.10626578 -2.88791015 0.01917603 0 0 Z " fill="#E9D93E" transform="translate(602.4375,764.8125)"/>
<path d="M0 0 C-0.639375 0.309375 -1.27875 0.61875 -1.9375 0.9375 C-3.93610821 1.8345163 -3.93610821 1.8345163 -5 3 C-7.01964199 3.07244053 -9.04167124 3.08377188 -11.0625 3.0625 C-12.16722656 3.05347656 -13.27195312 3.04445313 -14.41015625 3.03515625 C-15.69212891 3.01775391 -15.69212891 3.01775391 -17 3 C-14.01868487 1.36062254 -11.26954472 0.48091923 -7.9375 -0.1875 C-7.08027344 -0.36667969 -6.22304688 -0.54585937 -5.33984375 -0.73046875 C-3 -1 -3 -1 0 0 Z " fill="#D6C83D" transform="translate(633,916)"/>
<path d="M0 0 C1.60597325 0.45196245 3.20972508 0.91182327 4.8125 1.375 C6.15248047 1.75785156 6.15248047 1.75785156 7.51953125 2.1484375 C10 3 10 3 13 5 C9.30581799 6.231394 6.7943739 5.64432764 3 5 C3 4.34 3 3.68 3 3 C2.01 2.67 1.02 2.34 0 2 C0 1.34 0 0.68 0 0 Z " fill="#1E1400" transform="translate(584,880)"/>
<path d="M0 0 C0.99 0.33 1.98 0.66 3 1 C3 1.66 3 2.32 3 3 C4.65 3.33 6.3 3.66 8 4 C8.33 4.99 8.66 5.98 9 7 C4.76570244 5.68938409 0.92592596 4.05643741 -3 2 C-2.01 1.34 -1.02 0.68 0 0 Z " fill="#E0D235" transform="translate(601,796)"/>
<path d="M0 0 C-1.485 1.485 -1.485 1.485 -3 3 C-1.68 5.64 -0.36 8.28 1 11 C0.01 11 -0.98 11 -2 11 C-2.67119549 9.5437455 -3.33681807 8.08492133 -4 6.625 C-4.37125 5.81289063 -4.7425 5.00078125 -5.125 4.1640625 C-6 2 -6 2 -6 0 C-3.50907189 -1.24546405 -2.58919267 -0.7767578 0 0 Z " fill="#E7D63F" transform="translate(409,882)"/>
<path d="M0 0 C3.9382716 3.34156379 3.9382716 3.34156379 4.1875 6 C2.26146866 9.24384225 -0.67516144 10.30735492 -4 12 C-4 11.01 -4 10.02 -4 9 C-2.02 8.34 -0.04 7.68 2 7 C0.515 4.03 0.515 4.03 -1 1 C-0.67 0.67 -0.34 0.34 0 0 Z " fill="#201700" transform="translate(653,755)"/>
<path d="M0 0 C1.32 1.32 2.64 2.64 4 4 C3 6 2 8 1 10 C0.34 10 -0.32 10 -1 10 C-0.67 6.7 -0.34 3.4 0 0 Z " fill="#EDD82E" transform="translate(540,885)"/>
<path d="M0 0 C-1 2 -2 4 -3 6 C-6.0625 6.625 -6.0625 6.625 -9 7 C-9.33 6.34 -9.66 5.68 -10 5 C-8.71186658 4.16121545 -7.41936744 3.32913217 -6.125 2.5 C-5.40570313 2.0359375 -4.68640625 1.571875 -3.9453125 1.09375 C-2 0 -2 0 0 0 Z " fill="#1B0F01" transform="translate(423,874)"/>
<path d="M0 0 C2.00720923 0.28674418 4.0085944 0.61866701 6 1 C6 2.98 6 4.96 6 7 C5.4121875 6.2265625 5.4121875 6.2265625 4.8125 5.4375 C3.9153125 4.7259375 3.9153125 4.7259375 3 4 C0.34533951 4.23043864 0.34533951 4.23043864 -2 5 C-1.125 1.125 -1.125 1.125 0 0 Z " fill="#E7CF34" transform="translate(566,860)"/>
<path d="M0 0 C4.00904913 1.33634971 6.04937443 3.04937443 9 6 C11.63222962 7.25436187 11.63222962 7.25436187 14 8 C12.375 8.75 12.375 8.75 10 9 C5.67733819 6.65855818 2.86550351 3.96762024 0 0 Z " fill="#E8DA4A" transform="translate(442,875)"/>
<path d="M0 0 C0.33 0.66 0.66 1.32 1 2 C-1.75264252 5.05849168 -4.00751252 6.87391379 -8 8 C-8.99 7.67 -9.98 7.34 -11 7 C-7.37 4.69 -3.74 2.38 0 0 Z " fill="#DBCB40" transform="translate(647,768)"/>
<path d="M0 0 C2.97 1.65 5.94 3.3 9 5 C8.34 5.66 7.68 6.32 7 7 C5.02 6.34 3.04 5.68 1 5 C0.67 3.35 0.34 1.7 0 0 Z " fill="#E7D73D" transform="translate(556,903)"/>
<path d="M0 0 C-2.41407698 1.60938465 -4.34044437 2.65490738 -7 3.6875 C-8.0209375 4.09548828 -8.0209375 4.09548828 -9.0625 4.51171875 C-11 5 -11 5 -14 4 C-13.01 3.67 -12.02 3.34 -11 3 C-11 2.34 -11 1.68 -11 1 C-7.27569643 0.30710631 -3.78916254 -0.11144596 0 0 Z " fill="#DFD03E" transform="translate(590,732)"/>
<path d="M0 0 C-0.1875 1.875 -0.1875 1.875 -1 4 C-3.63678659 5.49655455 -5.16532951 6.17595756 -8.16796875 5.54296875 C-8.77253906 5.36378906 -9.37710938 5.18460938 -10 5 C-8.71186658 4.16121545 -7.41936744 3.32913217 -6.125 2.5 C-5.40570312 2.0359375 -4.68640625 1.571875 -3.9453125 1.09375 C-2 0 -2 0 0 0 Z " fill="#201501" transform="translate(565,865)"/>
<path d="M0 0 C0.99 0.33 1.98 0.66 3 1 C0.48169253 4.12270126 -0.7261549 4.94523098 -4.75 5.75 C-6.35875 5.87375 -6.35875 5.87375 -8 6 C-5.63055987 3.38114512 -3.16266898 1.58133449 0 0 Z " fill="#251A02" transform="translate(576,737)"/>
<path d="M0 0 C2.90566282 1.96559544 4.31913707 4.47072518 6.125 7.4375 C4.475 7.1075 2.825 6.7775 1.125 6.4375 C0.795 4.7875 0.465 3.1375 0.125 1.4375 C-1.195 1.1075 -2.515 0.7775 -3.875 0.4375 C-1.875 -0.5625 -1.875 -0.5625 0 0 Z " fill="#281E02" transform="translate(568.875,863.5625)"/>
<path d="M0 0 C1.4835001 0.42257276 2.96176424 0.86356322 4.4375 1.3125 C5.67306641 1.67794922 5.67306641 1.67794922 6.93359375 2.05078125 C7.95646484 2.52064453 7.95646484 2.52064453 9 3 C9.33 3.99 9.66 4.98 10 6 C8.53932801 5.54917531 7.08151968 5.08906463 5.625 4.625 C4.81289063 4.36976563 4.00078125 4.11453125 3.1640625 3.8515625 C1 3 1 3 -1 1 C-0.67 0.67 -0.34 0.34 0 0 Z " fill="#271901" transform="translate(606,841)"/>
<path d="M0 0 C0.33 0.66 0.66 1.32 1 2 C1.969375 2.268125 2.93875 2.53625 3.9375 2.8125 C7 4 7 4 8.19140625 6.57421875 C8.59166016 7.77498047 8.59166016 7.77498047 9 9 C7.491987 8.07544441 5.99375083 7.1349253 4.5 6.1875 C3.6646875 5.66542969 2.829375 5.14335938 1.96875 4.60546875 C0.99421875 3.81076172 0.99421875 3.81076172 0 3 C0 2.01 0 1.02 0 0 Z " fill="#E1CE3C" transform="translate(644,818)"/>
<path d="M0 0 C0 0.99 0 1.98 0 3 C0.9590625 3.3403125 0.9590625 3.3403125 1.9375 3.6875 C4 5 4 5 4.75 7.625 C4.87375 8.800625 4.87375 8.800625 5 10 C2 7 -1 4 -4 1 C-2 0 -2 0 0 0 Z " fill="#231A01" transform="translate(621,766)"/>
<path d="M0 0 C6.45892714 -0.40368295 11.06108578 0.4084738 17 3 C16.34 3.66 15.68 4.32 15 5 C14.01 4.525625 13.02 4.05125 12 3.5625 C8.00810505 1.83186252 4.31885418 1.37884686 0 1 C0 0.67 0 0.34 0 0 Z " fill="#BEAF3A" transform="translate(600,764)"/>
<path d="M0 0 C0.66 0.66 1.32 1.32 2 2 C1.01 2 0.02 2 -1 2 C-1.33 2.99 -1.66 3.98 -2 5 C-4.64 5.33 -7.28 5.66 -10 6 C-6.80009492 3.25722422 -3.99500618 1.3697164 0 0 Z " fill="#E4D040" transform="translate(658,762)"/>
<path d="M0 0 C3.7952131 1.49097658 5.61042731 3.75700849 8 7 C6.35 7.33 4.7 7.66 3 8 C1.92474806 5.34771188 0.90543849 2.71631546 0 0 Z " fill="#170D03" transform="translate(640,742)"/>
<path d="M0 0 C3.40312738 1.05875074 6.01353231 2.00902154 9 4 C9 4.66 9 5.32 9 6 C6.36 5.34 3.72 4.68 1 4 C0.67 2.68 0.34 1.36 0 0 Z " fill="#1E1403" transform="translate(630,736)"/>
<path d="M0 0 C-0.33 0.99 -0.66 1.98 -1 3 C-4.3 3.33 -7.6 3.66 -11 4 C-7.88789178 0.88789178 -4.34860953 0 0 0 Z " fill="#211600" transform="translate(590,733)"/>
<path d="M0 0 C-5.75 4 -5.75 4 -8 4 C-8.33 3.01 -8.66 2.02 -9 1 C-3.375 -1.125 -3.375 -1.125 0 0 Z " fill="#251C01" transform="translate(649,907)"/>
<path d="M0 0 C1.65 0 3.3 0 5 0 C5 0.66 5 1.32 5 2 C6.32 2.33 7.64 2.66 9 3 C6.03 3 3.06 3 0 3 C0 2.01 0 1.02 0 0 Z " fill="#F4E02F" transform="translate(433,915)"/>
<path d="M0 0 C2.31 1.65 4.62 3.3 7 5 C6.01 5.66 5.02 6.32 4 7 C2 5.75 2 5.75 0 4 C0 2.68 0 1.36 0 0 Z " fill="#1C1201" transform="translate(576,873)"/>
<path d="M0 0 C1.32 0.66 2.64 1.32 4 2 C2.6875 3.5 2.6875 3.5 1 5 C0.01 5 -0.98 5 -2 5 C-1.125 1.125 -1.125 1.125 0 0 Z " fill="#EEDF2C" transform="translate(423,868)"/>
<path d="M0 0 C0.86625 0.4640625 0.86625 0.4640625 1.75 0.9375 C3.84294184 1.92583364 5.74535275 2.5168613 8 3 C8 3.99 8 4.98 8 6 C4.54074837 4.7508258 1.85306797 3.32472205 -1 1 C-0.67 0.67 -0.34 0.34 0 0 Z " fill="#271D02" transform="translate(580,829)"/>
<path d="M0 0 C0 0.66 0 1.32 0 2 C0.99 1.67 1.98 1.34 3 1 C2.67 1.99 2.34 2.98 2 4 C-1.3 3.67 -4.6 3.34 -8 3 C-5.22569089 1.15046059 -3.35957737 0 0 0 Z " fill="#F8E02C" transform="translate(605,794)"/>
<path d="M0 0 C2.64 0 5.28 0 8 0 C8.66 1.32 9.32 2.64 10 4 C6.7 3.01 3.4 2.02 0 1 C0 0.67 0 0.34 0 0 Z " fill="#221601" transform="translate(432,912)"/>
<path d="M0 0 C0.33 0 0.66 0 1 0 C1 3.3 1 6.6 1 10 C0.01 10.33 -0.98 10.66 -2 11 C-1.34 7.37 -0.68 3.74 0 0 Z " fill="#DACB3C" transform="translate(668,874)"/>
<path d="M0 0 C1 2 1 2 0.44140625 3.9453125 C0.15136719 4.66460938 -0.13867188 5.38390625 -0.4375 6.125 C-0.72496094 6.84945312 -1.01242187 7.57390625 -1.30859375 8.3203125 C-1.53675781 8.87460937 -1.76492188 9.42890625 -2 10 C-2.33 10 -2.66 10 -3 10 C-3.36923077 3.47692308 -3.36923077 3.47692308 -1.5 1.0625 C-1.005 0.711875 -0.51 0.36125 0 0 Z " fill="#2C2302" transform="translate(515,880)"/>
<path d="M0 0 C2.31 1.98 4.62 3.96 7 6 C4 7 4 7 2 7 C0.5393715 4.35261084 0 3.10551666 0 0 Z " fill="#EFDD40" transform="translate(560,816)"/>
<path d="M0 0 C0.66 0 1.32 0 2 0 C1.38461538 5.53846154 1.38461538 5.53846154 -0.5625 7.875 C-1.036875 8.24625 -1.51125 8.6175 -2 9 C-2.33 8.34 -2.66 7.68 -3 7 C-2.06421005 4.64018187 -1.06652192 2.30368736 0 0 Z " fill="#E2D349" transform="translate(477,870)"/>
<path d="M0 0 C2.79872437 2.52788007 4.45773019 4.20411134 5 8 C4.34 8 3.68 8 3 8 C2.67 7.01 2.34 6.02 2 5 C0.70644173 3.62804426 -0.62298702 2.28817344 -2 1 C-1.34 0.67 -0.68 0.34 0 0 Z " fill="#221200" transform="translate(435,866)"/>
<path d="M0 0 C0.66 0.33 1.32 0.66 2 1 C2.34342449 2.33076989 2.67619874 3.66431979 3 5 C3.66 5.66 4.32 6.32 5 7 C4.34 7.66 3.68 8.32 3 9 C0.525 5.04 0.525 5.04 -2 1 C-1.34 0.67 -0.68 0.34 0 0 Z " fill="#E3D03A" transform="translate(658,829)"/>
<path d="M0 0 C4.75 0.875 4.75 0.875 7 2 C6.67 3.32 6.34 4.64 6 6 C3.97945196 4.35830472 1.97956942 2.69088222 0 1 C0 0.67 0 0.34 0 0 Z " fill="#2F2301" transform="translate(565,820)"/>
<path d="M0 0 C-1.1875 1.5 -1.1875 1.5 -3 3 C-5.6875 3.1875 -5.6875 3.1875 -8 3 C-8.33 2.34 -8.66 1.68 -9 1 C-5.8035914 -0.06546953 -3.34252724 -0.07427838 0 0 Z " fill="#E2D22F" transform="translate(642,913)"/>
<path d="M0 0 C2.475 0.99 2.475 0.99 5 2 C5 2.99 5 3.98 5 5 C3.02 4.01 1.04 3.02 -1 2 C-0.67 1.34 -0.34 0.68 0 0 Z " fill="#E9D437" transform="translate(419,905)"/>
<path d="M0 0 C0.66 0 1.32 0 2 0 C4.1875 2.3125 4.1875 2.3125 6 5 C5.67 5.99 5.34 6.98 5 8 C0 2.25 0 2.25 0 0 Z " fill="#281B01" transform="translate(410,892)"/>
<path d="M0 0 C2.99931194 1.99954129 3.81380099 2.73795271 5 6 C4.67 6.99 4.34 7.98 4 9 C0 3.375 0 3.375 0 0 Z " fill="#1F1400" transform="translate(541,883)"/>
<path d="M0 0 C-2.05233685 2.2477975 -3.00667261 3.0022242 -6 4 C-6.66 3.34 -7.32 2.68 -8 2 C-4.77208445 -0.1519437 -3.71599191 -0.20086443 0 0 Z " fill="#DCCE36" transform="translate(625,879)"/>
<path d="M0 0 C2.31 0.33 4.62 0.66 7 1 C5.515 2.485 5.515 2.485 4 4 C3.01 3.67 2.02 3.34 1 3 C0.67 2.01 0.34 1.02 0 0 Z " fill="#291701" transform="translate(626,776)"/>
<path d="M0 0 C-2.97 1.65 -5.94 3.3 -9 5 C-7.27964048 -0.16107856 -5.26612131 -1.31653033 0 0 Z " fill="#201600" transform="translate(647,769)"/>
</svg>
