<?xml version="1.0" encoding="UTF-8"?>
<svg version="1.1" xmlns="http://www.w3.org/2000/svg" width="460" height="460">
<path d="M0 0 C151.8 0 303.6 0 460 0 C460 151.8 460 303.6 460 460 C308.2 460 156.4 460 0 460 C0 308.2 0 156.4 0 0 Z " fill="#1E1F1E" transform="translate(0,0)"/>
<path d="M0 0 C1.7325 0.1546875 1.7325 0.1546875 3.5 0.3125 C5.70204976 3.61557464 5.7482028 4.58340455 5.74050903 8.41874695 C5.74463303 10.00258682 5.74463303 10.00258682 5.74884033 11.61842346 C5.7380545 13.35550819 5.7380545 13.35550819 5.72705078 15.12768555 C5.72734283 16.34731995 5.72763489 17.56695435 5.72793579 18.82354736 C5.72678032 22.16840096 5.71674268 25.51300836 5.70278788 28.85781837 C5.69029424 32.35318767 5.6891111 35.84856018 5.68673706 39.34394836 C5.68051826 45.96312443 5.66410206 52.58223451 5.64403808 59.2013815 C5.62169149 66.73696951 5.61068878 74.27256065 5.60064721 81.80817354 C5.57973617 97.30965392 5.54455245 112.81106845 5.5 128.3125 C6.18083743 128.30973462 6.86167486 128.30696924 7.56314373 128.30412006 C24.13010231 128.23786445 40.69701893 128.18822151 57.26407909 128.15706348 C65.27579189 128.14159516 73.28741624 128.12050636 81.29907227 128.08618164 C88.28210694 128.05627816 95.26507756 128.03692474 102.24817449 128.03023452 C105.94562764 128.02632384 109.64289755 128.01713411 113.34029198 127.99530983 C117.46807354 127.97114281 121.5955366 127.97053061 125.72338867 127.97192383 C126.94906052 127.961138 128.17473236 127.95035217 129.43754578 127.9392395 C131.12647949 127.94542549 131.12647949 127.94542549 132.84953308 127.95173645 C133.82571185 127.94897107 134.80189062 127.94620569 135.80765057 127.94335651 C140.27344494 128.55565404 142.82382375 130.54241038 145.75 133.875 C148.66838539 137.93989394 149.29093189 141.36700279 148.5 146.3125 C147.12510147 149.20562625 145.34722181 151.7055757 143.5 154.3125 C142.79037109 155.52099609 142.79037109 155.52099609 142.06640625 156.75390625 C140.46106612 159.37609523 138.69436211 161.68260078 136.75 164.0625 C135.70005859 165.35994141 135.70005859 165.35994141 134.62890625 166.68359375 C133.92636719 167.55113281 133.22382813 168.41867188 132.5 169.3125 C128.87570553 173.85542752 125.45460309 178.30252084 122.5 183.3125 C121.63059288 184.50372015 120.74725742 185.68481671 119.85546875 186.859375 C117.54730682 189.9164489 115.25965501 192.98682298 112.9921875 196.07421875 C112.39792969 196.88310547 111.80367187 197.69199219 111.19140625 198.52539062 C109.97214328 200.18647255 108.75340012 201.84793614 107.53515625 203.50976562 C104.59572018 207.50906372 101.61329907 211.44598341 98.5 215.3125 C97.84 216.3025 97.18 217.2925 96.5 218.3125 C94.5 221.3125 94.5 221.3125 92.375 223.9375 C90.48593691 226.14480223 90.48593691 226.14480223 89.5625 228.3125 C88.5 230.3125 88.5 230.3125 86.2421875 232.51171875 C83.29000471 235.52698237 80.95631228 238.66753135 78.5625 242.125 C77.68035143 243.37937343 76.79754337 244.63328333 75.9140625 245.88671875 C75.49543945 246.48274902 75.07681641 247.0787793 74.64550781 247.69287109 C72.33803012 250.95540456 69.91593736 254.13008505 67.5 257.3125 C66.10264215 259.16551802 64.70697245 261.01980963 63.3125 262.875 C62.55453125 263.88175781 61.7965625 264.88851563 61.015625 265.92578125 C59.16358393 268.40284903 57.34915333 270.90448007 55.546875 273.41796875 C55.05082764 274.10624756 54.55478027 274.79452637 54.04370117 275.50366211 C53.06702369 276.86122289 52.09569346 278.22264895 51.13012695 279.58813477 C49.96846451 281.19894243 48.7398633 282.76108131 47.5 284.3125 C46.84 284.3125 46.18 284.3125 45.5 284.3125 C45.438125 285.034375 45.37625 285.75625 45.3125 286.5 C44.24367633 290.19977425 42.24554043 291.62935822 39.5 294.3125 C38.12294338 296.41535569 36.85369834 298.55239967 35.61328125 300.73828125 C35.24589844 301.25777344 34.87851562 301.77726562 34.5 302.3125 C33.84 302.3125 33.18 302.3125 32.5 302.3125 C32.24605469 303.03050781 31.99210938 303.74851562 31.73046875 304.48828125 C30.4063518 307.52744491 28.8029285 309.85261278 26.8125 312.5 C23.426479 317.01265366 20.31349254 321.62276835 17.3359375 326.4140625 C15.5 328.3125 15.5 328.3125 12.5390625 329.2734375 C9.5 329.3125 9.5 329.3125 7.34012222 328.13408184 C5.5 326.3125 5.5 326.3125 5.00780869 323.99118519 C5.01333944 322.61264378 5.01333944 322.61264378 5.01898193 321.20625305 C5.01348328 320.1503598 5.00798462 319.09446655 5.00231934 318.00657654 C5.02389099 316.26949181 5.02389099 316.26949181 5.04589844 314.49731445 C5.04531433 313.27768005 5.04473022 312.05804565 5.04412842 310.80145264 C5.04643955 307.45630932 5.06651331 304.11215061 5.09442425 300.76718163 C5.11941137 297.27183441 5.12177776 293.77647439 5.12652588 290.28105164 C5.13896365 283.66178052 5.17179582 277.04277333 5.21192384 270.4236185 C5.25661685 262.8880585 5.27862232 255.35248598 5.29870558 247.81682646 C5.34052798 232.3152314 5.41089528 216.81389972 5.5 201.3125 C4.82523809 201.31526538 4.15047619 201.31803076 3.45526695 201.32087994 C-12.97017381 201.3871596 -29.39557216 201.4367902 -45.82111549 201.46793652 C-53.76441885 201.48339934 -61.70763288 201.50447765 -69.65087891 201.53881836 C-76.57495953 201.56873866 -83.49897547 201.58807925 -90.42311895 201.59476548 C-94.08874672 201.59867331 -97.75418943 201.6078449 -101.41975784 201.62969017 C-105.51380847 201.65389066 -109.60753822 201.65446831 -113.70166016 201.65307617 C-114.91438599 201.663862 -116.12711182 201.67464783 -117.37658691 201.6857605 C-127.71720051 201.64764807 -127.71720051 201.64764807 -132.5 198.3125 C-136.65033929 193.82564671 -137.79455882 190.46264647 -137.7265625 184.3203125 C-137.39934565 181.42049424 -136.32141172 179.55423751 -134.5 177.3125 C-133.84 177.3125 -133.18 177.3125 -132.5 177.3125 C-132.37625 176.508125 -132.37625 176.508125 -132.25 175.6875 C-130.49628637 170.1340735 -126.19322159 165.60297643 -122.63671875 161.08984375 C-119.44486505 156.94101746 -116.38043925 152.69984929 -113.32006836 148.45336914 C-112.86897705 147.83196045 -112.41788574 147.21055176 -111.953125 146.5703125 C-111.55254883 146.0148877 -111.15197266 145.45946289 -110.73925781 144.88720703 C-109.5 143.3125 -109.5 143.3125 -107.94042969 141.80419922 C-106.24824551 140.20847965 -106.24824551 140.20847965 -105 137.1875 C-103.5 134.3125 -103.5 134.3125 -100.5 133.3125 C-99.79289322 131.66258418 -99.13437344 129.9917238 -98.5 128.3125 C-96.5 125 -96.5 125 -94.5 122.3125 C-93.84 122.3125 -93.18 122.3125 -92.5 122.3125 C-92.24089844 121.76722656 -91.98179687 121.22195312 -91.71484375 120.66015625 C-90.29968083 117.92538803 -88.70877314 115.35217367 -87.0625 112.75 C-86.46566406 111.79996094 -85.86882812 110.84992188 -85.25390625 109.87109375 C-83.5 107.3125 -83.5 107.3125 -82.02734375 105.84765625 C-79.79096986 103.5998431 -78.24330141 100.95639992 -76.5 98.3125 C-74.89078315 96.17218847 -73.27135029 94.04850518 -71.625 91.9375 C-70.7366252 90.79063868 -69.84860301 89.64350414 -68.9609375 88.49609375 C-68.53651367 87.94808105 -68.11208984 87.40006836 -67.67480469 86.83544922 C-65.24704419 83.68824016 -62.8749606 80.49958793 -60.5 77.3125 C-59.50042093 75.97885108 -58.50041249 74.64552386 -57.5 73.3125 C-57.03142578 72.68690186 -56.56285156 72.06130371 -56.08007812 71.41674805 C-55.09486519 70.10470381 -54.1067548 68.79482415 -53.11425781 67.48828125 C-50.45562431 63.97778109 -47.86463375 60.43433475 -45.359375 56.8125 C-44.58980469 55.70068359 -44.58980469 55.70068359 -43.8046875 54.56640625 C-42.74858203 53.03531867 -41.69663878 51.50135344 -40.6484375 49.96484375 C-40.14054687 49.23394531 -39.63265625 48.50304687 -39.109375 47.75 C-38.65530273 47.08871094 -38.20123047 46.42742187 -37.73339844 45.74609375 C-37.32637695 45.27300781 -36.91935547 44.79992187 -36.5 44.3125 C-35.84 44.3125 -35.18 44.3125 -34.5 44.3125 C-34.2215625 43.075 -34.2215625 43.075 -33.9375 41.8125 C-32.33789045 37.91779849 -30.37824715 35.76897976 -27.55859375 32.71484375 C-25.14160919 29.89426405 -23.06980125 26.88945774 -21 23.8125 C-17.94240968 19.27733369 -14.69264705 15.12830881 -11 11.09375 C-8.71880612 8.38483227 -7.17972679 5.42310518 -5.5 2.3125 C-3.5 0.3125 -3.5 0.3125 0 0 Z " fill="#30AF76" transform="translate(224.5,65.6875)"/>
<path d="M0 0 C1.7325 0.1546875 1.7325 0.1546875 3.5 0.3125 C5.97654753 4.0273213 5.7735421 6.85535436 5.74050903 11.15214539 C5.74221788 11.95916848 5.74392673 12.76619156 5.74568737 13.5976699 C5.74899038 16.31088949 5.73796527 19.02386361 5.72705078 21.73706055 C5.72648684 23.67836501 5.72680289 25.6196699 5.72793579 27.56097412 C5.72851098 32.83959091 5.71672979 38.11811729 5.70278788 43.39671302 C5.69030819 48.91004465 5.6891122 54.42337822 5.68673706 59.9367218 C5.68051416 70.3808107 5.66409239 80.82485786 5.64403808 91.26892835 C5.62170427 103.15752043 5.61069199 115.04611448 5.60064721 126.9347223 C5.57972686 151.3940047 5.54453516 175.85325001 5.5 200.3125 C-11.90233797 200.35920564 -29.3046564 200.39448179 -46.70704269 200.41612434 C-54.78713831 200.42644012 -62.86719499 200.44050622 -70.94726562 200.46337891 C-77.98925402 200.48330355 -85.03121423 200.49621424 -92.07323003 200.50067699 C-95.80246422 200.50328594 -99.53161775 200.50942437 -103.26082611 200.52396011 C-107.42229298 200.54004938 -111.58361932 200.54048028 -115.74511719 200.53955078 C-117.60304398 200.55033661 -117.60304398 200.55033661 -119.49850464 200.56134033 C-120.63149994 200.558591 -121.76449524 200.55584167 -122.93182373 200.55300903 C-124.40853609 200.55577441 -124.40853609 200.55577441 -125.91508102 200.55859566 C-130.04282939 200.16561586 -131.93576207 198.94122227 -134.6875 195.875 C-137.71660254 191.59247573 -138.07802492 187.43499669 -137.5 182.3125 C-136.125 179.3125 -136.125 179.3125 -134.5 177.3125 C-133.84 177.3125 -133.18 177.3125 -132.5 177.3125 C-132.37625 176.508125 -132.37625 176.508125 -132.25 175.6875 C-130.49628637 170.1340735 -126.19322159 165.60297643 -122.63671875 161.08984375 C-119.44486505 156.94101746 -116.38043925 152.69984929 -113.32006836 148.45336914 C-112.86897705 147.83196045 -112.41788574 147.21055176 -111.953125 146.5703125 C-111.55254883 146.0148877 -111.15197266 145.45946289 -110.73925781 144.88720703 C-109.5 143.3125 -109.5 143.3125 -107.94042969 141.80419922 C-106.24824551 140.20847965 -106.24824551 140.20847965 -105 137.1875 C-103.5 134.3125 -103.5 134.3125 -100.5 133.3125 C-99.79289322 131.66258418 -99.13437344 129.9917238 -98.5 128.3125 C-96.5 125 -96.5 125 -94.5 122.3125 C-93.84 122.3125 -93.18 122.3125 -92.5 122.3125 C-92.24089844 121.76722656 -91.98179687 121.22195312 -91.71484375 120.66015625 C-90.29968083 117.92538803 -88.70877314 115.35217367 -87.0625 112.75 C-86.46566406 111.79996094 -85.86882812 110.84992188 -85.25390625 109.87109375 C-83.5 107.3125 -83.5 107.3125 -82.02734375 105.84765625 C-79.79096986 103.5998431 -78.24330141 100.95639992 -76.5 98.3125 C-74.89078315 96.17218847 -73.27135029 94.04850518 -71.625 91.9375 C-70.7366252 90.79063868 -69.84860301 89.64350414 -68.9609375 88.49609375 C-68.53651367 87.94808105 -68.11208984 87.40006836 -67.67480469 86.83544922 C-65.24704419 83.68824016 -62.8749606 80.49958793 -60.5 77.3125 C-59.50042093 75.97885108 -58.50041249 74.64552386 -57.5 73.3125 C-57.03142578 72.68690186 -56.56285156 72.06130371 -56.08007812 71.41674805 C-55.09486519 70.10470381 -54.1067548 68.79482415 -53.11425781 67.48828125 C-50.45562431 63.97778109 -47.86463375 60.43433475 -45.359375 56.8125 C-44.58980469 55.70068359 -44.58980469 55.70068359 -43.8046875 54.56640625 C-42.74858203 53.03531867 -41.69663878 51.50135344 -40.6484375 49.96484375 C-40.14054687 49.23394531 -39.63265625 48.50304687 -39.109375 47.75 C-38.65530273 47.08871094 -38.20123047 46.42742187 -37.73339844 45.74609375 C-37.32637695 45.27300781 -36.91935547 44.79992187 -36.5 44.3125 C-35.84 44.3125 -35.18 44.3125 -34.5 44.3125 C-34.2215625 43.075 -34.2215625 43.075 -33.9375 41.8125 C-32.33789045 37.91779849 -30.37824715 35.76897976 -27.55859375 32.71484375 C-25.14160919 29.89426405 -23.06980125 26.88945774 -21 23.8125 C-17.94240968 19.27733369 -14.69264705 15.12830881 -11 11.09375 C-8.71880612 8.38483227 -7.17972679 5.42310518 -5.5 2.3125 C-3.5 0.3125 -3.5 0.3125 0 0 Z " fill="#3ECE8E" transform="translate(224.5,65.6875)"/>
<path d="M0 0 C0.99 0.495 0.99 0.495 2 1 C1.98259766 1.99580078 1.98259766 1.99580078 1.96484375 3.01171875 C1.87638443 8.41304642 1.87638443 8.41304642 2.5625 13.75 C3 16 3 16 2.53443909 18.48416138 C1.82127211 23.17577181 1.86907246 27.76498857 1.88647461 32.50341797 C1.88625557 34.07018028 1.88625557 34.07018028 1.8860321 35.66859436 C1.88672695 39.10981344 1.89449934 42.55097792 1.90234375 45.9921875 C1.90420945 48.38257823 1.90563264 50.77296935 1.90663147 53.1633606 C1.91044468 59.44662537 1.92026478 65.72986694 1.93133545 72.01312256 C1.94157527 78.42801601 1.9461346 84.84291323 1.95117188 91.2578125 C1.96188811 103.83855155 1.97875723 116.41927454 2 129 C2.66 128.67 3.32 128.34 4 128 C4 128.66 4 129.32 4 130 C4.99 129.67 5.98 129.34 7 129 C9.6875 129.4375 9.6875 129.4375 12 130 C12 128.68 12 127.36 12 126 C12.639375 125.896875 13.27875 125.79375 13.9375 125.6875 C14.618125 125.460625 15.29875 125.23375 16 125 C16.33 124.01 16.66 123.02 17 122 C17.99 122 18.98 122 20 122 C20.268125 121.278125 20.53625 120.55625 20.8125 119.8125 C21.99901362 117.00233617 23.27485639 114.51583443 25 112 C25.66 112 26.32 112 27 112 C25.61791193 115.90773124 23.79890116 118.88043991 21.3125 122.1875 C17.926479 126.70015366 14.81349254 131.31026835 11.8359375 136.1015625 C10 138 10 138 7.0390625 138.9609375 C4 139 4 139 1.84012222 137.82158184 C0 136 0 136 -0.49219131 133.67868519 C-0.48666056 132.30014378 -0.48666056 132.30014378 -0.48101807 130.89375305 C-0.48652805 129.84005429 -0.49203804 128.78635553 -0.497715 127.70072651 C-0.47612635 125.96035004 -0.47612635 125.96035004 -0.45410156 124.18481445 C-0.4545837 122.94542964 -0.45506584 121.70604483 -0.45556259 120.4291029 C-0.45306743 117.07453688 -0.43327505 113.72095768 -0.40512085 110.36656952 C-0.38235058 107.21977803 -0.38126892 104.07301156 -0.37841797 100.92614746 C-0.35742389 91.72152271 -0.30157927 82.51700417 -0.25 73.3125 C-0.12625 42.4678125 -0.12625 42.4678125 0 11 C-43.56 11 -87.12 11 -132 11 C-132 10.67 -132 10.34 -132 10 C-88.44 10 -44.88 10 0 10 C0 6.7 0 3.4 0 0 Z " fill="#479773" transform="translate(230,256)"/>
<path d="M0 0 C0.91007813 0.00902344 1.82015625 0.01804688 2.7578125 0.02734375 C3.80582031 0.04474609 3.80582031 0.04474609 4.875 0.0625 C4.875 0.7225 4.875 1.3825 4.875 2.0625 C5.865 2.3925 6.855 2.7225 7.875 3.0625 C7.87361731 4.01971152 7.87361731 4.01971152 7.87220669 4.99626064 C7.85015139 20.50199329 7.83358841 36.0077205 7.82318783 51.51346493 C7.81802489 59.01183064 7.81098224 66.51018591 7.79956055 74.00854492 C7.78961363 80.54180504 7.78314656 87.07505759 7.78091151 93.60832506 C7.77960441 97.06971807 7.77651864 100.53108942 7.76926994 103.99247551 C7.76125593 107.85037527 7.76100887 111.70825357 7.76147461 115.56616211 C7.75787933 116.72205841 7.75428406 117.87795471 7.75057983 119.06887817 C7.7519545 120.11360794 7.75332916 121.15833771 7.75474548 122.23472595 C7.75336279 123.60497122 7.75336279 123.60497122 7.75195217 125.00289822 C7.64589742 127.05462355 7.64589742 127.05462355 8.875 128.0625 C10.53217994 128.17078721 12.19395425 128.20935501 13.85462952 128.22071838 C15.47220909 128.23540161 15.47220909 128.23540161 17.12246704 128.25038147 C18.3157663 128.25613693 19.50906555 128.2618924 20.73852539 128.26782227 C21.98712845 128.27772186 23.23573151 128.28762146 24.52217102 128.29782104 C27.95588157 128.32407245 31.38956808 128.34590809 34.82331777 128.36582303 C38.4081522 128.38764424 41.9929437 128.41505178 45.57774353 128.44187927 C52.3704693 128.49185859 59.16321883 128.5367779 65.95599121 128.57990164 C73.68745543 128.62922934 81.41887659 128.68416398 89.15029919 128.73958123 C105.05849303 128.85348166 120.96672642 128.96030305 136.875 129.0625 C136.875 129.3925 136.875 129.7225 136.875 130.0625 C93.645 130.0625 50.415 130.0625 5.875 130.0625 C5.4375 67.6875 5.4375 67.6875 5.30688477 47.96728516 C5.26364797 42.15140798 5.26364797 42.15140798 5.21910095 36.33554077 C5.19983607 33.73812462 5.18216049 31.14074222 5.16673279 28.54330444 C5.1433048 24.6168763 5.11210901 20.69052993 5.08032227 16.76416016 C5.07455201 15.60031107 5.06878176 14.43646198 5.06283665 13.23734474 C5.05306262 12.18502348 5.04328859 11.13270222 5.03321838 10.04849243 C5.02676583 9.12854303 5.02031328 8.20859364 5.0136652 7.26076698 C5.01571316 5.01891084 5.01571316 5.01891084 3.875 3.0625 C0.54299815 2.64478196 0.54299815 2.64478196 -3.125 3.0625 C-5.54102251 5.41141078 -6.9602023 7.77410403 -8.625 10.6875 C-10.1936479 13.17119251 -11.68702873 14.46520848 -14.125 16.0625 C-14.125 14.4125 -14.125 12.7625 -14.125 11.0625 C-13.135 11.0625 -12.145 11.0625 -11.125 11.0625 C-10.650625 9.969375 -10.17625 8.87625 -9.6875 7.75 C-9.42066406 7.13511719 -9.15382812 6.52023438 -8.87890625 5.88671875 C-8.22538058 4.30538979 -7.66608198 2.68574594 -7.125 1.0625 C-4.60024538 -0.19987731 -2.81299534 -0.03606404 0 0 Z " fill="#08321F" transform="translate(224.125,63.9375)"/>
<path d="M0 0 C6.60189418 -0.07612856 13.20367494 -0.12863283 19.8059082 -0.16479492 C22.05139394 -0.17987182 24.29685029 -0.20033653 26.54223633 -0.22631836 C29.77172099 -0.26274918 33.00081594 -0.27973755 36.23046875 -0.29296875 C37.23272995 -0.30845261 38.23499115 -0.32393646 39.2676239 -0.33988953 C47.99507606 -0.341992 47.99507606 -0.341992 52 3 C55.77279746 7.29679711 57.40840911 9.94331631 57.35546875 15.77734375 C56.70980009 19.81454668 54.31721596 22.72978819 52 26 C51.54625 26.78375 51.0925 27.5675 50.625 28.375 C48.7455455 31.41104188 46.59448212 34.06750702 44.3125 36.8125 C43.50425781 37.78832031 42.69601562 38.76414063 41.86328125 39.76953125 C41.24839844 40.50558594 40.63351562 41.24164063 40 42 C39.01 41.505 39.01 41.505 38 41 C38 40.34 38 39.68 38 39 C38.66 39 39.32 39 40 39 C39.95875 38.236875 39.9175 37.47375 39.875 36.6875 C40 34 40 34 42 31 C42.66 31 43.32 31 44 31 C44 30.34 44 29.68 44 29 C44.99 29 45.98 29 47 29 C47 27.68 47 26.36 47 25 C48.65002828 23.64613064 50.3174387 22.31321858 52 21 C52.96877057 18.96756452 52.96877057 18.96756452 53 17 C52.505 16.01 52.505 16.01 52 15 C52.185625 14.030625 52.37125 13.06125 52.5625 12.0625 C53.37098636 8.83411844 53.37098636 8.83411844 51 6 C42.27181723 0.91281355 32.71204221 1.59011311 23 2 C23 2.66 23 3.32 23 4 C22.34 4 21.68 4 21 4 C21 3.34 21 2.68 21 2 C14.07 1.67 7.14 1.34 0 1 C0 0.67 0 0.34 0 0 Z " fill="#4EB488" transform="translate(316,194)"/>
<path d="M0 0 C1.7325 0.1546875 1.7325 0.1546875 3.5 0.3125 C5.70204976 3.61557464 5.7482028 4.58340455 5.74050903 8.41874695 C5.74325836 9.4746402 5.74600769 10.53053345 5.74884033 11.61842346 C5.74164978 12.77647995 5.73445923 13.93453644 5.72705078 15.12768555 C5.72734283 16.34731995 5.72763489 17.56695435 5.72793579 18.82354736 C5.72678032 22.16840096 5.71674268 25.51300836 5.70278788 28.85781837 C5.69029424 32.35318767 5.6891111 35.84856018 5.68673706 39.34394836 C5.68051826 45.96312443 5.66410206 52.58223451 5.64403808 59.2013815 C5.62169149 66.73696951 5.61068878 74.27256065 5.60064721 81.80817354 C5.57973617 97.30965392 5.54455245 112.81106845 5.5 128.3125 C5.17 128.3125 4.84 128.3125 4.5 128.3125 C4.49668985 127.70381482 4.49337971 127.09512964 4.48996925 126.46799946 C4.40872867 111.65343248 4.31663272 96.83896283 4.21247292 82.0245409 C4.16236331 74.86037643 4.11592023 67.69622331 4.078125 60.53198242 C4.04517116 54.28721426 4.00532125 48.04253459 3.95720994 41.79786414 C3.93197855 38.49173 3.91121601 35.18566597 3.89665604 31.8794651 C3.87981201 28.18749899 3.85078058 24.49581717 3.81884766 20.80395508 C3.81668747 19.70919357 3.81452728 18.61443207 3.81230164 17.48649597 C3.80113815 16.47833832 3.78997467 15.47018066 3.7784729 14.43147278 C3.77294214 13.55853482 3.76741138 12.68559687 3.76171303 11.78620625 C3.46816367 9.01158361 2.64201678 6.84626903 1.5 4.3125 C-0.93717258 4.58284634 -0.93717258 4.58284634 -3.5 5.3125 C-4.49 6.7975 -4.49 6.7975 -5.5 8.3125 C-6.16 8.3125 -6.82 8.3125 -7.5 8.3125 C-7.6546875 9.2096875 -7.6546875 9.2096875 -7.8125 10.125 C-8.60494321 12.64641022 -9.61943508 13.50715768 -11.5 15.3125 C-11.78875 15.993125 -12.0775 16.67375 -12.375 17.375 C-13.91329016 20.02427751 -15.65111923 20.41285344 -18.5 21.3125 C-15.82443492 16.79474257 -13.21982134 13.03232134 -9.5 9.3125 C-8.0826297 7.02290182 -6.8083476 4.66752568 -5.5 2.3125 C-3.5 0.3125 -3.5 0.3125 0 0 Z " fill="#60C198" transform="translate(224.5,65.6875)"/>
<path d="M0 0 C0.33 0 0.66 0 1 0 C1.33 18.81 1.66 37.62 2 57 C2.99 56.505 2.99 56.505 4 56 C4 56.66 4 57.32 4 58 C5.485 57.505 5.485 57.505 7 57 C9.6875 57.4375 9.6875 57.4375 12 58 C12 56.68 12 55.36 12 54 C12.9590625 53.8453125 12.9590625 53.8453125 13.9375 53.6875 C14.618125 53.460625 15.29875 53.23375 16 53 C16.33 52.01 16.66 51.02 17 50 C17.99 50 18.98 50 20 50 C20.268125 49.278125 20.53625 48.55625 20.8125 47.8125 C21.99901362 45.00233617 23.27485639 42.51583443 25 40 C25.66 40 26.32 40 27 40 C25.61791193 43.90773124 23.79890116 46.88043991 21.3125 50.1875 C17.926479 54.70015366 14.81349254 59.31026835 11.8359375 64.1015625 C10 66 10 66 7.0390625 66.9609375 C4 67 4 67 1.83843994 65.89091492 C-0.76376605 63.21443361 -0.48311535 61.47642882 -0.45410156 57.78442383 C-0.45379944 56.5033223 -0.45349731 55.22222076 -0.45318604 53.90229797 C-0.43275939 52.50386943 -0.4118954 51.10544721 -0.390625 49.70703125 C-0.38316359 48.27643117 -0.37747018 46.84582086 -0.37347412 45.41520691 C-0.35820957 41.65186285 -0.31892176 37.88913742 -0.2746582 34.1260376 C-0.23372257 30.28528207 -0.21546682 26.44442647 -0.1953125 22.60351562 C-0.15242737 15.06872855 -0.08416728 7.53445099 0 0 Z " fill="#41A579" transform="translate(230,328)"/>
<path d="M0 0 C0 4.68703729 -2.4811106 8.13633767 -5 12 C-6.66666667 13.66666667 -8.33333333 15.33333333 -10 17 C-10.87238858 19.67790896 -10.87238858 19.67790896 -11 22 C-11.99 21.67 -12.98 21.34 -14 21 C-14.02126953 21.92232422 -14.02126953 21.92232422 -14.04296875 22.86328125 C-14.18824073 25.32505234 -14.41778742 27.60214672 -15 30 C-17.125 31.5625 -17.125 31.5625 -20 33 C-21.91331624 35.04909997 -23.68150371 37.18012098 -25.44921875 39.35546875 C-25.96097656 39.89816406 -26.47273438 40.44085938 -27 41 C-27.66 41 -28.32 41 -29 41 C-28.67 41.99 -28.34 42.98 -28 44 C-28.474375 44.433125 -28.94875 44.86625 -29.4375 45.3125 C-31.23686957 47.02309613 -31.23686957 47.02309613 -32 50 C-32.99 50 -33.98 50 -35 50 C-35 50.66 -35 51.32 -35 52 C-37.3125 54.625 -37.3125 54.625 -40 57 C-40.99 57 -41.98 57 -43 57 C-42.48050781 56.3709375 -41.96101562 55.741875 -41.42578125 55.09375 C-37.64650509 50.4552299 -34.10331757 45.87541197 -31.10546875 40.69140625 C-29.91552912 38.87075657 -28.54255345 37.52640106 -27 36 C-26.319375 34.948125 -25.63875 33.89625 -24.9375 32.8125 C-24.298125 31.884375 -23.65875 30.95625 -23 30 C-22.34 30 -21.68 30 -21 30 C-19.89579818 27.87046792 -18.9476625 25.84298751 -18.1875 23.5625 C-16.98503506 20.96770725 -15.62525016 19.57404614 -13.55859375 17.6484375 C-10.68568878 14.60992648 -8.37994623 11.12380538 -5.96484375 7.71875 C-4.05451518 5.07543254 -2.05764144 2.52966164 0 0 Z " fill="#133324" transform="translate(287,329)"/>
<path d="M0 0 C0.33 0.99 0.66 1.98 1 3 C-0.46826255 5.2173761 -1.94507911 7.20390522 -3.625 9.25 C-4.55572288 10.41453784 -5.48542045 11.57989591 -6.4140625 12.74609375 C-6.86297852 13.30538574 -7.31189453 13.86467773 -7.77441406 14.44091797 C-9.26891033 16.34208394 -10.64372976 18.31097392 -12 20.3125 C-12.99 21.6428125 -12.99 21.6428125 -14 23 C-14.66 23 -15.32 23 -16 23 C-16.061875 23.721875 -16.12375 24.44375 -16.1875 25.1875 C-17.25632367 28.88727425 -19.25445957 30.31685822 -22 33 C-23.41099677 35.10081741 -24.7081745 37.24089369 -25.984375 39.42578125 C-26.48710937 40.20501953 -26.48710937 40.20501953 -27 41 C-27.33 41 -27.66 41 -28 41 C-28.56465362 37.16035537 -28.05627386 36.07604576 -25.6875 32.875 C-23 30 -23 30 -21.3125 28.5 C-19.39180926 26.30492487 -18.89497873 23.74460145 -18 21 C-17.34 20.67 -16.68 20.34 -16 20 C-14.0008591 17.00128865 -12.6295217 14.03243215 -11.1953125 10.7421875 C-9.65996628 8.50439529 -8.57019726 8.57740018 -6 8 C-4.94991347 6.02583732 -3.95012124 4.02417134 -3 2 C-2.01 1.34 -1.02 0.68 0 0 Z " fill="#46A97D" transform="translate(286,327)"/>
<path d="M0 0 C-3.80410157 5.82755985 -7.74335681 11.49412457 -12 17 C-12.433125 17.59296875 -12.86625 18.1859375 -13.3125 18.796875 C-15.33376522 21.4497856 -16.5819227 22.86993151 -19.8125 23.875 C-20.534375 23.91625 -21.25625 23.9575 -22 24 C-21.34 23.67 -20.68 23.34 -20 23 C-20 22.34 -20 21.68 -20 21 C-19.51789063 20.55914062 -19.03578125 20.11828125 -18.5390625 19.6640625 C-16.57170748 17.5369223 -16.55168841 16.22991278 -16.375 13.375 C-16.08333333 9.08333333 -16.08333333 9.08333333 -15 8 C-13.00041636 7.95919217 -10.99954746 7.95745644 -9 8 C-9 7.34 -9 6.68 -9 6 C-9 4 -9 2 -9 0 C-8.01 0 -7.02 0 -6 0 C-5.319375 -0.185625 -4.63875 -0.37125 -3.9375 -0.5625 C-2 -1 -2 -1 0 0 Z " fill="#4AB989" transform="translate(353,240)"/>
<path d="M0 0 C0.66 0.33 1.32 0.66 2 1 C1.98839844 1.66386719 1.97679687 2.32773437 1.96484375 3.01171875 C1.87638443 8.41304642 1.87638443 8.41304642 2.5625 13.75 C3 16 3 16 2.53344727 18.42041016 C1.78205862 23.4624515 1.87762168 28.43310351 1.90234375 33.5234375 C1.9037587 34.62475006 1.90517365 35.72606262 1.90663147 36.86074829 C1.91221248 40.36552692 1.92476154 43.8702408 1.9375 47.375 C1.94251745 49.75650949 1.94707993 52.13801999 1.95117188 54.51953125 C1.96217569 60.34637612 1.97889493 66.17318343 2 72 C1.34 72 0.68 72 0 72 C-0.15463366 64.08902872 -0.30280152 56.1779728 -0.4429636 48.26673317 C-0.50826071 44.59230596 -0.57569334 40.91794505 -0.64819336 37.24365234 C-0.71822069 33.69053447 -0.78239425 30.13735262 -0.84269524 26.58405685 C-0.87810028 24.58457891 -0.91939693 22.58520805 -0.96083069 20.58584595 C-1.07330691 13.64275719 -0.91630421 6.88792428 0 0 Z " fill="#38936B" transform="translate(230,256)"/>
<path d="M0 0 C0.33 0 0.66 0 1 0 C3.66360163 7.32914589 3.66360163 7.32914589 2.125 11.203125 C0.83456934 13.21558234 -0.55613608 15.09549316 -2 17 C-2.45632813 17.78246094 -2.91265625 18.56492188 -3.3828125 19.37109375 C-5.2546288 22.41392556 -7.40443556 25.06620509 -9.6875 27.8125 C-10.49574219 28.78832031 -11.30398438 29.76414063 -12.13671875 30.76953125 C-12.75160156 31.50558594 -13.36648438 32.24164063 -14 33 C-14.66 32.67 -15.32 32.34 -16 32 C-16 31.34 -16 30.68 -16 30 C-15.34 30 -14.68 30 -14 30 C-14.04125 29.236875 -14.0825 28.47375 -14.125 27.6875 C-14 25 -14 25 -12 22 C-11.34 22 -10.68 22 -10 22 C-10 21.34 -10 20.68 -10 20 C-9.01 20 -8.02 20 -7 20 C-7 18.68 -7 17.36 -7 16 C-5.34997172 14.64613064 -3.6825613 13.31321858 -2 12 C-1.03122943 9.96756452 -1.03122943 9.96756452 -1 8 C-1.33 7.34 -1.66 6.68 -2 6 C-1.39421747 3.98072489 -0.73080266 1.97746603 0 0 Z " fill="#4BBF8B" transform="translate(370,203)"/>
<path d="M0 0 C0.66 0.33 1.32 0.66 2 1 C2.2734375 3.23046875 2.2734375 3.23046875 2 6 C0.1015625 8.23828125 0.1015625 8.23828125 -2.375 10.3125 C-3.18710938 11.00988281 -3.99921875 11.70726562 -4.8359375 12.42578125 C-7 14 -7 14 -9 14 C-9.0825 15.093125 -9.165 16.18625 -9.25 17.3125 C-10 21 -10 21 -12.03125 22.41796875 C-14.24438585 23.83592024 -14.24438585 23.83592024 -14.390625 26.375 C-14.34421875 27.24125 -14.2978125 28.1075 -14.25 29 C-14.21390625 29.86625 -14.1778125 30.7325 -14.140625 31.625 C-14.09421875 32.40875 -14.0478125 33.1925 -14 34 C-14 34.99 -14 35.98 -14 37 C-16.79227561 33.27696585 -17.46842154 30.46632857 -17.296875 25.9375 C-16.86280931 23.10465022 -15.79206838 21.20562263 -14 19 C-13.34 19 -12.68 19 -12 19 C-11.9175 18.46375 -11.835 17.9275 -11.75 17.375 C-9.68537724 10.83702792 -4.18917236 5.29530214 0 0 Z " fill="#4FBC8D" transform="translate(104,224)"/>
<path d="M0 0 C1.25 1.5625 1.25 1.5625 2 4 C-0.29580114 9.05076252 -3.08524309 12.08524309 -7 16 C-9.12766109 18.89017546 -11.19051228 21.81686003 -13.23046875 24.76953125 C-13.81441406 25.50558594 -14.39835937 26.24164063 -15 27 C-15.66 27 -16.32 27 -17 27 C-17.66 24.69 -18.32 22.38 -19 20 C-15.535 19.505 -15.535 19.505 -12 19 C-11.855625 18.21625 -11.71125 17.4325 -11.5625 16.625 C-11 14 -11 14 -10 12 C-9.01 12.33 -8.02 12.66 -7 13 C-6.731875 12.46375 -6.46375 11.9275 -6.1875 11.375 C-5.795625 10.59125 -5.40375 9.8075 -5 9 C-4.505 7.989375 -4.01 6.97875 -3.5 5.9375 C-2 3 -2 3 0 0 Z " fill="#46B784" transform="translate(315,285)"/>
<path d="M0 0 C0.66 0 1.32 0 2 0 C1.53153624 4.87628186 0.31463695 7.37630785 -2.875 11.0625 C-5.60239902 14.24782025 -7.92969016 17.34766094 -10 21 C-10.99 20.67 -11.98 20.34 -13 20 C-12.71125 19.505 -12.4225 19.01 -12.125 18.5 C-10.58711584 15.08247965 -9.85152195 11.6493798 -9 8 C-8.39414062 7.90847656 -7.78828125 7.81695312 -7.1640625 7.72265625 C-4.46325816 6.8207631 -3.86564474 5.81772305 -2.375 3.4375 C-1.1484375 1.49609375 -1.1484375 1.49609375 0 0 Z " fill="#49B685" transform="translate(330,265)"/>
<path d="M0 0 C3.4375 0.1875 3.4375 0.1875 4.4375 1.1875 C4.57865161 3.85808851 4.47997107 6.51182238 4.4375 9.1875 C4.210625 8.548125 3.98375 7.90875 3.75 7.25 C2.58499104 4.91556339 2.58499104 4.91556339 -0.1875 4.4375 C-0.97125 4.355 -1.755 4.2725 -2.5625 4.1875 C-3.01625 4.8475 -3.47 5.5075 -3.9375 6.1875 C-4.47375 6.8475 -5.01 7.5075 -5.5625 8.1875 C-6.2225 8.1875 -6.8825 8.1875 -7.5625 8.1875 C-7.7171875 9.0846875 -7.7171875 9.0846875 -7.875 10 C-8.66744321 12.52141022 -9.68193508 13.38215768 -11.5625 15.1875 C-11.85125 15.868125 -12.14 16.54875 -12.4375 17.25 C-13.97579016 19.89927751 -15.71361923 20.28785344 -18.5625 21.1875 C-15.88693492 16.66974257 -13.28232134 12.90732134 -9.5625 9.1875 C-8.1451297 6.89790182 -6.8708476 4.54252568 -5.5625 2.1875 C-3.5625 0.1875 -3.5625 0.1875 0 0 Z " fill="#53B88C" transform="translate(224.5625,65.8125)"/>
<path d="M0 0 C0.91007813 0.00902344 1.82015625 0.01804688 2.7578125 0.02734375 C3.80582031 0.04474609 3.80582031 0.04474609 4.875 0.0625 C4.875 0.7225 4.875 1.3825 4.875 2.0625 C5.865 2.3925 6.855 2.7225 7.875 3.0625 C7.545 4.7125 7.215 6.3625 6.875 8.0625 C4.875 5.0625 4.875 5.0625 3.875 3.0625 C0.54299815 2.64478196 0.54299815 2.64478196 -3.125 3.0625 C-5.54102251 5.41141078 -6.9602023 7.77410403 -8.625 10.6875 C-10.1936479 13.17119251 -11.68702873 14.46520848 -14.125 16.0625 C-14.125 14.4125 -14.125 12.7625 -14.125 11.0625 C-13.135 11.0625 -12.145 11.0625 -11.125 11.0625 C-10.650625 9.969375 -10.17625 8.87625 -9.6875 7.75 C-9.42066406 7.13511719 -9.15382812 6.52023438 -8.87890625 5.88671875 C-8.22538058 4.30538979 -7.66608198 2.68574594 -7.125 1.0625 C-4.60024538 -0.19987731 -2.81299534 -0.03606404 0 0 Z " fill="#0F2F1F" transform="translate(224.125,63.9375)"/>
<path d="M0 0 C13.86 0 27.72 0 42 0 C42 0.33 42 0.66 42 1 C33.42074698 1.98305095 24.94136443 2.12065202 16.3125 2.0625 C15.02666016 2.05798828 13.74082031 2.05347656 12.41601562 2.04882812 C9.27729347 2.03716001 6.13867272 2.02079015 3 2 C2.95101562 2.62648437 2.90203125 3.25296875 2.8515625 3.8984375 C2.77679688 4.71570313 2.70203125 5.53296875 2.625 6.375 C2.55539063 7.18710938 2.48578125 7.99921875 2.4140625 8.8359375 C2 11 2 11 0 13 C0 8.71 0 4.42 0 0 Z " fill="#2B815C" transform="translate(230,194)"/>
<path d="M0 0 C1.32 0 2.64 0 4 0 C4.2475 0.639375 4.495 1.27875 4.75 1.9375 C5.80283433 4.19303909 5.80283433 4.19303909 8.078125 4.62890625 C8.71234375 4.75136719 9.3465625 4.87382812 10 5 C12.5229284 15.33950121 12.5229284 15.33950121 12 19 C10.5 21.3125 10.5 21.3125 9 23 C8.01 22.67 7.02 22.34 6 22 C6.33 21.505 6.66 21.01 7 20.5 C8.68655324 16.28361691 8.25740324 12.00774529 7.6875 7.5625 C7.460625 7.046875 7.23375 6.53125 7 6 C6.01 5.67 5.02 5.34 4 5 C2.61423077 3.37667033 1.27358732 1.71275535 0 0 Z " fill="#0F3323" transform="translate(364,194)"/>
<path d="M0 0 C14.52 0 29.04 0 44 0 C44 0.33 44 0.66 44 1 C43.08186523 1.02505615 42.16373047 1.0501123 41.21777344 1.07592773 C37.80342975 1.1712027 34.38924797 1.27042778 30.97509766 1.37231445 C29.4989061 1.41556035 28.02266785 1.45724256 26.54638672 1.49731445 C24.42140652 1.55526846 22.29665907 1.61888946 20.171875 1.68359375 C18.8940918 1.72025146 17.61630859 1.75690918 16.29980469 1.79467773 C13.66305096 1.95874328 11.51750086 2.29972964 9 3 C6.640625 2.87890625 6.640625 2.87890625 4.25 2.5625 C3.05117188 2.40974609 3.05117188 2.40974609 1.828125 2.25390625 C1.22484375 2.17011719 0.6215625 2.08632812 0 2 C0 1.34 0 0.68 0 0 Z " fill="#3C9570" transform="translate(272,194)"/>
<path d="M0 0 C0.66 0.33 1.32 0.66 2 1 C2 1.66 2 2.32 2 3 C1.08734375 3.35964844 1.08734375 3.35964844 0.15625 3.7265625 C-2.48490039 5.28637233 -3.15799505 6.6456521 -4.5 9.375 C-6.30883435 12.85868096 -8.10607026 15.31277953 -11 18 C-11.33 18.99 -11.66 19.98 -12 21 C-12.66 21 -13.32 21 -14 21 C-14 21.66 -14 22.32 -14 23 C-14.66 23 -15.32 23 -16 23 C-16 23.99 -16 24.98 -16 26 C-16.99 25.67 -17.98 25.34 -19 25 C-18.443125 24.26136719 -17.88625 23.52273437 -17.3125 22.76171875 C-12.68674886 16.61228269 -8.11472371 10.43264517 -3.62890625 4.1796875 C-2 2 -2 2 0 0 Z " fill="#4EB386" transform="translate(171,134)"/>
<path d="M0 0 C0.66 0 1.32 0 2 0 C0.60631954 3.9463911 -1.25017442 6.96486535 -3.75 10.3125 C-4.80960938 11.73949219 -4.80960938 11.73949219 -5.890625 13.1953125 C-6.58671875 14.12085938 -7.2828125 15.04640625 -8 16 C-8.61359375 16.82242187 -9.2271875 17.64484375 -9.859375 18.4921875 C-11.23440792 20.3321125 -12.61427926 22.16811918 -14 24 C-15.27351308 21.45297384 -14.80191925 20.5717055 -14.0625 17.875 C-13.86785156 17.15054687 -13.67320312 16.42609375 -13.47265625 15.6796875 C-13.31667969 15.12539063 -13.16070312 14.57109375 -13 14 C-12.360625 13.896875 -11.72125 13.79375 -11.0625 13.6875 C-10.0415625 13.3471875 -10.0415625 13.3471875 -9 13 C-8.67 12.01 -8.34 11.02 -8 10 C-7.01 10 -6.02 10 -5 10 C-4.731875 9.278125 -4.46375 8.55625 -4.1875 7.8125 C-3.00098638 5.00233617 -1.72514361 2.51583443 0 0 Z " fill="#42A177" transform="translate(255,368)"/>
<path d="M0 0 C0.33 0 0.66 0 1 0 C1 2.31 1 4.62 1 7 C4.82989106 8.80230168 7.78121808 9.19622241 12 9 C12.309375 8.38125 12.61875 7.7625 12.9375 7.125 C13.625 5.75 14.3125 4.375 15 3 C15.66 3 16.32 3 17 3 C16.10473632 6.93916018 15.27749063 8.74773579 12.25 11.5 C9 13 9 13 5.8125 12.4375 C1.26923077 10.11538462 1.26923077 10.11538462 0 8 C-0.24222254 5.28172479 -0.13476191 2.74015885 0 0 Z " fill="#162B1F" transform="translate(228,385)"/>
<path d="M0 0 C0.93423645 3.01031744 1.04449911 3.86650268 0 7 C-0.9793879 8.02019573 -1.97895449 9.02149805 -3 10 C-4.58706088 13.17412177 -4.28477127 16.53638667 -4 20 C-3.11785113 22.88214887 -3.11785113 22.88214887 -2 25 C-5 24 -5 24 -7 21 C-7.01171875 18.40625 -7.01171875 18.40625 -6.6875 15.5 C-6.58824219 14.5409375 -6.48898438 13.581875 -6.38671875 12.59375 C-6 10 -6 10 -5 7 C-4.34 7 -3.68 7 -3 7 C-2.814375 5.824375 -2.814375 5.824375 -2.625 4.625 C-2 2 -2 2 0 0 Z " fill="#0B321F" transform="translate(92,236)"/>
<path d="M0 0 C0.33 0 0.66 0 1 0 C0.91183081 5.20198202 0.91183081 5.20198202 0 8 C-1.69606313 9.60438404 -3.36347707 10.67502429 -5.40625 11.796875 C-7.44540253 13.33623524 -7.62603489 14.5276751 -8 17 C-9.32 17.33 -10.64 17.66 -12 18 C-9.44748487 13.28766437 -6.64217643 9.03908864 -3.3671875 4.796875 C-2.18425753 3.24216704 -1.08364629 1.62546943 0 0 Z " fill="#113624" transform="translate(342,254)"/>
<path d="M0 0 C0.99 0.33 1.98 0.66 3 1 C1.625 3.5 1.625 3.5 0 6 C-0.66 6 -1.32 6 -2 6 C-2.18175781 6.62648437 -2.36351562 7.25296875 -2.55078125 7.8984375 C-2.80214844 8.71570313 -3.05351562 9.53296875 -3.3125 10.375 C-3.55613281 11.18710938 -3.79976563 11.99921875 -4.05078125 12.8359375 C-5 15 -5 15 -8 17 C-8.33 16.01 -8.66 15.02 -9 14 C-8.34 14 -7.68 14 -7 14 C-7.04125 13.236875 -7.0825 12.47375 -7.125 11.6875 C-7 9 -7 9 -5 6 C-4.34 6 -3.68 6 -3 6 C-3 5.34 -3 4.68 -3 4 C-2.01 4 -1.02 4 0 4 C0 2.68 0 1.36 0 0 Z " fill="#46C98E" transform="translate(363,219)"/>
<path d="M0 0 C0.33 1.32 0.66 2.64 1 4 C0.01 4.495 0.01 4.495 -1 5 C-1.268125 5.721875 -1.53625 6.44375 -1.8125 7.1875 C-3.33224375 10.7868931 -5.41732837 13.07750315 -8 16 C-8.33 15.34 -8.66 14.68 -9 14 C-8.06553465 11.96855359 -7.06775224 9.96466413 -6 8 C-5.34 8 -4.68 8 -4 8 C-3.71125 7.05125 -3.4225 6.1025 -3.125 5.125 C-2 2 -2 2 0 0 Z " fill="#103322" transform="translate(317,288)"/>
<path d="M0 0 C1 3 1 3 -0.5 6.0625 C-0.995 7.031875 -1.49 8.00125 -2 9 C-1.67 9.66 -1.34 10.32 -1 11 C-3.5654594 13.5654594 -5.47686668 13.54046087 -9 14 C-8.443125 13.175 -7.88625 12.35 -7.3125 11.5 C-4.78948588 7.72000035 -2.39257322 3.8634174 0 0 Z " fill="#163828" transform="translate(352,240)"/>
<path d="M0 0 C0.66 1.32 1.32 2.64 2 4 C1.01 4.495 1.01 4.495 0 5 C0 5.68707031 0 6.37414062 0 7.08203125 C0 10.72135417 0 14.36067708 0 18 C-2.79385411 14.27486119 -3.45908751 11.46656688 -3.3046875 6.9375 C-2.86858343 4.16432542 -1.66616677 2.22155569 0 0 Z " fill="#52AF85" transform="translate(90,243)"/>
<path d="M0 0 C0 3.69418201 -1.28179295 5.77836178 -3 9 C-3.99 9 -4.98 9 -6 9 C-6 10.65 -6 12.3 -6 14 C-7.65 14.33 -9.3 14.66 -11 15 C-10.05065487 13.32819726 -9.09026687 11.66266064 -8.125 10 C-7.59132813 9.071875 -7.05765625 8.14375 -6.5078125 7.1875 C-6.01023438 6.465625 -5.51265625 5.74375 -5 5 C-4.34 5 -3.68 5 -3 5 C-2.690625 4.360625 -2.38125 3.72125 -2.0625 3.0625 C-1 1 -1 1 0 0 Z " fill="#4EB588" transform="translate(135,183)"/>
<path d="M0 0 C0.66 0 1.32 0 2 0 C1 2 0 4 -1 6 C-1.66 6 -2.32 6 -3 6 C-3.2475 6.70125 -3.495 7.4025 -3.75 8.125 C-5.16088026 11.37002459 -6.97895398 14.10316737 -9 17 C-9.6875 15.1875 -9.6875 15.1875 -10 13 C-8.75 11.5625 -8.75 11.5625 -7 10 C-5.9935725 8.33720673 -4.99414593 6.67016516 -4 5 C-1.9375 2.1875 -1.9375 2.1875 0 0 Z " fill="#0D3B26" transform="translate(133,182)"/>
<path d="M0 0 C0.75 1.6875 0.75 1.6875 1 4 C-0.8125 6.5 -0.8125 6.5 -3 9 C-3.309375 9.721875 -3.61875 10.44375 -3.9375 11.1875 C-5.43535465 13.74266381 -7.25102766 14.13190347 -10 15 C-7.33574205 10.50133494 -4.78340993 6.64828814 -1 3 C-0.67 2.01 -0.34 1.02 0 0 Z " fill="#49AF80" transform="translate(216,72)"/>
<path d="M0 0 C-3.32307692 4.8 -3.32307692 4.8 -6.75 5.8125 C-7.4925 5.874375 -8.235 5.93625 -9 6 C-9 4.02 -9 2.04 -9 0 C-8.01 0 -7.02 0 -6 0 C-5.319375 -0.185625 -4.63875 -0.37125 -3.9375 -0.5625 C-2 -1 -2 -1 0 0 Z " fill="#44C890" transform="translate(353,240)"/>
<path d="M0 0 C0.66 0.33 1.32 0.66 2 1 C-0.64 4.63 -3.28 8.26 -6 12 C-7 8 -7 8 -6 5 C-5.34 5 -4.68 5 -4 5 C-3.34 4.01 -2.68 3.02 -2 2 C-1.34 1.34 -0.68 0.68 0 0 Z " fill="#0E3724" transform="translate(158,148)"/>
<path d="M0 0 C1 2 1 2 0.3125 4.3125 C-1.73512376 8.50525342 -4.63325475 11.80159201 -8 15 C-8.66 14.67 -9.32 14.34 -10 14 C-9.52949219 13.49210938 -9.05898438 12.98421875 -8.57421875 12.4609375 C-4.98265595 8.49014136 -2.0977575 4.93590001 0 0 Z " fill="#0F3822" transform="translate(369,217)"/>
<path d="M0 0 C1 2 1 2 0.43359375 4.09375 C-2.28253498 10.65506489 -2.28253498 10.65506489 -6.25 12.5625 C-7.1575 12.706875 -8.065 12.85125 -9 13 C-7.625 10.5 -7.625 10.5 -6 8 C-5.34 8 -4.68 8 -4 8 C-3.71125 7.05125 -3.4225 6.1025 -3.125 5.125 C-2 2 -2 2 0 0 Z " fill="#4AAF83" transform="translate(194,102)"/>
<path d="M0 0 C-0.54087318 3.78611227 -2.11722332 5.55400767 -5 8 C-5.66 8 -6.32 8 -7 8 C-6.40138258 5.64828869 -5.73075648 3.3140622 -5 1 C-3 0 -3 0 0 0 Z " fill="#45B485" transform="translate(294,318)"/>
<path d="M0 0 C1 3 1 3 0.14453125 4.71875 C-2.30304249 7.99175183 -4.4874484 10.78839344 -8 13 C-8.66 12.67 -9.32 12.34 -10 12 C-9.61328125 11.55269531 -9.2265625 11.10539062 -8.828125 10.64453125 C-5.81609925 7.1478974 -2.85678969 3.62592537 0 0 Z " fill="#0E3623" transform="translate(299,313)"/>
<path d="M0 0 C0.99 0.33 1.98 0.66 3 1 C1.55186408 4.37898381 -0.32940727 6.49631932 -3 9 C-3.66 9.66 -4.32 10.32 -5 11 C-4.50769231 4.6 -4.50769231 4.6 -1.9375 1.5625 C-0.9784375 0.7890625 -0.9784375 0.7890625 0 0 Z " fill="#0E3422" transform="translate(189,105)"/>
<path d="M0 0 C0.33 0 0.66 0 1 0 C1.25 6.625 1.25 6.625 -1 10 C-3.125 10.6875 -3.125 10.6875 -5 11 C-4.14254495 8.42763485 -3.1606471 6.21933783 -1.9375 3.8125 C-1.57527344 3.09707031 -1.21304687 2.38164062 -0.83984375 1.64453125 C-0.42412109 0.83048828 -0.42412109 0.83048828 0 0 Z " fill="#40B684" transform="translate(276,336)"/>
<path d="M0 0 C0.33 1.32 0.66 2.64 1 4 C0.01 4 -0.98 4 -2 4 C-2.12375 4.78375 -2.2475 5.5675 -2.375 6.375 C-3 9 -3 9 -5 11 C-6 8 -6 8 -5.29296875 6.2109375 C-4.74576172 5.30214844 -4.74576172 5.30214844 -4.1875 4.375 C-3.83042969 3.76398438 -3.47335938 3.15296875 -3.10546875 2.5234375 C-2 1 -2 1 0 0 Z " fill="#4DBB8B" transform="translate(143,172)"/>
<path d="M0 0 C0.99 0.66 1.98 1.32 3 2 C0.69 4.97 -1.62 7.94 -4 11 C-4.33 10.01 -4.66 9.02 -5 8 C-4.01 7.67 -3.02 7.34 -2 7 C-2.061875 5.824375 -2.061875 5.824375 -2.125 4.625 C-2 2 -2 2 0 0 Z " fill="#113825" transform="translate(199,91)"/>
<path d="M0 0 C0.99 0 1.98 0 3 0 C2.67 1.65 2.34 3.3 2 5 C1.34 5 0.68 5 0 5 C-0.66 6.32 -1.32 7.64 -2 9 C-2.25 3.375 -2.25 3.375 0 0 Z " fill="#3FC78B" transform="translate(322,272)"/>
<path d="M0 0 C0.66 0 1.32 0 2 0 C0.55007731 4.10811428 -1.45407573 7.46855666 -4 11 C-4.33 11 -4.66 11 -5 11 C-5 9.02 -5 7.04 -5 5 C-4.01 4.67 -3.02 4.34 -2 4 C-0.79117904 1.99983534 -0.79117904 1.99983534 0 0 Z " fill="#0F3524" transform="translate(140,171)"/>
<path d="M0 0 C1.2065625 0.0309375 1.2065625 0.0309375 2.4375 0.0625 C2.4375 0.7225 2.4375 1.3825 2.4375 2.0625 C1.1175 2.0625 -0.2025 2.0625 -1.5625 2.0625 C-1.335625 2.990625 -1.10875 3.91875 -0.875 4.875 C-0.771875 5.926875 -0.66875 6.97875 -0.5625 8.0625 C-2.04296875 9.76171875 -2.04296875 9.76171875 -3.5625 11.0625 C-3.58938151 9.41675434 -3.60884123 7.77088587 -3.625 6.125 C-3.63660156 5.20847656 -3.64820313 4.29195312 -3.66015625 3.34765625 C-3.52086326 0.08820018 -3.27895972 0.07997463 0 0 Z " fill="#3FCB8D" transform="translate(340.5625,247.9375)"/>
<path d="M0 0 C0 3.81094059 -1.00717021 5.77024137 -3 9 C-5.61328125 10.18359375 -5.61328125 10.18359375 -8 11 C-7.04454634 9.53977837 -6.08553322 8.08188532 -5.125 6.625 C-4.59132812 5.81289062 -4.05765625 5.00078125 -3.5078125 4.1640625 C-2 2 -2 2 0 0 Z " fill="#4EBB8B" transform="translate(203,91)"/>
<path d="M0 0 C0 3 0 3 -1.9375 5 C-2.618125 5.66 -3.29875 6.32 -4 7 C-4.33 7.99 -4.66 8.98 -5 10 C-7.0625 10.6875 -7.0625 10.6875 -9 11 C-6.51545911 6.21495828 -4.52048157 3.13922331 0 0 Z " fill="#0B2E1B" transform="translate(339,261)"/>
<path d="M0 0 C0.66 0 1.32 0 2 0 C1.40716379 3.39192363 0.23256811 5.2107757 -2.0625 7.75 C-2.61035156 8.36359375 -3.15820312 8.9771875 -3.72265625 9.609375 C-4.14417969 10.06828125 -4.56570313 10.5271875 -5 11 C-5.33 10.01 -5.66 9.02 -6 8 C-5.38125 7.4225 -4.7625 6.845 -4.125 6.25 C-2.18652947 4.19750179 -1.09985751 2.56633418 0 0 Z " fill="#52B184" transform="translate(365,220)"/>
<path d="M0 0 C0.66 0.33 1.32 0.66 2 1 C2 2.65 2 4.3 2 6 C0.02 6.99 0.02 6.99 -2 8 C-2.125 5.125 -2.125 5.125 -2 2 C-1.34 1.34 -0.68 0.68 0 0 Z " fill="#4DC28E" transform="translate(104,224)"/>
<path d="M0 0 C1.32 0.33 2.64 0.66 4 1 C1.03 4.96 1.03 4.96 -2 9 C-3 6 -3 6 -1.5625 2.8125 C-1.046875 1.884375 -0.53125 0.95625 0 0 Z " fill="#163E2B" transform="translate(163,139)"/>
<path d="M0 0 C0.66 0 1.32 0 2 0 C1.375 2.875 1.375 2.875 0 6 C-3.125 7.375 -3.125 7.375 -6 8 C-6 7.34 -6 6.68 -6 6 C-5.01 6 -4.02 6 -3 6 C-2.690625 5.38125 -2.38125 4.7625 -2.0625 4.125 C-1.375 2.75 -0.6875 1.375 0 0 Z " fill="#113625" transform="translate(243,388)"/>
<path d="M0 0 C0.33 1.32 0.66 2.64 1 4 C0.01 4.33 -0.98 4.66 -2 5 C-3.69882448 7.49759982 -3.69882448 7.49759982 -5 10 C-5 6.73204297 -4.42149484 4.9178052 -3 2 C-2.01 1.34 -1.02 0.68 0 0 Z " fill="#12261B" transform="translate(292,324)"/>
<path d="M0 0 C0.66 0.33 1.32 0.66 2 1 C0.68775452 4.93673644 -0.91910327 7.22719294 -4 10 C-3.52449439 8.51965236 -3.04448784 7.04074979 -2.5625 5.5625 C-2.29566406 4.73878906 -2.02882812 3.91507812 -1.75390625 3.06640625 C-1 1 -1 1 0 0 Z " fill="#12402B" transform="translate(206,82)"/>
<path d="M0 0 C0.66 0.66 1.32 1.32 2 2 C1.67 2.99 1.34 3.98 1 5 C-0.9375 5.75 -0.9375 5.75 -3 6 C-3.66 5.67 -4.32 5.34 -5 5 C-3.625 3.5 -3.625 3.5 -2 2 C-1.34 2 -0.68 2 0 2 C0 1.34 0 0.68 0 0 Z " fill="#12281D" transform="translate(323,282)"/>
<path d="M0 0 C0.33 0 0.66 0 1 0 C1 1.98 1 3.96 1 6 C-0.32 6.33 -1.64 6.66 -3 7 C-1.125 1.125 -1.125 1.125 0 0 Z " fill="#45B283" transform="translate(147,165)"/>
<path d="M0 0 C0.66 1.32 1.32 2.64 2 4 C-0.97 6.475 -0.97 6.475 -4 9 C-4 7.35 -4 5.7 -4 4 C-3.01 4 -2.02 4 -1 4 C-0.67 2.68 -0.34 1.36 0 0 Z " fill="#163D2B" transform="translate(214,71)"/>
<path d="M0 0 C1.67542976 0.28604898 3.34385343 0.61781233 5 1 C3.68 2.32 2.36 3.64 1 5 C0.34 3.68 -0.32 2.36 -1 1 C-0.67 0.67 -0.34 0.34 0 0 Z " fill="#3EC287" transform="translate(323,256)"/>
<path d="M0 0 C0.33 0 0.66 0 1 0 C1 1.98 1 3.96 1 6 C-0.98 6.66 -2.96 7.32 -5 8 C-4.19185349 6.66402348 -3.37836819 5.331275 -2.5625 4 C-2.11003906 3.2575 -1.65757813 2.515 -1.19140625 1.75 C-0.79824219 1.1725 -0.40507813 0.595 0 0 Z " fill="#48A27B" transform="translate(101,227)"/>
<path d="M0 0 C0.33 0.66 0.66 1.32 1 2 C-0.65 3.98 -2.3 5.96 -4 8 C-4.33 7.01 -4.66 6.02 -5 5 C-4.34 5 -3.68 5 -3 5 C-3 4.01 -3 3.02 -3 2 C-2.01 1.34 -1.02 0.68 0 0 Z " fill="#0A2E1E" transform="translate(100,227)"/>
</svg>
