<?xml version="1.0" standalone="no"?>
<!DOCTYPE svg PUBLIC "-//W3C//DTD SVG 20010904//EN"
 "http://www.w3.org/TR/2001/REC-SVG-20010904/DTD/svg10.dtd">
<svg version="1.0" xmlns="http://www.w3.org/2000/svg"
 width="300.000000pt" height="300.000000pt" viewBox="0 0 300.000000 300.000000"
 preserveAspectRatio="xMidYMid meet">
<metadata>
Created by potrace 1.10, written by Peter Selinger 2001-2011
</metadata>
<g transform="translate(0.000000,300.000000) scale(0.100000,-0.100000)"
fill="#000000" stroke="none">
<path d="M973 2286 c-26 -12 -43 -27 -43 -38 0 -14 4 -13 26 7 15 14 29 23 33
21 3 -2 5 -379 5 -838 -1 -607 -4 -840 -13 -856 -10 -19 -8 -22 24 -28 19 -3
218 6 442 21 224 15 443 25 486 22 42 -3 77 -1 77 4 0 5 -6 9 -12 10 -53 3
-98 17 -98 29 0 4 25 22 56 40 78 44 136 100 172 167 44 84 54 132 53 262 0
133 -19 206 -73 273 -32 41 -126 108 -150 108 -30 0 -15 39 29 77 33 27 57 59
82 113 32 69 35 82 33 160 -3 139 -39 232 -118 306 -112 105 -257 134 -724
149 -102 3 -198 7 -215 9 -16 2 -49 -6 -72 -18z m55 -102 c3 -60 5 -437 4
-839 -1 -401 -2 -742 -2 -757 0 -16 -4 -28 -10 -28 -7 0 -10 297 -10 872 0
479 3 869 6 866 3 -3 8 -55 12 -114z m430 86 c225 -12 321 -28 407 -69 85 -39
139 -91 177 -169 31 -63 33 -73 33 -177 0 -100 -3 -116 -29 -173 -35 -75 -97
-135 -167 -159 l-47 -17 65 -23 c188 -65 253 -152 261 -347 9 -207 -48 -336
-188 -426 -112 -72 -201 -88 -610 -115 -129 -8 -253 -18 -275 -20 l-40 -5 3
852 c2 676 0 854 -10 861 -13 9 40 7 420 -13z"/>
<path d="M1324 1985 c2 -49 3 -164 4 -255 l2 -165 157 5 c124 5 165 9 191 23
18 10 37 15 41 12 15 -9 73 47 92 90 24 52 26 180 3 233 -17 43 -58 88 -94
106 -42 22 -139 35 -271 39 l-127 3 2 -91z m348 31 c76 -32 105 -85 107 -196
2 -104 11 -101 11 4 0 58 -5 98 -15 119 -15 29 -15 30 0 12 21 -26 35 -81 35
-136 0 -60 -10 -110 -21 -104 -4 3 -15 -7 -23 -23 -41 -79 -142 -113 -309
-105 -56 3 -103 6 -103 7 -1 0 -4 99 -6 220 l-4 219 90 -5 c152 -8 223 -55
247 -163 7 -30 16 -52 21 -49 16 10 8 59 -20 114 -30 60 -69 89 -137 102 -28
5 -20 6 27 2 36 -2 81 -11 100 -18z"/>
<path d="M1323 1203 c4 -91 7 -218 7 -282 l0 -116 143 8 c156 8 212 17 272 43
22 10 48 19 58 20 26 2 56 33 84 88 22 44 24 59 21 140 -8 213 -91 266 -419
266 l-172 0 6 -167z m309 137 c21 -6 51 -27 72 -50 20 -22 36 -34 36 -28 -1
17 -35 58 -49 58 -6 0 -11 4 -11 10 0 18 93 -19 125 -50 17 -17 34 -28 37 -24
11 10 36 -48 47 -111 15 -79 14 -128 -1 -119 -8 5 -9 2 -4 -11 8 -22 -2 -57
-15 -50 -5 4 -9 1 -9 -6 0 -7 -3 -9 -6 -6 -4 3 -15 -5 -26 -19 -24 -30 -81
-60 -141 -74 -65 -14 -323 -28 -332 -18 -1 2 -6 114 -9 250 l-7 247 58 4 c125
7 200 6 235 -3z"/>
<path d="M1848 1230 c9 -31 9 -137 -1 -210 l-7 -55 17 35 c23 48 23 173 0 220
-9 19 -13 24 -9 10z"/>
<path d="M1750 1214 c6 -14 10 -39 10 -55 0 -16 4 -29 9 -29 5 0 8 8 6 18 -2
9 -7 34 -10 55 -3 20 -10 37 -15 37 -6 0 -6 -10 0 -26z"/>
<path d="M1355 780 l-50 -7 50 0 c28 -1 75 2 105 7 l55 7 -55 0 c-30 0 -77 -3
-105 -7z"/>
<path d="M935 1707 c-7 -35 -1 -184 7 -192 3 -3 6 46 7 110 2 116 -3 143 -14
82z"/>
<path d="M2792 208 c-35 -33 -36 -46 -3 -29 20 11 46 49 39 57 -3 2 -19 -10
-36 -28z"/>
<path d="M2840 230 c0 -15 47 -60 62 -60 7 0 -2 -9 -19 -20 -18 -11 -33 -24
-33 -29 0 -5 -3 -17 -7 -27 -4 -11 5 -7 26 12 52 46 54 56 20 97 -30 37 -49
47 -49 27z"/>
<path d="M2760 153 c0 -10 52 -63 62 -63 15 0 8 21 -17 45 -23 24 -45 33 -45
18z"/>
</g>
</svg>
