<?xml version="1.0" standalone="no"?>
<!DOCTYPE svg PUBLIC "-//W3C//DTD SVG 20010904//EN"
 "http://www.w3.org/TR/2001/REC-SVG-20010904/DTD/svg10.dtd">
<svg version="1.0" xmlns="http://www.w3.org/2000/svg"
 width="300.000000pt" height="300.000000pt" viewBox="0 0 300.000000 300.000000"
 preserveAspectRatio="xMidYMid meet">
<metadata>
Created by potrace 1.10, written by Peter Selinger 2001-2011
</metadata>
<g transform="translate(0.000000,300.000000) scale(0.100000,-0.100000)"
fill="#000000" stroke="none">
<path d="M1315 2574 c-91 -16 -124 -26 -214 -61 -77 -30 -198 -96 -237 -130
-15 -12 -30 -23 -34 -23 -4 0 -46 -39 -94 -87 -228 -231 -338 -512 -323 -827
28 -585 509 -1045 1093 -1046 50 0 131 7 180 17 49 9 104 17 123 17 33 1 35
-1 46 -44 16 -62 39 -95 80 -114 48 -23 82 -7 174 83 41 39 77 71 80 71 4 0
43 -35 88 -79 91 -87 124 -101 178 -75 39 18 274 255 276 278 1 9 2 23 2 31 0
8 -1 24 -2 34 0 10 -37 56 -81 102 -44 46 -80 86 -80 89 0 3 21 28 47 54 94
97 113 125 113 168 0 31 -6 46 -30 68 -16 15 -42 31 -57 35 -15 3 -41 12 -59
20 l-32 13 19 89 c98 443 -85 898 -463 1150 -233 155 -520 216 -793 167z m367
-39 c335 -58 613 -266 764 -570 121 -244 146 -535 66 -777 l-19 -57 88 -21
c96 -24 112 -36 112 -81 0 -25 -17 -47 -93 -124 l-94 -95 97 -98 c68 -70 97
-106 97 -123 0 -34 -255 -289 -289 -289 -17 0 -54 29 -123 97 l-98 97 -95 -94
c-77 -76 -99 -93 -124 -93 -45 0 -57 16 -81 113 -20 81 -24 89 -41 80 -10 -6
-58 -20 -106 -32 -72 -18 -115 -22 -243 -22 -193 1 -299 26 -465 108 -251 125
-432 329 -524 590 -217 615 167 1275 809 1391 101 18 259 18 362 0z"/>
<path d="M1386 2378 c-27 -17 -66 -54 -89 -82 -38 -49 -137 -237 -137 -263 0
-10 35 -13 140 -13 l140 0 0 195 c0 107 -1 195 -3 195 -2 0 -25 -14 -51 -32z
m12 -181 c3 -138 1 -141 -106 -135 -63 4 -67 5 -64 27 9 60 130 237 157 228 6
-2 11 -50 13 -120z"/>
<path d="M1570 2215 l0 -195 141 0 140 0 -6 23 c-17 53 -85 186 -121 234 -37
49 -97 103 -136 124 -17 9 -18 -3 -18 -186z m70 95 c35 -19 140 -186 140 -224
0 -17 -30 -26 -88 -26 -79 0 -82 4 -82 140 0 66 3 120 6 120 3 0 14 -4 24 -10z"/>
<path d="M1080 2314 c-46 -25 -114 -69 -151 -99 -61 -49 -179 -174 -179 -189
0 -3 60 -6 134 -6 l133 0 23 68 c26 79 71 170 112 230 16 23 25 42 21 42 -4 0
-46 -21 -93 -46z m-60 -164 c-21 -51 -38 -81 -49 -82 -53 -6 -121 -2 -121 7 0
28 191 187 198 165 2 -6 -11 -47 -28 -90z"/>
<path d="M1830 2355 c0 -3 15 -25 34 -49 33 -43 87 -161 111 -241 l12 -40 138
-3 c84 -2 136 1 133 7 -1 5 -28 38 -60 74 -68 77 -176 161 -278 216 -73 39
-90 46 -90 36z m195 -148 c48 -36 135 -119 135 -128 0 -10 -110 -20 -127 -11
-13 8 -60 107 -79 164 -7 24 18 15 71 -25z"/>
<path d="M649 1843 c-20 -47 -52 -172 -62 -245 l-6 -38 183 0 183 0 7 103 c3
56 12 130 19 165 l14 62 -159 0 -159 0 -20 -47z m276 -3 c12 -20 -16 -214 -33
-227 -18 -15 -229 -18 -251 -4 -12 7 -11 20 3 81 9 39 25 92 35 116 l20 44
110 0 c62 0 112 -4 116 -10z"/>
<path d="M1115 1868 c-12 -50 -35 -226 -35 -265 l0 -43 180 0 180 0 0 165 0
165 -160 0 c-157 0 -160 0 -165 -22z m279 -34 c3 -9 6 -60 6 -114 0 -88 -2
-100 -19 -110 -29 -15 -236 -13 -249 3 -11 13 2 170 18 213 9 23 12 24 124 24
95 0 115 -3 120 -16z"/>
<path d="M1570 1725 l0 -165 181 0 181 0 -7 78 c-6 72 -18 159 -31 225 l-6 27
-159 0 -159 0 0 -165z m288 93 c7 -15 16 -66 19 -114 5 -68 3 -88 -8 -95 -16
-10 -219 -12 -243 -3 -13 5 -16 25 -16 118 0 62 3 116 7 120 4 3 57 5 117 4
110 -3 111 -3 124 -30z"/>
<path d="M2024 1873 c13 -40 25 -124 32 -215 l7 -98 184 0 183 0 -4 23 c-3 12
-12 56 -20 97 -8 42 -26 105 -39 140 l-24 65 -162 3 c-152 2 -162 1 -157 -15z
m314 -93 c30 -83 42 -156 28 -170 -11 -11 -234 -14 -252 -2 -11 7 -34 153 -34
215 l0 28 117 -3 118 -3 23 -65z"/>
<path d="M586 1398 c14 -86 37 -179 58 -233 l23 -60 160 -3 161 -2 -14 62 c-7
35 -16 109 -20 166 l-7 102 -183 0 -183 0 5 -32z m318 -16 c7 -11 18 -120 20
-187 l1 -50 -106 -3 c-127 -3 -130 -1 -158 96 -29 100 -34 139 -19 145 22 9
257 7 262 -1z"/>
<path d="M1084 1343 c7 -78 18 -160 31 -220 5 -23 8 -23 165 -23 l160 0 0 165
0 165 -181 0 -182 0 7 -87z m297 37 c17 -10 19 -22 19 -113 0 -67 -4 -107 -12
-115 -14 -14 -205 -17 -226 -3 -20 12 -47 208 -32 227 15 17 220 20 251 4z"/>
<path d="M1570 1265 l0 -165 74 0 73 0 -18 67 c-24 85 -24 116 -1 136 24 22
52 21 141 -3 40 -12 75 -19 76 -18 2 2 6 36 10 76 l7 72 -181 0 -181 0 0 -165z
m308 96 c4 -23 3 -23 -45 -15 -86 15 -129 11 -157 -15 -31 -29 -40 -72 -28
-128 11 -46 -1 -71 -25 -52 -18 15 -18 210 -1 227 9 9 48 12 133 10 118 -3
120 -3 123 -27z"/>
<path d="M2060 1396 c0 -18 -3 -60 -6 -92 l-6 -59 153 -38 c85 -20 157 -37
161 -37 9 0 44 120 53 180 4 25 9 53 11 63 5 16 -8 17 -180 17 l-186 0 0 -34z
m309 -36 c5 -37 -19 -130 -35 -137 -16 -6 -213 44 -232 60 -12 10 -9 77 5 100
2 4 62 6 131 5 127 -3 127 -3 131 -28z"/>
<path d="M1837 1163 c-4 -3 -3 -13 2 -22 4 -9 43 -155 86 -326 43 -171 79
-311 80 -313 2 -1 33 29 71 69 38 39 79 75 92 80 34 13 65 -7 161 -106 l85
-86 63 64 64 63 -86 85 c-99 96 -119 127 -106 161 5 13 41 54 80 92 40 38 70
69 69 71 -2 1 -142 37 -313 80 -170 43 -317 82 -326 86 -9 5 -19 6 -22 2z
m123 -72 c297 -76 434 -112 442 -117 5 -3 -12 -30 -37 -60 -80 -93 -73 -133
39 -244 36 -35 66 -71 66 -79 0 -20 -40 -61 -60 -61 -8 0 -45 30 -80 66 -119
120 -162 124 -263 20 -16 -16 -32 -25 -36 -20 -5 5 -16 34 -25 64 -23 79 -106
414 -106 428 0 14 13 15 60 3z"/>
<path d="M750 964 c0 -15 128 -149 179 -188 57 -44 228 -146 244 -146 5 0 2
10 -7 23 -40 57 -90 154 -118 232 l-31 85 -133 0 c-74 0 -134 -3 -134 -6z
m227 -42 c10 -6 83 -163 83 -178 0 -2 -18 5 -40 16 -47 24 -170 137 -170 156
0 10 15 14 58 14 31 0 62 -4 69 -8z"/>
<path d="M1160 959 c0 -25 89 -197 129 -249 38 -50 89 -97 134 -121 16 -9 17
3 17 186 l0 195 -140 0 c-98 0 -140 -3 -140 -11z m224 -45 c20 -20 24 -228 4
-240 -7 -5 -27 10 -50 37 -45 51 -122 195 -113 209 11 17 141 12 159 -6z"/>
<path d="M1570 780 c0 -104 2 -190 5 -190 35 0 143 104 188 180 22 39 25 51
17 80 -5 19 -14 54 -20 78 l-11 42 -89 0 -90 0 0 -190z m151 129 c19 -31 21
-81 4 -118 -22 -50 -90 -125 -104 -117 -13 8 -16 238 -3 250 11 12 93 0 103
-15z"/>
</g>
</svg>
