<?xml version="1.0" standalone="no"?>
<!DOCTYPE svg PUBLIC "-//W3C//DTD SVG 20010904//EN"
 "http://www.w3.org/TR/2001/REC-SVG-20010904/DTD/svg10.dtd">
<svg version="1.0" xmlns="http://www.w3.org/2000/svg"
 width="300.000000pt" height="305.000000pt" viewBox="0 0 300.000000 305.000000"
 preserveAspectRatio="xMidYMid meet">
<metadata>
Created by potrace 1.10, written by Peter Selinger 2001-2011
</metadata>
<g transform="translate(0.000000,305.000000) scale(0.100000,-0.100000)"
fill="#000000" stroke="none">
<path d="M1241 3046 c9 -9 149 -13 149 -5 0 5 -34 9 -77 9 -42 0 -74 -2 -72
-4z"/>
<path d="M1415 3041 c-3 -6 50 -8 132 -6 90 2 143 -1 155 -9 14 -8 20 -8 26 1
4 6 25 13 47 16 22 2 -49 4 -157 5 -112 1 -199 -2 -203 -7z"/>
<path d="M1994 3033 c2 -10 7 -28 11 -40 3 -13 14 -23 23 -23 15 1 15 2 2 13
-21 16 -19 36 4 53 19 13 18 14 -13 14 -26 0 -31 -3 -27 -17z"/>
<path d="M1370 2964 c-14 -3 -63 -11 -110 -19 -72 -12 -137 -35 -340 -116 -14
-6 -27 -10 -30 -11 -3 0 -10 -4 -15 -8 -6 -5 -36 -22 -68 -39 -136 -72 -318
-235 -419 -377 -111 -156 -186 -326 -231 -524 -18 -79 -21 -127 -21 -290 0
-180 2 -203 27 -301 72 -280 190 -483 393 -679 194 -187 434 -313 700 -366
125 -25 404 -26 529 -1 436 86 791 351 983 732 103 207 163 489 148 705 -43
621 -473 1123 -1085 1267 -84 19 -140 25 -271 28 -91 2 -176 1 -190 -1z m419
-54 c427 -87 802 -376 976 -752 51 -111 42 -109 -13 2 -78 156 -187 300 -304
401 -103 90 -100 80 5 -21 169 -161 293 -351 351 -539 87 -276 71 -625 -39
-901 -140 -349 -428 -626 -778 -749 -165 -58 -272 -75 -467 -74 -195 0 -290
15 -455 73 -432 153 -751 520 -851 980 -29 131 -27 391 4 529 56 250 163 452
341 647 31 33 21 25 -21 -18 -150 -153 -261 -352 -321 -576 -30 -113 -31 -124
-31 -327 -1 -186 2 -220 22 -298 102 -403 343 -706 707 -890 196 -99 377 -140
610 -140 223 0 398 38 594 129 199 92 406 272 532 463 38 57 69 100 69 96 0
-4 -30 -54 -67 -109 -118 -178 -314 -352 -503 -446 -230 -115 -507 -167 -754
-142 -199 21 -314 54 -491 143 -370 184 -634 524 -721 929 -26 121 -26 400 0
525 22 106 76 265 116 345 88 174 266 382 420 489 195 137 414 222 642 251
107 13 311 4 427 -20z"/>
<path d="M1278 2780 c-122 -25 -178 -45 -296 -102 -293 -142 -528 -410 -626
-713 -55 -171 -73 -425 -42 -587 20 -99 61 -225 90 -273 14 -22 52 -87 85
-145 33 -58 90 -138 126 -178 71 -80 184 -182 200 -182 5 0 -6 12 -25 27 -102
77 -228 234 -320 399 -100 180 -143 344 -143 549 1 253 75 491 217 695 58 82
194 221 266 270 94 64 203 126 252 145 26 10 53 24 59 31 6 8 23 14 36 14 14
0 71 9 126 21 148 30 377 31 505 2 141 -33 187 -51 301 -115 171 -97 332 -234
407 -347 75 -113 103 -162 137 -241 160 -377 116 -811 -117 -1160 -63 -93 -58
-98 7 -7 103 144 183 339 213 521 14 85 15 122 6 270 -12 189 -28 261 -93 409
-107 248 -342 487 -590 601 -100 46 -208 81 -308 100 -117 22 -358 20 -473 -4z"/>
<path d="M1305 2731 c-242 -48 -453 -161 -622 -333 -76 -77 -89 -92 -144 -173
-40 -57 -109 -191 -109 -208 1 -7 18 23 40 65 109 215 249 363 470 497 200
122 473 180 707 152 59 -8 139 -22 177 -33 91 -25 260 -94 309 -126 20 -14 40
-22 43 -19 6 5 -119 81 -153 94 -10 3 -38 15 -62 25 -24 11 -87 31 -140 45
-132 34 -382 41 -516 14z"/>
<path d="M1399 2716 c-3 -3 -27 -8 -54 -11 -80 -9 -145 -26 -139 -36 3 -5 -2
-6 -10 -3 -21 8 -153 -44 -153 -60 0 -16 66 2 68 18 1 6 5 -5 9 -24 l7 -35 2
40 c1 30 4 36 11 25 8 -12 10 -12 11 5 0 11 3 14 6 8 2 -7 9 -13 14 -13 6 0 7
5 3 11 -4 7 4 10 22 7 18 -1 28 2 27 9 -1 6 9 13 22 16 27 5 33 -7 12 -20 -19
-11 -27 -39 -15 -51 6 -6 18 -1 35 15 20 21 31 24 59 20 23 -4 34 -2 34 6 0 8
3 8 9 -1 7 -11 9 -11 14 2 5 12 0 16 -18 16 -41 0 -30 28 15 40 40 11 52 20
27 20 -8 0 -16 -2 -18 -4z"/>
<path d="M1442 2715 c3 -3 56 -8 119 -10 63 -3 133 -9 157 -14 23 -4 42 -5 42
-1 0 13 -128 30 -225 30 -54 0 -96 -2 -93 -5z"/>
<path d="M2210 2693 c0 -5 16 -17 36 -28 19 -10 46 -29 60 -41 13 -13 24 -21
24 -19 0 5 15 -8 63 -52 10 -10 17 -12 17 -5 0 13 -99 93 -161 130 -21 13 -39
19 -39 15z"/>
<path d="M1805 2676 c18 -14 18 -15 3 -16 -10 0 -18 -4 -18 -9 0 -5 -9 -7 -20
-4 -19 5 -20 0 -20 -109 l0 -114 -34 -33 c-28 -27 -40 -32 -72 -29 -38 3 -39
4 -42 44 -3 34 1 45 22 61 27 22 38 82 18 105 -6 8 -9 18 -5 22 4 4 0 4 -10 0
-13 -4 -15 -10 -7 -19 5 -6 7 -15 3 -18 -3 -4 -2 -7 4 -7 21 0 7 -45 -19 -59
-28 -16 -54 -7 -28 9 10 7 11 10 3 10 -15 0 -17 36 -3 45 12 7 4 25 -11 25 -7
0 -10 -58 -7 -170 3 -146 1 -170 -12 -170 -13 0 -15 23 -12 163 3 139 1 165
-12 176 -20 17 -20 30 0 52 10 12 14 25 9 36 -5 11 -9 14 -12 6 -2 -7 -11 -9
-19 -6 -12 4 -14 -18 -14 -139 0 -141 -1 -145 -25 -168 -14 -13 -25 -28 -25
-34 0 -12 60 54 61 68 1 6 0 27 -1 47 -1 21 3 39 7 42 5 3 10 -13 11 -36 2
-23 5 -64 8 -91 2 -28 0 -54 -7 -62 -13 -16 -3 -70 16 -78 7 -2 25 5 39 17 24
21 25 24 11 51 -15 29 -21 102 -7 79 5 -7 29 -17 53 -21 38 -7 50 -6 69 10 13
10 29 17 35 14 6 -2 13 1 14 7 3 21 19 191 20 218 1 14 7 26 14 26 6 1 26 7
44 14 26 10 34 10 47 0 22 -19 20 -47 -5 -64 -15 -11 -19 -23 -17 -43 l4 -29
13 32 c7 19 18 30 24 26 5 -3 7 -1 4 4 -8 13 17 36 28 25 4 -4 4 4 0 18 -7 21
-6 23 7 13 8 -7 18 -10 21 -6 4 3 8 -43 9 -103 l2 -109 6 115 6 115 2 -122 c2
-108 0 -123 -14 -123 -9 0 -36 -18 -60 -40 -29 -27 -53 -40 -72 -40 -40 0 -52
-17 -52 -76 0 -32 -7 -65 -17 -83 -17 -29 -21 -31 -79 -31 -71 0 -89 -13 -77
-57 l7 -28 6 35 5 35 69 3 c73 3 104 19 83 42 -9 10 -9 12 2 8 18 -5 38 -35
29 -43 -9 -10 -37 -13 -105 -14 l-63 -1 2 -82 c1 -46 3 -64 5 -41 3 30 8 40
18 37 7 -3 16 0 20 5 3 6 11 9 16 6 5 -4 12 1 15 9 3 9 15 16 25 16 15 0 19
-7 19 -40 0 -41 -23 -80 -48 -80 -7 0 -10 -4 -7 -10 3 -5 0 -10 -8 -10 -8 0
-22 -10 -31 -22 -12 -16 -15 -17 -12 -6 3 10 1 20 -3 23 -12 7 -20 -63 -11
-95 6 -25 7 -25 13 6 4 22 22 43 61 74 l56 42 0 74 0 74 -38 0 c-33 0 -38 -3
-38 -22 1 -14 -6 -24 -17 -26 -22 -4 -33 24 -17 43 16 19 116 21 123 3 7 -21
47 22 47 50 0 14 -7 33 -15 42 -9 10 -16 34 -17 55 -2 47 32 78 70 64 28 -11
41 -11 25 -1 -18 11 52 82 82 82 24 0 47 20 23 20 -8 1 -7 5 5 14 10 8 13 16
7 18 -6 2 -14 36 -17 77 -5 64 -4 75 12 83 14 8 15 12 4 19 -7 4 -11 11 -7 14
3 4 16 -3 27 -14 12 -12 26 -21 31 -21 6 0 10 -4 10 -9 0 -6 9 -9 20 -8 11 1
16 4 12 8 -14 14 -166 89 -170 84 -3 -3 -11 0 -19 6 -7 6 -13 9 -13 5 0 -4
-12 0 -27 7 -16 8 -41 17 -58 21 -29 7 -29 7 -10 -8z"/>
<path d="M1449 2648 c-3 -61 9 -219 17 -227 2 -2 4 50 4 117 0 70 -4 123 -10
127 -5 3 -10 -4 -11 -17z"/>
<path d="M1560 2651 c5 -11 15 -23 20 -26 6 -4 8 -15 5 -26 -4 -11 -2 -19 4
-19 11 0 12 4 14 33 2 18 -26 57 -41 57 -9 0 -10 -5 -2 -19z"/>
<path d="M1704 2640 c8 -8 16 -24 19 -35 3 -12 5 -6 6 15 1 29 -3 36 -19 36
-16 0 -17 -2 -6 -16z"/>
<path d="M1657 2631 c-3 -15 -1 -18 11 -14 13 5 14 0 9 -33 -4 -21 -7 -58 -7
-81 0 -33 -4 -43 -20 -48 -24 -8 -37 -52 -21 -68 10 -9 11 -6 6 15 -5 20 -2
29 13 37 20 10 42 -2 42 -23 0 -6 -4 -5 -9 3 -12 18 -42 6 -35 -14 9 -22 29
-19 58 9 23 20 26 31 26 90 0 53 -3 66 -16 66 -9 0 -14 7 -12 18 1 10 -7 28
-18 40 -21 22 -22 22 -27 3z m58 -135 c-10 -59 -21 -64 -29 -12 -8 52 -2 68
20 59 12 -4 14 -15 9 -47z"/>
<path d="M1797 2604 c-10 -10 -9 -46 1 -40 19 11 35 -43 28 -93 -4 -28 -3 -51
1 -51 14 0 16 137 3 145 -6 4 -15 16 -19 26 -4 11 -10 17 -14 13z"/>
<path d="M1088 2586 c-13 -9 -18 -27 -18 -63 0 -37 -5 -55 -20 -68 -15 -14
-19 -26 -14 -49 4 -23 0 -36 -13 -48 -14 -13 -18 -30 -17 -68 1 -28 5 -54 8
-57 12 -12 6 -23 -13 -23 -17 0 -18 6 -14 63 4 55 3 63 -16 75 -25 15 -29 -1
-6 -24 17 -18 20 -64 4 -64 -16 0 -4 -54 18 -79 17 -20 17 -20 31 12 18 39 25
70 15 64 -13 -8 -9 59 4 74 6 8 14 32 18 54 4 22 12 46 18 53 5 7 9 38 9 70
l-2 57 19 -25 c15 -19 17 -29 9 -43 -7 -14 -7 -22 1 -26 11 -7 7 -83 -6 -104
-3 -6 -1 -7 5 -3 11 7 18 -33 13 -71 -1 -7 2 -13 7 -13 13 0 1 242 -13 263 -7
10 -11 27 -8 38 6 22 4 23 -19 5z"/>
<path d="M1325 2580 c-4 -6 -14 -9 -22 -6 -8 3 -11 1 -8 -5 4 -5 15 -7 26 -4
10 4 19 2 19 -2 0 -5 23 -34 52 -64 28 -29 46 -47 40 -38 -7 9 -9 19 -5 22 3
4 1 7 -5 7 -15 0 -43 55 -34 65 4 5 1 4 -7 0 -11 -6 -13 -4 -8 7 4 11 0 15
-11 13 -9 -1 -20 2 -23 7 -4 6 -9 6 -14 -2z"/>
<path d="M1254 2560 c0 -11 4 -20 8 -20 4 0 7 -8 7 -17 2 -80 15 -112 25 -61
3 17 2 36 -4 42 -15 15 -12 29 5 22 8 -3 15 0 15 6 0 6 9 3 20 -7 11 -10 20
-13 20 -8 0 15 -27 36 -38 29 -5 -3 -18 4 -30 14 -26 25 -28 25 -28 0z"/>
<path d="M1027 2564 c-3 -4 -4 -19 0 -34 4 -22 0 -31 -16 -39 -11 -7 -20 -16
-18 -21 1 -5 -7 -15 -18 -24 -17 -13 -18 -14 -3 -12 10 1 31 15 48 31 24 23
29 36 28 67 -1 36 -7 45 -21 32z"/>
<path d="M1164 2541 c10 -11 16 -43 19 -101 3 -81 3 -80 3 14 -1 88 -3 99 -19
102 -17 2 -17 1 -3 -15z"/>
<path d="M2051 2537 c0 -16 3 -26 8 -22 16 9 24 -15 10 -31 -13 -16 2 -64 21
-64 12 0 13 17 2 24 -9 6 -8 27 3 64 8 23 20 28 30 13 3 -6 14 -9 25 -8 10 1
17 5 14 9 -3 4 -11 5 -20 1 -8 -3 -14 -2 -13 3 3 19 -2 22 -35 14 -28 -6 -36
-4 -39 9 -3 9 -5 3 -6 -12z"/>
<path d="M2250 2493 c219 -196 344 -386 406 -618 51 -193 43 -440 -22 -646
-32 -102 -114 -274 -149 -311 -14 -15 -25 -32 -25 -38 0 -5 -3 -9 -7 -9 -5 1
-12 0 -18 -1 -5 -1 -31 -1 -56 0 -28 1 -50 -4 -55 -11 -4 -8 -3 -10 5 -5 6 4
18 2 26 -4 12 -10 7 -20 -32 -59 l-47 -46 -7 30 c-6 25 -7 22 -8 -19 l-1 -49
72 77 c39 42 77 75 83 72 7 -2 18 1 26 7 7 7 -6 -12 -30 -40 -60 -74 -121
-126 -234 -200 -212 -140 -412 -197 -687 -193 -161 1 -301 32 -465 102 -161
69 -358 233 -457 383 -86 131 -167 313 -183 413 -3 15 -9 47 -14 72 -6 25 -10
64 -11 88 0 23 -4 42 -8 42 -9 0 -8 -22 9 -140 16 -109 54 -220 117 -344 174
-342 458 -555 826 -621 80 -14 129 -17 255 -12 167 7 241 19 367 62 450 155
754 559 780 1040 15 262 -61 524 -216 744 -60 84 -185 211 -256 259 -46 32
-45 30 16 -25z"/>
<path d="M1210 2538 c-5 -74 -3 -223 2 -210 7 17 9 212 2 212 -2 0 -4 -1 -4
-2z"/>
<path d="M1943 2470 c0 -41 2 -58 4 -37 2 20 2 54 0 75 -2 20 -4 3 -4 -38z"/>
<path d="M2429 2522 c13 -24 40 -46 47 -39 5 5 -42 57 -52 57 -2 0 0 -8 5 -18z"/>
<path d="M1164 2435 c0 -49 1 -71 3 -48 2 23 2 64 0 90 -2 26 -3 8 -3 -42z"/>
<path d="M1305 2511 c-3 -6 10 -28 30 -49 19 -22 35 -44 35 -50 0 -6 7 -9 15
-6 21 9 19 21 -6 27 -15 4 -20 11 -15 22 3 9 2 13 -3 10 -5 -3 -13 0 -17 6 -5
8 -3 9 6 4 8 -5 11 -4 6 3 -4 6 -13 9 -21 5 -11 -3 -13 -1 -9 10 6 17 -11 32
-21 18z"/>
<path d="M2024 2505 c-3 -8 -3 -19 1 -24 3 -6 1 -20 -5 -31 -13 -24 1 -43 38
-52 15 -4 22 -2 22 8 0 9 -8 14 -17 12 -15 -3 -17 3 -15 35 2 24 -1 37 -8 37
-7 0 -10 7 -6 15 3 8 3 15 0 15 -2 0 -7 -7 -10 -15z"/>
<path d="M1360 2499 c0 -16 46 -66 54 -58 3 2 -9 20 -25 39 -18 22 -29 29 -29
19z"/>
<path d="M2190 2492 c0 -5 11 -15 25 -22 36 -19 44 -59 17 -81 l-22 -17 25
-16 c21 -14 23 -19 13 -30 -11 -12 -16 -12 -30 1 -10 9 -18 13 -18 9 0 -3 -10
0 -22 8 -29 17 -101 27 -119 15 -9 -6 -1 -9 26 -9 52 0 136 -48 163 -92 11
-18 23 -57 27 -85 7 -58 7 -57 33 -43 9 5 34 16 55 24 36 15 37 16 35 63 l-2
48 -3 -47 c-2 -27 -8 -48 -13 -48 -5 0 -6 8 -3 17 6 15 5 16 -9 3 -11 -11 -13
-17 -4 -23 6 -5 1 -6 -14 -3 -14 3 -31 6 -37 6 -7 0 -13 5 -13 10 0 6 14 10
30 10 17 0 30 5 30 11 0 7 -12 9 -34 5 -38 -7 -50 6 -34 37 7 13 4 19 -14 27
-13 5 -19 9 -15 9 4 1 2 11 -4 24 -6 12 -8 19 -4 15 5 -5 15 1 23 13 17 25 51
22 66 -6 6 -11 15 -23 20 -26 5 -4 6 -25 3 -48 -3 -23 -1 -41 4 -41 5 0 9 19
9 43 0 27 3 37 9 29 6 -11 10 -10 15 4 5 13 -10 35 -61 86 -70 70 -153 136
-153 120z m95 -113 c0 -7 -8 -15 -17 -17 -18 -3 -25 18 -11 32 10 10 28 1 28
-15z"/>
<path d="M1907 2431 c-8 -47 -36 -79 -49 -58 -5 7 -8 0 -8 -15 0 -35 4 -35 41
0 26 25 30 34 27 73 l-3 44 -8 -44z"/>
<path d="M1303 2440 c3 -13 0 -20 -10 -20 -13 0 -13 -2 1 -15 19 -19 30 -19
22 1 -3 8 -2 12 4 9 6 -3 11 -23 12 -43 1 -37 1 -37 8 8 l7 45 1 -52 c1 -30
-2 -53 -8 -53 -5 0 -10 -9 -10 -20 0 -11 7 -20 15 -20 8 0 15 5 15 11 0 5 -4
7 -10 4 -5 -3 -10 -2 -10 4 0 5 5 13 10 16 14 8 13 98 -1 112 -6 6 -18 9 -27
5 -11 -4 -14 -1 -9 11 4 10 2 17 -4 17 -6 0 -9 -9 -6 -20z"/>
<path d="M794 2425 c-3 -14 -4 -39 0 -56 3 -19 2 -28 -4 -24 -6 3 -10 1 -10
-5 0 -7 7 -9 16 -6 14 5 15 4 5 -8 -15 -18 -37 -15 -57 10 -8 10 -12 12 -8 4
4 -8 22 -33 41 -56 18 -22 31 -44 28 -47 -3 -4 -2 -5 1 -2 4 2 19 -6 35 -19
16 -13 33 -26 39 -28 11 -3 17 -64 8 -74 -3 -3 -27 18 -54 46 -26 27 -49 48
-52 45 -3 -3 -15 3 -26 12 -12 11 -9 5 7 -15 15 -19 25 -37 22 -42 -3 -5 15
-26 40 -48 l45 -40 -2 -78 -2 -79 -6 80 -6 80 -2 -72 c-1 -39 1 -78 4 -87 14
-36 21 -11 23 73 2 85 1 90 -24 109 -14 11 -22 23 -17 26 5 3 18 -5 30 -17 18
-19 21 -36 23 -129 1 -59 6 -105 11 -102 5 3 6 23 3 45 -8 55 4 129 21 129 19
0 18 25 -2 41 -14 11 -16 27 -11 89 l6 75 -35 35 c-19 19 -34 30 -34 26 0 -5
-7 -3 -15 4 -8 7 -15 16 -15 20 0 17 31 3 63 -28 18 -18 36 -29 40 -26 4 4 7
-33 7 -83 0 -69 4 -94 15 -103 14 -12 15 -9 9 21 -3 19 -6 41 -5 49 3 66 0 95
-14 116 -8 13 -13 24 -10 24 4 0 -9 15 -28 33 -19 18 -37 44 -40 57 -4 23 -4
23 -7 -5 l-2 -30 -9 25 c-8 22 -8 21 -4 -8 3 -20 1 -31 -5 -27 -6 3 -10 22
-10 41 0 21 4 33 10 29 6 -3 10 -2 10 3 0 8 -22 22 -36 22 -2 0 -6 -11 -10
-25z m118 -120 c6 -12 -4 -6 -26 14 -20 19 -36 39 -36 45 0 13 49 -34 62 -59z
m-30 -40 c33 -36 34 -41 8 -55 -17 -9 -22 -7 -30 15 -5 14 -12 25 -14 25 -3 0
-3 -8 1 -17 6 -16 4 -16 -16 1 -12 11 -19 26 -16 33 2 8 1 12 -4 9 -4 -3 -17
4 -27 16 -11 12 -14 18 -8 15 7 -4 17 0 24 8 11 14 15 14 34 -2 12 -9 33 -31
48 -48z m-47 -135 c-5 -8 -12 -7 -26 6 -10 9 -16 21 -13 26 3 5 0 17 -7 26 -7
9 2 3 20 -14 20 -19 30 -37 26 -44z"/>
<path d="M838 2284 c18 -23 32 -47 32 -53 0 -6 5 -11 10 -11 22 0 8 28 -32 65
l-42 40 32 -41z"/>
<path d="M1420 2415 c-5 -14 -14 -25 -20 -25 -6 0 -10 -24 -10 -55 0 -40 4
-55 14 -55 7 0 16 9 19 21 5 17 3 18 -11 7 -14 -11 -15 -10 -8 7 4 11 8 25 9
30 1 6 10 16 20 24 13 9 15 17 8 24 -7 7 -7 16 0 29 7 12 6 18 -1 18 -6 0 -15
-11 -20 -25z"/>
<path d="M735 2400 c-22 -25 -28 -51 -10 -44 14 6 41 52 33 59 -3 3 -13 -4
-23 -15z"/>
<path d="M2540 2414 c1 -5 17 -27 36 -49 20 -22 31 -31 25 -20 -13 26 -61 81
-61 69z"/>
<path d="M1794 2345 c13 -29 39 -29 44 -1 3 11 0 16 -7 12 -6 -4 -19 -2 -30 3
-17 10 -18 9 -7 -14z"/>
<path d="M1954 2325 c-4 -8 -18 -28 -33 -44 -34 -37 -50 -102 -42 -171 8 -59
41 -124 72 -141 11 -5 17 -14 14 -18 -3 -5 2 -12 11 -15 24 -9 8 -24 -21 -18
-33 6 -33 -14 0 -22 32 -8 125 4 125 16 0 4 11 1 25 -8 19 -13 37 -15 85 -9
l60 7 0 -486 0 -486 -157 -1 c-107 0 -151 -3 -135 -9 13 -6 82 -8 154 -7 108
3 132 6 143 20 6 9 15 13 19 10 4 -4 2 5 -4 21 -9 25 -8 28 7 22 16 -5 16 -4
3 6 -16 14 -23 131 -8 122 4 -3 3 7 -2 22 -6 15 -7 36 -3 48 11 34 10 56 -1
56 -7 0 -6 3 1 8 9 5 11 29 8 75 -2 40 0 65 6 62 5 -4 9 -1 9 4 0 6 -4 11 -10
11 -6 0 -6 9 1 26 5 15 7 29 4 32 -3 3 2 17 12 31 15 24 15 25 0 12 -18 -14
-17 -18 -22 69 -1 17 2 30 6 30 5 0 6 7 3 15 -5 13 19 15 186 15 125 0 189 -3
185 -10 -4 -6 -69 -11 -158 -11 -104 -1 -136 -4 -102 -9 28 -4 99 -6 158 -5
l109 2 -7 -26 c-3 -14 -6 -32 -7 -39 -1 -7 -8 -10 -17 -8 -42 12 -149 16 -171
7 -19 -7 -2 -10 73 -10 53 -1 97 -5 97 -9 0 -16 -13 -22 -26 -11 -8 7 -14 7
-19 -1 -3 -5 -34 -10 -68 -10 -51 0 -65 4 -77 19 -7 11 -18 18 -22 15 -5 -3
-4 -12 3 -20 9 -11 7 -14 -11 -14 -15 0 -20 5 -17 14 4 10 1 13 -9 9 -7 -3
-14 -9 -14 -13 0 -5 -11 -7 -25 -6 -13 2 -22 -1 -19 -6 3 -5 66 -8 140 -7 74
1 137 -1 141 -5 10 -10 12 -36 3 -36 -4 0 -13 6 -19 14 -8 9 -40 14 -108 15
-54 1 -95 0 -92 -3 2 -3 45 -6 95 -7 71 -1 95 -5 113 -20 13 -11 20 -19 16
-19 -5 0 0 -9 10 -20 29 -32 2 -23 -30 10 -16 17 -34 30 -41 30 -23 0 -24 -17
-4 -41 11 -13 19 -20 20 -15 0 5 -7 18 -17 28 -9 10 -12 18 -7 18 16 0 85 -76
77 -84 -4 -4 -8 -15 -8 -24 0 -14 -11 -17 -72 -16 -40 1 -70 -3 -67 -7 9 -15
154 -11 155 4 3 31 7 54 14 82 4 17 9 57 10 90 2 33 6 67 10 76 11 28 1 102
-14 107 -8 3 -11 0 -7 -7 12 -18 -334 -15 -360 3 -30 22 -9 26 196 29 l185 2
-192 3 c-187 2 -193 3 -193 23 0 11 -4 17 -10 14 -5 -3 -10 1 -10 10 0 9 5 13
11 9 7 -4 10 3 9 17 -4 39 -1 42 18 19 16 -20 28 -22 142 -25 86 -2 106 -1 65
4 -57 7 -58 8 -27 16 24 5 30 10 20 16 -24 16 -55 10 -61 -11 -3 -11 -13 -20
-24 -19 -17 0 -17 1 -1 7 17 7 16 8 -2 19 -16 11 -18 10 -13 -4 4 -11 3 -14
-5 -9 -16 9 -15 41 1 53 6 5 64 6 127 3 l115 -5 -95 -5 -95 -6 91 -2 92 -2 7
-32 c4 -18 9 -27 12 -21 2 7 -1 37 -7 68 l-11 55 -122 2 -122 2 118 3 c87 3
117 7 117 17 0 16 -44 125 -77 191 -31 60 -109 181 -123 190 -6 4 -10 -18 -10
-59 0 -51 -4 -67 -17 -76 -17 -11 -17 -11 0 -6 10 3 21 6 23 6 2 0 4 25 4 55
0 74 14 70 18 -4 2 -50 0 -60 -15 -65 -15 -4 -14 -4 2 -3 15 2 21 12 26 42 l6
40 2 -40 c2 -31 4 -35 10 -20 7 17 10 15 33 -20 26 -43 60 -112 77 -158 l11
-28 -58 4 c-31 1 -63 7 -71 11 -9 6 -12 5 -9 -5 3 -10 26 -15 76 -17 89 -4 96
-22 9 -22 -51 0 -68 4 -82 20 -16 18 -20 19 -35 5 -9 -8 -29 -13 -46 -12 -26
2 -29 5 -26 30 4 24 1 27 -24 27 -24 -1 -27 -3 -14 -13 21 -17 19 -48 -6 -80
-23 -28 -36 -35 -32 -16 2 6 -16 21 -40 34 -37 19 -41 23 -28 34 9 8 13 17 10
22 -3 5 0 9 6 9 18 0 59 53 60 78 0 12 4 22 10 22 5 0 7 7 4 15 -9 22 -21 10
-28 -30 -10 -51 -67 -102 -123 -111 -102 -15 -179 16 -227 90 -45 69 -32 192
25 245 12 11 24 28 25 36 3 19 -5 19 -12 0z m576 -415 l85 -7 -126 -1 c-145 0
-169 -8 -169 -59 0 -20 -5 -33 -13 -33 -23 0 -8 68 20 90 28 22 59 23 203 10z
m-24 -43 l119 -3 -125 -2 c-76 -1 -130 -6 -137 -13 -13 -13 -36 -3 -27 12 3 5
10 7 15 4 5 -4 9 1 9 11 0 12 3 14 13 6 7 -7 66 -13 133 -15z m77 -24 c-29 -2
-77 -2 -105 0 -29 2 -6 3 52 3 58 0 81 -1 53 -3z m-225 -50 c2 -13 -4 -22 -16
-25 -19 -5 -25 11 -16 40 6 20 28 9 32 -15z m288 -331 c1 -12 -4 -22 -10 -22
-6 0 -4 -5 4 -10 11 -7 11 -10 2 -10 -8 0 -10 -5 -6 -12 4 -7 3 -9 -2 -5 -12
11 -13 57 -1 57 5 0 3 7 -4 17 -12 14 -12 16 1 11 8 -2 16 -14 16 -26z"/>
<path d="M1715 2320 c-3 -6 1 -24 9 -42 17 -33 21 -68 9 -68 -148 -6 -141 -5
-179 -41 -21 -18 -34 -26 -31 -17 8 22 -29 66 -44 51 -8 -8 -5 -30 11 -79 18
-53 25 -64 30 -49 4 11 11 20 17 20 14 0 73 52 73 64 0 16 -17 13 -23 -3 -7
-19 -44 -39 -51 -28 -3 5 13 21 35 35 35 23 52 27 115 27 l74 0 0 33 c0 37
-35 113 -45 97z"/>
<path d="M2325 2319 c8 -22 -12 -34 -30 -19 -12 10 -15 9 -15 -4 0 -20 33 -21
50 -1 10 13 11 18 1 28 -10 9 -11 8 -6 -4z"/>
<path d="M2023 2261 c-125 -58 -80 -251 59 -251 97 0 168 118 119 197 -41 66
-109 86 -178 54z m144 -34 c32 -30 36 -40 36 -80 0 -52 -26 -102 -49 -93 -8 3
-12 2 -9 -4 7 -12 -27 -30 -59 -30 -33 0 -57 10 -50 21 3 5 -1 6 -9 3 -17 -6
-54 37 -64 74 -3 13 0 42 6 63 15 50 59 79 119 79 34 0 49 -6 79 -33z"/>
<path d="M2037 2192 c-13 -14 -14 -25 -7 -47 l9 -30 -2 35 c-2 27 3 37 23 47
16 8 19 13 9 13 -9 0 -23 -8 -32 -18z"/>
<path d="M2108 2140 c5 -35 -18 -50 -46 -29 -15 13 -16 12 -3 -4 10 -13 22
-16 39 -12 18 4 22 3 16 -7 -4 -7 2 -4 14 6 25 22 27 27 10 24 -6 -2 -14 6
-16 17 -7 33 -19 38 -14 5z"/>
<path d="M623 2258 c-2 -5 24 -8 58 -8 34 0 59 3 55 8 -4 4 -30 7 -58 7 -27 0
-52 -3 -55 -7z"/>
<path d="M1065 2241 c-3 -12 -12 -27 -19 -33 -7 -8 -9 -23 -6 -38 6 -22 9 -18
23 30 9 30 14 56 12 58 -2 2 -6 -6 -10 -17z"/>
<path d="M2225 2230 c36 -70 9 -169 -57 -210 -92 -56 -153 -35 -240 81 -17 22
-18 22 -18 3 0 -52 72 -118 146 -134 74 -17 167 33 193 103 18 46 13 116 -10
153 -25 42 -35 45 -14 4z"/>
<path d="M581 2214 c-37 -47 -29 -54 57 -52 l77 2 -75 5 c-48 4 -68 9 -57 14
26 10 165 9 149 -2 -11 -7 -11 -9 2 -14 9 -4 16 -12 16 -18 0 -8 -5 -8 -17 2
-10 7 8 -14 39 -47 56 -58 57 -60 61 -124 3 -65 3 -64 5 15 l2 81 -40 39 c-22
21 -37 41 -35 44 3 2 -2 13 -12 23 -12 14 -33 18 -92 20 l-76 2 75 6 75 6 -70
4 -70 4 70 6 70 6 -67 2 c-61 2 -68 0 -87 -24z m228 -118 c14 -14 22 -28 20
-31 -3 -2 -23 14 -45 36 -21 23 -30 37 -19 31 11 -6 31 -22 44 -36z"/>
<path d="M1200 2201 c0 -12 6 -21 16 -21 9 0 14 7 12 17 -5 25 -28 28 -28 4z"/>
<path d="M1335 2210 c-8 -14 3 -30 21 -30 8 0 14 9 14 20 0 21 -24 28 -35 10z"/>
<path d="M1690 2170 l-75 -6 72 -2 c39 -1 75 3 78 8 3 6 5 9 3 8 -2 -1 -37 -4
-78 -8z"/>
<path d="M1238 2153 c34 -2 88 -2 120 0 31 2 3 3 -63 3 -66 0 -92 -1 -57 -3z"/>
<path d="M650 2139 c-53 -5 -48 -10 14 -13 16 -1 37 -12 48 -25 10 -13 21 -21
25 -17 4 3 22 -8 40 -26 33 -32 33 -32 33 -127 0 -63 3 -91 10 -81 11 18 14
15 27 -30 l11 -35 1 35 c1 25 -5 39 -19 48 -17 10 -20 23 -20 90 l0 78 -57 55
-58 54 -55 -6z"/>
<path d="M1222 2133 c37 -2 100 -2 140 0 40 1 10 3 -67 3 -77 0 -110 -1 -73
-3z"/>
<path d="M1588 2110 c-14 -16 -22 -32 -18 -35 5 -3 17 7 28 22 18 25 26 28 81
28 34 0 61 3 61 7 0 5 -28 8 -63 8 -57 0 -65 -3 -89 -30z"/>
<path d="M2359 2132 c12 -9 9 -12 -15 -17 -47 -11 -52 -16 -11 -11 22 3 35 1
32 -5 -4 -5 -18 -9 -33 -10 -26 0 -26 -1 -5 -11 17 -8 27 -6 49 11 23 18 24
21 8 22 -18 0 -18 1 1 9 11 5 15 9 8 9 -6 1 -20 4 -30 7 -14 5 -15 4 -4 -4z"/>
<path d="M1115 2088 l-30 -33 31 28 c29 26 62 38 49 17 -3 -5 -1 -10 5 -10 7
0 10 6 8 13 -8 23 -34 17 -63 -15z"/>
<path d="M1258 2113 c34 -2 90 -2 125 0 34 2 6 3 -63 3 -69 0 -97 -1 -62 -3z"/>
<path d="M512 2087 c-6 -7 -12 -19 -14 -27 -2 -8 -9 -21 -15 -28 -28 -29 -14
-35 75 -30 l87 5 30 -32 c17 -17 23 -22 15 -11 -8 12 -32 38 -54 59 -32 30
-46 37 -75 35 l-36 -1 37 -4 c51 -6 60 -33 10 -33 -20 0 -47 -3 -59 -6 -14 -4
-23 -2 -23 5 0 6 6 11 14 11 9 0 12 7 9 20 -5 18 0 20 53 20 l59 -1 50 -59
c28 -32 55 -59 62 -59 6 -1 14 -7 16 -13 3 -7 6 -8 6 -3 1 6 -21 33 -49 60
-47 46 -66 82 -37 72 6 -2 11 -9 10 -14 -1 -6 10 -21 24 -34 l26 -24 -17 27
c-10 15 -17 29 -17 32 2 26 -14 33 -77 31 -37 -1 -74 2 -83 6 -11 5 -21 4 -27
-4z"/>
<path d="M1268 2093 c34 -2 88 -2 120 0 31 2 3 3 -63 3 -66 0 -92 -1 -57 -3z"/>
<path d="M1131 2050 c-27 -23 -38 -27 -53 -19 -11 6 -18 6 -18 0 0 -5 9 -13
20 -16 15 -5 32 3 60 29 48 43 40 48 -9 6z"/>
<path d="M2363 2061 c-27 -22 -28 -28 -8 -28 8 0 16 6 19 14 3 7 11 13 18 13
9 0 8 -3 -2 -10 -8 -5 -10 -10 -4 -10 6 0 21 9 34 20 l23 20 -29 0 c-16 -1
-39 -9 -51 -19z"/>
<path d="M1253 2063 c26 -2 67 -2 90 0 23 2 2 3 -48 3 -49 0 -68 -1 -42 -3z"/>
<path d="M1434 2052 c7 -12 -14 -19 -79 -26 -26 -2 -21 -3 17 -3 33 0 63 -5
72 -12 10 -8 16 -9 16 -3 0 6 -5 14 -10 17 -6 4 -8 10 -5 15 3 5 0 12 -6 16
-8 4 -9 3 -5 -4z"/>
<path d="M1179 2043 c-1 -5 -1 -11 0 -15 0 -3 -15 -18 -35 -33 -19 -14 -32
-31 -29 -36 4 -5 -1 -12 -9 -15 -14 -5 -16 -27 -14 -143 l2 -136 3 131 4 132
55 41 c69 51 79 52 30 2 -46 -47 -34 -62 15 -18 19 18 30 29 25 25 -18 -14
-29 -8 -15 8 19 23 21 47 3 40 -8 -3 -14 -1 -14 4 0 5 46 9 102 9 55 0 103 3
106 6 3 3 -47 5 -111 5 -64 0 -118 -3 -118 -7z m-9 -53 c-19 -17 -39 -30 -44
-30 -6 0 5 13 24 30 19 16 40 29 45 29 6 0 -6 -13 -25 -29z"/>
<path d="M2334 2020 c-12 -4 -14 -9 -6 -14 6 -3 26 0 44 8 32 14 32 14 6 13
-15 -1 -34 -4 -44 -7z"/>
<path d="M1293 2003 c26 -2 67 -2 90 0 23 2 2 3 -48 3 -49 0 -68 -1 -42 -3z"/>
<path d="M1792 1964 c-2 -49 -5 -54 -56 -98 -48 -41 -54 -51 -57 -90 -4 -43
-4 -43 18 -29 13 9 20 20 16 26 -3 5 -2 7 4 4 11 -7 53 20 53 34 0 6 -10 3
-22 -5 -12 -9 -27 -16 -33 -16 -5 0 -3 5 5 10 8 5 11 10 7 10 -5 0 10 17 33
38 l41 37 -4 65 c-3 60 -3 61 -5 14z"/>
<path d="M405 1948 c-9 -29 -19 -60 -21 -68 -3 -9 -2 -11 3 -5 13 15 46 115
40 121 -3 3 -13 -19 -22 -48z"/>
<path d="M637 1982 c2 -11 0 -23 -6 -26 -6 -4 -11 -2 -11 3 0 7 -31 12 -77 13
l-78 2 80 6 80 6 -82 2 c-80 2 -81 2 -91 -25 l-9 -28 79 3 c72 3 83 1 104 -19
13 -12 27 -19 31 -16 3 4 2 7 -4 7 -14 0 -25 29 -17 42 9 14 74 -52 67 -69 -3
-7 2 -22 12 -33 10 -11 15 -26 11 -36 -6 -15 -8 -15 -27 2 -11 10 -17 24 -14
31 2 8 1 12 -4 9 -5 -3 -20 5 -32 19 -16 16 -31 22 -46 19 -15 -4 -23 0 -28
15 -5 18 -14 21 -58 19 -42 -1 -45 -2 -15 -5 38 -4 64 -25 53 -43 -3 -5 -35
-10 -71 -10 -56 0 -64 -2 -64 -19 0 -11 -3 -27 -7 -37 -6 -16 -4 -16 19 2 15
10 22 21 17 22 -5 2 -9 7 -9 12 0 4 40 8 90 9 89 0 90 0 114 -32 17 -21 22
-35 15 -43 -6 -7 -4 -16 6 -24 9 -7 14 -19 11 -27 -3 -8 -2 -12 2 -9 7 4 8
-19 3 -43 -1 -2 -8 2 -16 9 -12 10 -15 10 -15 -1 0 -7 -10 -3 -25 11 -27 25
-26 42 1 19 31 -26 59 -18 32 9 -7 7 -8 12 -3 12 4 0 0 9 -10 20 -10 11 -22
17 -27 14 -5 -3 -8 2 -6 12 3 15 -4 17 -57 15 -90 -4 -112 -29 -45 -51 22 -7
42 -21 45 -32 4 -10 11 -18 16 -18 6 0 8 -4 4 -10 -4 -6 -14 -5 -29 1 -17 8
-29 8 -42 -1 -16 -10 -16 -11 -2 -6 19 6 83 -18 93 -34 4 -6 10 -8 15 -5 5 3
26 -15 46 -40 21 -25 42 -45 47 -45 5 0 4 7 -3 15 -11 13 -8 15 13 15 19 0 25
-4 21 -15 -5 -11 -2 -13 10 -9 9 3 16 10 16 14 0 11 53 9 68 -2 18 -16 58 77
42 98 -7 7 -10 25 -8 39 3 13 2 26 -1 27 -3 2 -21 20 -38 41 -30 34 -33 44
-33 102 0 36 -4 65 -8 65 -5 0 -6 -15 -4 -32 l5 -33 -28 28 c-20 20 -31 24
-40 17 -10 -8 -22 0 -48 31 -23 26 -34 34 -30 21z m-59 -29 c-21 -2 -57 -2
-80 0 -24 2 -7 4 37 4 44 0 63 -2 43 -4z m168 -51 c34 -28 37 -49 6 -48 -20 1
-27 6 -27 21 -1 11 -4 26 -8 33 -11 17 4 15 29 -6z m-36 -119 c0 -8 9 -23 20
-35 28 -30 25 -41 -7 -33 -23 5 -26 4 -16 -6 8 -8 32 -12 61 -10 38 2 52 -2
67 -19 15 -17 16 -23 6 -29 -7 -5 -11 -12 -9 -17 1 -5 -28 -9 -67 -10 l-70 -1
65 7 65 7 -61 1 c-33 1 -64 5 -68 9 -10 10 -36 12 -36 3 0 -5 5 -12 10 -15 6
-3 10 -1 10 5 0 6 5 8 11 4 8 -4 7 -9 -2 -15 -16 -10 15 -18 91 -22 50 -3 49
-3 -16 -5 l-71 -2 -66 69 c-37 38 -67 76 -67 85 0 12 -10 16 -35 16 -19 0 -35
5 -35 10 0 6 18 10 40 10 33 0 40 -3 40 -20 0 -20 11 -26 24 -13 12 13 35 11
47 -3 9 -11 9 -14 -1 -14 -10 0 -9 -4 1 -17 7 -10 2 -8 -13 5 -38 34 -45 3 -7
-34 16 -15 29 -24 29 -20 0 5 6 3 14 -3 11 -9 15 -8 21 6 5 10 7 22 6 27 -1 5
6 17 16 28 14 16 15 18 1 13 -11 -5 -19 1 -24 17 -4 13 -7 27 -6 32 2 4 -5 20
-14 35 -16 26 -16 25 15 -3 17 -17 31 -36 31 -43z m52 -3 c8 -12 24 -20 39
-20 15 0 32 -7 39 -15 10 -12 10 -15 0 -15 -10 0 -10 -3 0 -15 9 -11 9 -15 1
-15 -6 0 -14 7 -17 15 -4 8 -16 15 -28 15 -21 0 -52 26 -70 58 -12 21 23 14
36 -8z"/>
<path d="M694 1679 c-10 -16 28 -30 73 -26 l48 3 -55 4 -55 3 65 7 65 6 -68 4
c-38 3 -71 2 -73 -1z"/>
<path d="M1437 1982 c5 -11 3 -13 -8 -7 -8 5 -7 1 4 -12 22 -25 22 -40 0 -22
-9 8 -14 9 -10 2 9 -15 -14 -22 -34 -10 -11 7 -22 6 -35 -2 -17 -10 -16 -11 7
-5 31 7 46 -10 28 -32 -10 -12 -8 -19 9 -37 18 -19 22 -37 25 -117 l3 -95 2
94 c2 85 0 97 -20 118 -12 13 -17 23 -11 23 5 0 17 -8 26 -18 14 -15 17 -51
19 -230 l3 -212 -30 -2 c-16 0 -41 -1 -55 0 -14 1 -19 -1 -12 -4 17 -8 15 -24
-3 -24 -8 0 -15 4 -15 9 0 11 -31 24 -39 16 -3 -4 9 -19 27 -35 18 -15 28 -31
23 -34 -5 -4 -21 5 -35 19 -14 14 -30 25 -36 25 -5 0 -10 5 -10 11 0 5 6 7 13
3 6 -4 9 -3 4 1 -4 5 -17 10 -29 12 -22 3 -22 3 2 -22 15 -16 19 -25 10 -25
-11 0 -11 -3 -2 -12 7 -7 12 -16 12 -20 0 -13 -17 -9 -34 8 -15 14 -16 14 -16
-1 0 -13 -11 -15 -67 -13 -55 2 -68 6 -67 19 1 11 -4 15 -18 11 -20 -5 -19
-29 1 -24 13 3 15 -14 2 -23 -5 -3 -12 -1 -16 5 -4 6 -11 8 -16 4 -5 -3 -7 -9
-4 -14 3 -5 -9 -14 -27 -19 l-33 -9 35 -1 c20 -1 41 4 47 10 8 8 48 11 110 10
l98 -2 38 -37 c21 -21 37 -30 36 -22 0 8 -14 26 -32 40 -27 22 -45 26 -132 31
l-100 6 107 0 c92 1 109 -2 124 -18 9 -11 23 -19 31 -19 7 0 13 -5 13 -12 0
-6 3 -8 6 -5 4 4 1 13 -6 22 -9 11 -9 19 -2 28 12 14 11 35 -1 55 -5 7 -3 12
3 12 6 0 13 -7 16 -15 4 -8 10 -12 16 -9 5 3 1 12 -9 20 -16 12 -16 13 -1 14
9 0 18 5 20 12 3 8 13 2 28 -15 31 -35 38 -34 32 5 -4 26 -2 30 12 25 9 -4 16
-2 16 3 0 6 -7 10 -15 10 -13 0 -15 30 -15 208 l0 209 -25 23 c-30 29 -24 41
7 14 l23 -19 -19 23 c-20 23 -9 31 12 10 10 -10 15 -10 21 0 5 8 12 13 17 12
5 -1 10 4 13 11 2 7 -1 9 -8 5 -7 -4 -20 3 -30 16 -21 25 -19 40 4 32 8 -4 12
-10 9 -15 -3 -5 0 -9 5 -9 23 0 10 26 -18 37 -25 9 -29 8 -24 -5z m-117 -654
c0 -4 8 -4 18 -1 15 6 15 5 3 -11 -13 -16 -16 -15 -43 10 -15 15 -28 32 -28
36 0 11 49 -24 50 -34z"/>
<path d="M970 1973 c0 -14 -2 -15 -9 -4 -8 13 -19 -22 -23 -74 -1 -11 -8 -24
-14 -30 -15 -12 -23 -78 -9 -76 6 1 10 11 9 21 0 11 3 20 7 20 8 0 33 71 34
95 0 6 3 12 6 15 13 10 20 50 10 50 -6 0 -11 -8 -11 -17z"/>
<path d="M1297 1983 c18 -2 50 -2 70 0 21 2 7 4 -32 4 -38 0 -55 -2 -38 -4z"/>
<path d="M1072 1929 c-2 -28 -6 -36 -19 -35 -16 1 -18 -13 -20 -159 -2 -290
-3 -308 -10 -302 -3 4 -6 37 -6 75 l0 67 -6 -65 c-4 -39 -9 -60 -14 -52 -16
24 -100 -38 -90 -67 5 -13 3 -14 -8 -3 -18 17 -32 15 -25 -3 3 -9 0 -15 -9
-15 -8 0 -15 -4 -15 -10 0 -13 13 -13 28 2 8 8 15 8 26 -2 16 -13 13 -30 -5
-30 -6 0 -7 5 -4 10 3 6 2 10 -4 10 -5 0 -11 -5 -13 -12 -6 -17 -38 -2 -38 18
0 10 19 36 43 58 23 23 38 38 32 34 -16 -13 -45 -9 -45 7 0 8 5 15 11 15 5 0
7 -4 4 -10 -12 -20 14 -9 42 18 28 26 29 32 30 112 l1 85 -11 -60 c-11 -65
-25 -84 -44 -58 -14 18 -14 19 -17 -39 -1 -17 3 -28 11 -28 7 0 13 7 13 15 0
8 -4 15 -10 15 -22 0 -8 15 15 16 15 1 25 -3 25 -12 0 -22 -37 -53 -57 -48
-16 4 -29 -27 -97 -238 -44 -134 -81 -248 -84 -255 -4 -13 17 -14 160 -6 77 5
87 7 79 22 -13 26 -7 136 8 133 7 -1 22 4 34 13 21 14 20 15 -21 15 l-42 0 0
-66 c0 -55 -3 -65 -15 -60 -11 4 -15 -1 -15 -19 0 -14 -4 -25 -10 -25 -6 0
-10 35 -10 84 0 81 1 85 28 105 16 11 48 21 73 24 l44 4 -52 1 c-28 1 -55 -2
-58 -8 -3 -5 -11 -10 -17 -10 -7 0 -6 5 2 15 6 8 35 16 63 18 46 4 44 4 -9 3
-36 -1 -61 2 -61 9 0 6 39 9 108 8 60 -1 111 2 114 8 4 5 -2 6 -12 2 -16 -6
-16 -5 -4 10 10 13 30 17 89 17 64 0 80 -3 101 -22 l26 -23 -25 28 c-23 27
-27 28 -115 25 -65 -2 -89 -6 -88 -15 4 -19 -40 -26 -123 -21 l-74 5 -33 -37
c-19 -20 -40 -34 -48 -32 -11 3 -11 1 1 -7 13 -9 13 -11 -2 -11 -10 0 -18 7
-18 15 0 8 4 15 9 15 14 0 71 50 71 62 0 6 -8 4 -18 -5 -25 -23 -32 -21 -32 9
0 14 4 23 9 20 4 -3 17 1 27 9 18 13 18 14 -3 8 -14 -3 -23 -1 -23 6 0 6 12
11 28 12 75 2 92 10 73 33 -14 16 -3 44 30 79 14 16 21 17 32 9 8 -7 17 -9 20
-5 4 3 7 1 7 -6 0 -7 6 -11 14 -8 8 3 19 0 26 -7 6 -8 26 -13 45 -11 19 1 35
-2 35 -8 0 -5 -7 -7 -15 -4 -8 4 -17 2 -20 -3 -4 -6 3 -10 15 -10 11 0 23 7
26 15 4 8 10 12 15 9 5 -3 9 0 9 7 0 8 4 8 15 -1 8 -7 12 -16 9 -21 -3 -5 0
-9 5 -9 16 0 13 37 -2 43 -7 3 -39 3 -72 0 -41 -3 -60 -1 -66 9 -12 19 -11
131 1 123 6 -4 9 10 8 35 -1 25 -4 36 -10 28 -4 -7 -8 52 -8 132 0 95 4 140
10 130 15 -25 32 3 27 46 l-4 39 -1 -36z m-196 -704 c-1 -8 -13 -26 -25 -39
-22 -23 -24 -34 -22 -109 2 -77 1 -83 -18 -84 -22 -2 -29 21 -11 32 14 8 13
105 -1 105 -7 0 -10 -19 -7 -52 3 -46 0 -53 -17 -56 -17 -4 -18 -2 -6 12 8 9
10 20 6 24 -4 4 -10 1 -12 -5 -6 -18 -23 -16 -23 2 0 8 9 15 20 15 23 0 27 18
5 26 -8 4 -15 11 -15 16 0 6 7 8 15 4 8 -3 15 -2 15 3 0 8 89 121 95 121 2 0
2 -7 1 -15z m-7 -51 c-9 -11 -13 -45 -12 -107 1 -77 0 -85 -7 -47 -13 67 -12
144 2 158 18 18 33 15 17 -4z"/>
<path d="M1246 1928 c-12 -29 -85 -246 -146 -440 l-9 -27 67 6 c78 7 87 11 44
19 -28 6 -29 8 -21 33 9 26 8 56 -3 66 -3 3 -8 -5 -10 -19 -3 -14 -1 -23 3
-20 5 3 9 0 9 -5 0 -6 -5 -11 -11 -11 -5 0 -7 -5 -3 -12 4 -7 3 -8 -5 -4 -7 4
-15 -2 -20 -16 -6 -13 -10 -19 -10 -14 -1 12 73 260 100 336 11 30 22 62 25
70 5 13 6 13 13 0 18 -33 133 -392 127 -397 -3 -4 -6 0 -6 8 0 12 -2 11 -10
-1 -8 -12 -12 -13 -19 -2 -7 11 -9 11 -14 -2 -6 -15 -1 -18 56 -30 19 -5 27
-2 27 7 0 16 -146 451 -159 475 -8 14 -12 11 -25 -20z"/>
<path d="M1295 1954 c48 -8 115 -9 115 -2 0 5 -30 7 -67 7 -38 -1 -59 -3 -48
-5z"/>
<path d="M1554 1932 c23 -81 41 -132 46 -132 4 0 5 12 3 28 -4 21 -2 24 6 12
9 -12 10 -10 9 12 -2 20 -5 24 -15 16 -10 -8 -14 -1 -19 30 -3 23 -13 43 -21
46 -10 4 -13 1 -9 -12z"/>
<path d="M1121 1926 c-8 -9 -11 -50 -8 -122 l3 -109 2 111 c1 69 6 114 14 122
7 7 9 12 6 12 -3 0 -11 -6 -17 -14z"/>
<path d="M1134 1810 c0 -58 1 -81 3 -52 2 28 2 76 0 105 -2 28 -3 5 -3 -53z"/>
<path d="M1157 1903 c-4 -3 -7 -15 -7 -25 0 -27 23 -17 25 10 2 22 -6 28 -18
15z"/>
<path d="M1483 1830 c0 -36 2 -50 4 -32 2 17 2 47 0 65 -2 17 -4 3 -4 -33z"/>
<path d="M1930 1426 c0 -250 3 -461 6 -470 5 -14 28 -16 150 -16 86 0 144 4
144 10 0 6 -55 8 -141 7 l-141 -2 4 312 c2 188 -1 309 -6 305 -6 -3 -6 2 0 14
8 17 10 123 4 199 -1 17 -2 42 -1 58 l1 27 134 0 134 0 1 -447 c0 -245 3 -449
6 -451 3 -3 5 200 5 451 l0 457 -150 0 -150 0 0 -454z"/>
<path d="M1014 1735 c0 -77 2 -107 3 -67 2 40 2 103 0 140 -2 37 -3 4 -3 -73z"/>
<path d="M1256 1852 c-6 -17 -1 -38 16 -70 29 -59 27 -56 33 -50 3 2 -6 36
-19 74 -19 59 -24 66 -30 46z"/>
<path d="M1464 1680 c0 -107 2 -151 3 -97 2 53 2 141 0 195 -1 53 -3 9 -3 -98z"/>
<path d="M377 1846 c-11 -27 -29 -174 -24 -192 3 -11 5 -4 6 16 1 19 8 69 16
110 13 73 13 96 2 66z"/>
<path d="M1343 1834 c-8 -21 13 -42 28 -27 13 13 5 43 -11 43 -6 0 -13 -7 -17
-16z"/>
<path d="M1975 1410 c0 -245 1 -345 2 -223 2 123 2 323 0 445 -1 123 -2 23 -2
-222z"/>
<path d="M472 1828 c3 -9 27 -13 69 -14 l64 -1 -65 7 -65 7 63 1 c64 2 108
-11 97 -29 -4 -5 -1 -9 4 -9 17 0 13 15 -7 33 -23 21 -166 25 -160 5z"/>
<path d="M2167 1833 c-4 -3 -7 -81 -7 -171 0 -91 -3 -162 -7 -159 -3 4 -17 -3
-30 -15 -22 -20 -23 -28 -23 -158 l0 -136 -29 -28 c-24 -23 -29 -25 -35 -11
-10 26 -7 55 5 55 7 0 9 -10 5 -27 l-6 -28 25 28 c16 18 25 39 24 60 l-1 32
-10 -27 c-10 -28 -31 -37 -43 -17 -4 6 2 13 14 16 21 5 26 14 14 26 -3 4 -13
1 -22 -5 -9 -7 -1 4 17 23 32 35 41 63 22 74 -5 3 -10 -2 -10 -13 0 -10 -11
-29 -25 -42 -24 -23 -25 -27 -27 -174 -1 -100 -3 -132 -7 -96 l-7 55 -4 -58
-5 -57 36 0 c36 0 60 22 39 35 -6 4 -10 -1 -10 -9 0 -9 -7 -16 -15 -16 -12 0
-15 15 -15 71 0 41 4 68 9 64 6 -3 25 8 44 25 l35 30 -4 138 c-1 75 1 144 6
152 9 13 10 13 10 0 1 -12 3 -11 11 3 6 9 14 15 18 13 4 -3 9 3 11 12 3 18 8
342 5 342 -1 0 -5 -3 -8 -7z"/>
<path d="M2054 1735 c0 -55 1 -76 3 -47 2 29 2 74 0 100 -2 26 -3 2 -3 -53z"/>
<path d="M2140 1807 c0 -7 -9 -23 -20 -35 -21 -22 -14 -32 8 -10 9 9 10 -4 6
-58 -5 -51 -12 -75 -29 -94 -26 -29 -39 -60 -25 -60 6 0 10 7 10 15 0 20 13
19 33 -3 16 -17 15 -20 -13 -47 -17 -16 -30 -33 -30 -39 0 -5 15 5 34 23 34
33 44 71 18 71 -10 0 -10 4 2 16 13 12 16 39 16 125 0 60 -2 109 -5 109 -3 0
-5 -6 -5 -13z"/>
<path d="M1728 1735 c-54 -49 -56 -54 -29 -52 11 0 19 4 18 7 -3 8 42 50 54
50 5 0 7 5 4 10 -4 6 10 10 35 10 25 0 39 4 35 10 -3 6 -21 10 -38 10 -24 0
-44 -12 -79 -45z"/>
<path d="M396 1718 c-13 -112 -16 -107 71 -110 63 -2 77 -6 79 -20 2 -13 -4
-16 -24 -14 -15 2 -19 1 -10 -1 9 -2 48 -38 87 -79 68 -71 73 -74 113 -72 l43
1 -40 4 c-22 3 -43 8 -47 11 -4 4 12 6 35 4 45 -5 88 -36 62 -45 -8 -4 -12
-17 -11 -32 2 -14 -1 -28 -6 -31 -5 -3 -7 -12 -4 -19 3 -8 1 -15 -5 -17 -5 -2
-12 -21 -16 -43 -3 -22 -3 -37 0 -34 11 9 86 229 79 229 -31 2 -131 11 -145
13 -20 4 -97 76 -97 91 0 5 15 -4 33 -21 17 -17 40 -29 50 -28 9 2 24 -6 32
-18 8 -12 15 -16 15 -10 0 6 -24 36 -53 67 -50 53 -52 61 -17 56 8 -1 -1 12
-20 29 -19 17 -39 30 -45 30 -5 1 -3 -4 5 -9 12 -8 12 -10 -5 -10 -15 0 -17
-2 -6 -9 7 -5 9 -10 5 -12 -18 -8 -159 6 -159 16 0 6 25 13 55 16 l55 6 -52 1
c-54 2 -75 21 -25 23 24 2 25 2 4 6 -21 4 -24 9 -20 44 5 59 -8 47 -16 -13z
m195 -95 c8 -9 9 -14 2 -10 -6 4 -13 1 -16 -5 -3 -7 13 -32 36 -55 26 -27 34
-41 23 -39 -9 1 -28 14 -42 29 -14 15 -29 25 -33 23 -4 -3 -7 7 -6 21 0 15 6
28 13 31 7 2 10 8 6 13 -9 15 3 10 17 -8z"/>
<path d="M1053 1710 c0 -36 2 -50 4 -32 2 17 2 47 0 65 -2 17 -4 3 -4 -33z"/>
<path d="M1540 1769 c-1 -2 -4 -75 -7 -161 -4 -108 -2 -158 5 -158 7 0 9 35 6
108 -4 73 -2 102 4 93 7 -10 9 5 5 50 -5 53 -11 87 -13 68z"/>
<path d="M980 1736 c0 -8 -7 -16 -15 -20 -8 -3 -14 -13 -14 -23 1 -17 2 -17 6
0 3 10 10 16 16 14 8 -2 14 -44 18 -118 l6 -114 0 138 c0 75 -4 137 -8 137 -5
0 -9 -6 -9 -14z"/>
<path d="M1487 1573 c4 -128 2 -183 -6 -183 -6 0 -8 -11 -5 -29 9 -43 -11 -46
-43 -6 -32 39 -44 45 -36 15 3 -11 12 -20 19 -20 8 0 19 -9 26 -20 7 -11 18
-20 25 -20 6 0 15 9 18 20 7 22 25 27 26 8 5 -88 19 -97 19 -12 -1 59 -2 67
-14 52 -7 -10 -15 -18 -17 -18 -2 0 -3 46 -1 102 1 57 -2 146 -7 198 -8 80 -9
65 -4 -87z"/>
<path d="M1566 1731 c-5 -7 -3 -18 3 -24 6 -6 11 -30 11 -54 0 -30 4 -43 14
-43 8 0 19 -13 25 -30 5 -16 13 -30 17 -30 3 0 3 8 -1 18 -4 9 -20 53 -35 96
-17 50 -29 75 -34 67z"/>
<path d="M2112 1692 c-2 -44 -6 -54 -24 -61 -12 -4 -17 -11 -11 -14 22 -14 44
29 40 79 l-3 49 -2 -53z"/>
<path d="M2393 1727 c-3 -5 -16 -6 -29 -3 -13 4 -24 2 -24 -2 0 -14 79 -22
206 -22 102 0 114 2 114 18 0 15 -13 17 -131 17 -72 0 -133 -4 -136 -8z m214
-14 c-20 -2 -52 -2 -70 0 -17 2 0 4 38 4 39 0 53 -2 32 -4z"/>
<path d="M1640 1689 c0 -19 42 -130 47 -125 3 2 1 15 -3 28 -4 13 -7 27 -6 32
4 14 -19 76 -29 76 -5 0 -9 -5 -9 -11z"/>
<path d="M970 1589 c0 -85 -3 -104 -17 -116 -16 -13 -16 -13 5 -3 21 10 22 17
22 115 0 58 -2 105 -5 105 -3 0 -5 -46 -5 -101z"/>
<path d="M2772 1593 c-5 -242 -78 -484 -210 -688 -58 -89 -246 -277 -337 -337
-209 -136 -446 -208 -684 -208 -446 0 -822 198 -1059 560 -31 47 -58 87 -59
89 -2 2 -5 2 -7 0 -6 -6 45 -112 58 -121 6 -4 7 -8 3 -8 -9 0 -4 -6 49 -65 20
-22 48 -56 62 -75 15 -19 34 -40 42 -46 8 -7 29 -25 46 -40 16 -16 48 -42 69
-59 21 -16 44 -36 51 -42 7 -7 15 -13 17 -13 3 0 29 -16 58 -35 30 -19 58 -35
63 -35 4 0 35 -14 68 -30 32 -17 67 -30 78 -30 10 0 21 -4 24 -9 4 -5 24 -12
46 -16 25 -4 38 -11 33 -17 -3 -7 -1 -8 5 -4 6 3 44 -1 84 -11 89 -22 409 -26
429 -6 8 8 19 9 35 3 13 -5 26 -6 28 -1 3 5 27 11 54 15 26 3 72 15 102 27 30
11 62 21 70 21 8 1 21 6 29 11 7 6 19 12 26 13 21 3 173 88 232 130 79 56 210
186 274 273 29 41 54 77 54 80 1 3 15 28 33 55 18 28 32 58 32 68 0 10 4 18 8
18 9 0 21 31 56 155 22 75 26 97 30 153 0 12 4 22 8 22 4 0 7 8 7 18 0 9 2 53
4 97 1 44 0 103 -4 130 -5 42 -6 35 -7 -42z"/>
<path d="M2388 1663 c46 -2 118 -2 160 0 42 1 5 3 -83 3 -88 0 -123 -2 -77 -3z"/>
<path d="M2018 1614 c0 -27 0 -59 1 -71 1 -15 -4 -23 -14 -23 -8 0 -15 -7 -15
-16 0 -15 2 -15 22 -2 19 13 21 22 19 84 -3 81 -10 98 -13 28z"/>
<path d="M1512 1533 c-1 -67 1 -124 6 -126 4 -3 6 38 4 91 -4 153 -9 168 -10
35z"/>
<path d="M1775 1596 c-11 -6 -21 -18 -23 -26 -3 -11 1 -10 16 3 11 10 35 17
60 17 23 0 42 4 42 9 0 13 -71 10 -95 -3z"/>
<path d="M2050 1556 c0 -46 -3 -56 -25 -70 -27 -18 -33 -43 -11 -43 8 0 14 5
13 10 -1 5 4 12 11 14 17 6 15 -22 -2 -37 -8 -6 -12 -18 -9 -26 3 -8 1 -14 -5
-14 -6 0 -13 6 -15 13 -3 6 -6 -3 -6 -20 l-1 -33 30 32 c28 29 30 35 30 114 0
45 3 89 6 98 3 9 1 16 -5 16 -7 0 -11 -21 -11 -54z"/>
<path d="M386 1513 c3 -49 7 -101 8 -117 1 -16 8 -32 15 -34 9 -3 11 0 6 8 -5
8 -9 46 -10 85 -1 40 -5 77 -9 83 -4 7 -1 12 6 12 9 0 9 3 -2 10 -9 6 -11 10
-3 10 7 0 10 7 7 15 -16 40 -24 7 -18 -72z"/>
<path d="M640 1583 c1 -4 13 -22 28 -39 24 -28 35 -32 89 -36 57 -4 62 -3 73
20 14 31 3 43 -16 17 -13 -17 -16 -18 -24 -5 -8 12 -12 12 -18 2 -5 -7 -16
-10 -25 -6 -9 3 -17 2 -17 -4 0 -19 -26 -7 -58 26 -18 18 -32 29 -32 25z"/>
<path d="M1771 1536 c-15 -16 -29 -22 -46 -19 l-24 5 14 -53 c11 -49 86 -272
151 -455 14 -39 31 -71 39 -71 10 0 10 7 -2 34 -7 19 -11 38 -9 42 3 4 -3 17
-12 27 -10 10 -18 30 -18 44 0 14 -3 30 -6 35 -5 9 -36 87 -74 188 -8 20 -14
46 -14 57 0 11 -4 20 -9 20 -4 0 -13 27 -18 59 -5 33 -7 59 -4 58 3 0 21 7 40
17 19 10 52 20 75 23 60 7 57 13 -6 13 -44 0 -59 -4 -77 -24z"/>
<path d="M1580 1504 c0 -27 5 -56 11 -64 7 -11 8 3 3 45 -8 75 -14 83 -14 19z"/>
<path d="M430 1529 c0 -5 18 -9 41 -9 45 0 112 -27 103 -41 -3 -5 0 -9 6 -9 6
0 8 -4 5 -10 -3 -5 -2 -10 4 -10 9 0 71 -57 71 -66 0 -5 -30 1 -60 13 -39 16
-90 23 -90 13 0 -4 -8 -11 -17 -13 -10 -3 10 -5 43 -6 40 -1 66 -6 74 -15 6
-8 24 -16 38 -18 21 -2 30 -11 38 -38 9 -28 12 -31 16 -15 5 26 -11 75 -25 76
-7 1 4 5 23 9 l35 7 -31 2 c-25 1 -46 15 -100 71 l-67 70 -54 -1 c-29 -1 -53
-6 -53 -10z"/>
<path d="M1063 1515 c-7 -8 -13 -27 -12 -42 1 -28 1 -28 10 5 5 17 14 32 19
32 6 0 10 5 10 10 0 14 -13 12 -27 -5z"/>
<path d="M710 1483 c0 -8 11 -11 31 -8 44 5 46 12 5 17 -24 3 -36 0 -36 -9z"/>
<path d="M1606 1423 c-3 -21 -6 -63 -6 -94 0 -48 4 -59 30 -84 17 -16 30 -25
30 -21 0 5 9 -3 21 -18 20 -26 19 -46 -4 -46 -7 0 -35 23 -64 51 l-52 50 -4
82 -3 82 -2 -85 -2 -86 63 -61 c58 -57 65 -62 115 -65 32 -2 51 1 49 7 -2 6
-17 10 -33 10 -20 1 -30 6 -33 20 -3 17 -1 17 12 6 9 -7 23 -11 32 -9 15 3 14
7 -6 32 -16 20 -19 31 -11 34 7 2 12 9 12 15 0 8 -4 7 -12 -1 -20 -20 -36 -14
-62 25 -18 26 -22 40 -15 49 7 8 5 24 -6 49 -18 44 -19 55 -5 55 6 0 10 -9 10
-21 0 -11 4 -18 10 -14 14 9 -10 54 -26 48 -17 -6 -19 -60 -2 -65 7 -3 9 -12
4 -23 -6 -16 -9 -17 -16 -5 -8 12 -10 9 -10 -10 0 -17 20 -43 66 -88 36 -35
63 -67 59 -70 -3 -3 -35 23 -71 59 l-65 64 6 83 c6 86 2 108 -9 45z"/>
<path d="M2438 1443 c17 -2 47 -2 65 0 17 2 3 4 -33 4 -36 0 -50 -2 -32 -4z"/>
<path d="M772 1283 c-27 -82 -64 -191 -80 -243 l-30 -95 146 -3 c80 -1 149 1
153 5 13 14 38 112 29 118 -4 3 -14 -21 -22 -53 -10 -42 -18 -57 -31 -56 -9 0
-71 1 -136 2 l-119 2 25 83 c13 45 47 149 73 232 27 82 48 150 46 152 -2 2
-26 -63 -54 -144z"/>
<path d="M1572 1351 l-2 -85 50 -46 c28 -26 52 -45 54 -43 2 2 -18 25 -45 50
l-48 45 -4 82 -3 81 -2 -84z"/>
<path d="M2407 1423 c18 -2 50 -2 70 0 21 2 7 4 -32 4 -38 0 -55 -2 -38 -4z"/>
<path d="M2417 1398 c2 -5 21 -8 42 -8 20 0 42 -5 47 -10 7 -7 11 -6 11 4 0
10 -15 15 -53 18 -29 2 -50 0 -47 -4z"/>
<path d="M2024 1348 c-17 -18 -31 -44 -32 -57 -1 -23 1 -22 19 9 11 18 27 39
35 47 12 13 19 33 11 33 -2 0 -17 -15 -33 -32z"/>
<path d="M2320 1370 c-34 -7 -34 -7 13 -9 30 0 46 3 42 9 -3 6 -9 9 -13 9 -4
-1 -23 -5 -42 -9z"/>
<path d="M435 1360 c-3 -6 1 -7 9 -4 9 3 16 2 16 -3 0 -5 29 -8 65 -7 43 2 67
-1 72 -9 10 -16 63 -50 69 -44 3 2 -15 21 -40 41 -42 34 -49 36 -115 36 -38 0
-73 -4 -76 -10z"/>
<path d="M2138 1303 c0 -38 0 -75 0 -83 4 -31 -9 -80 -19 -74 -6 3 -19 -2 -30
-12 -14 -13 -16 -19 -7 -25 7 -4 18 -3 25 2 8 7 18 7 32 -1 25 -13 25 -18 6
-44 -8 -11 -15 -27 -15 -35 1 -10 7 -4 16 12 8 15 19 25 23 23 8 -5 13 48 15
149 1 43 -2 50 -17 48 -16 -1 -18 6 -15 53 1 30 0 54 -4 54 -5 0 -9 -30 -10
-67z m36 -71 c-1 -7 -2 -40 -3 -74 -1 -57 -3 -61 -16 -44 -11 15 -12 23 -3 33
6 8 8 31 4 59 -4 34 -3 45 7 41 6 -2 12 -9 11 -15z"/>
<path d="M2404 1363 c5 -10 -10 -13 -61 -15 l-68 -2 65 -3 c42 -3 72 -10 85
-21 19 -17 20 -16 3 3 -9 11 -17 24 -16 28 0 5 -4 12 -8 15 -4 4 -4 1 0 -5z"/>
<path d="M400 1346 c0 -2 7 -19 15 -37 l14 -34 1 31 c0 19 -6 34 -15 38 -8 3
-15 4 -15 2z"/>
<path d="M1700 1315 c10 -12 10 -18 0 -30 -6 -8 -9 -19 -5 -25 13 -20 23 -9
21 23 -4 46 -5 47 -17 47 -8 0 -8 -5 1 -15z"/>
<path d="M2350 1321 c30 -3 54 -10 52 -14 -2 -5 14 -22 34 -38 34 -27 43 -29
113 -27 l76 1 -75 6 c-57 5 -83 12 -110 31 -20 14 -35 30 -35 35 0 6 -25 11
-55 11 l-55 1 55 -6z"/>
<path d="M540 1290 c0 -5 -6 -10 -14 -10 -8 0 -16 -7 -20 -15 -3 -8 -12 -15
-21 -15 -8 0 -15 -4 -15 -10 0 -5 15 -10 34 -10 28 0 35 4 40 25 4 14 10 24
14 24 18 -3 32 2 32 11 0 6 -11 10 -25 10 -14 0 -25 -4 -25 -10z"/>
<path d="M2360 1294 c0 -4 8 -13 18 -20 14 -11 11 -12 -27 -7 -32 4 -42 3 -37
-5 4 -7 21 -12 37 -12 20 0 28 -4 23 -12 -4 -6 -3 -8 3 -5 5 4 20 -3 33 -15
18 -17 38 -23 79 -25 31 -1 61 -2 68 -2 6 -1 14 -9 16 -18 3 -13 5 -12 6 5 0
13 5 21 10 17 5 -3 12 -1 16 5 4 6 -23 10 -75 10 -67 0 -87 4 -112 21 -16 12
-27 23 -24 26 3 3 18 -4 34 -16 25 -18 43 -21 109 -19 l78 1 -80 6 c-72 5 -86
10 -122 39 -41 32 -53 38 -53 26z"/>
<path d="M596 1252 c-7 -22 -65 -44 -109 -42 -47 3 -49 2 -36 -21 6 -13 14
-17 18 -11 3 5 29 11 56 13 65 3 75 7 68 26 -4 10 -2 14 4 10 6 -4 11 3 11 18
0 30 -4 32 -12 7z"/>
<path d="M690 1230 c-2 -14 -2 -35 -1 -47 1 -17 -4 -23 -19 -23 -23 0 -24 4
-10 30 8 16 8 18 -5 14 -8 -4 -15 -15 -15 -25 0 -10 -4 -19 -10 -19 -5 0 -10
-4 -10 -10 0 -5 8 -6 17 -3 12 5 15 2 10 -10 -7 -18 18 -24 38 -9 17 12 34 59
25 68 -5 5 -10 20 -13 34 l-4 25 -3 -25z"/>
<path d="M1535 1230 c11 -13 32 -35 48 -48 l27 -24 -22 -18 c-12 -10 -28 -15
-35 -13 -8 3 -11 0 -8 -8 3 -8 16 -14 29 -14 18 0 22 3 15 12 -7 8 -4 15 10
23 20 10 25 7 22 -13 -1 -5 3 -6 8 -3 5 4 12 2 16 -4 3 -5 16 -15 28 -21 21
-10 -51 63 -123 126 -28 24 -31 25 -15 5z"/>
<path d="M1020 1193 c-5 -21 -12 -56 -15 -78 -4 -33 -2 -30 15 23 l21 62 225
0 224 0 11 -27 c6 -16 12 -41 15 -58 2 -20 -2 -14 -13 18 l-17 47 -188 2
c-103 1 -202 2 -219 2 l-32 1 -34 -119 c-18 -65 -32 -121 -29 -123 2 -2 15 36
30 84 15 48 33 99 41 113 l14 25 173 2 c186 3 238 -6 238 -38 0 -10 5 -19 11
-19 6 0 9 -7 5 -15 -3 -8 -2 -15 3 -15 16 0 41 -80 35 -108 -4 -18 -3 -23 4
-14 7 11 10 11 15 -2 5 -14 29 -16 162 -16 141 0 155 2 155 18 0 9 -4 13 -8 7
-4 -6 -65 -10 -147 -10 l-140 0 -12 29 c-7 15 -13 36 -13 46 0 10 -7 25 -15
34 -8 8 -12 21 -9 30 3 8 -1 39 -10 68 l-15 53 -208 0 c-114 0 -220 3 -235 8
-25 7 -28 4 -38 -30z"/>
<path d="M2357 1213 c-11 -11 -8 -25 4 -17 6 3 30 -14 52 -38 23 -25 36 -37
30 -28 -7 9 -13 19 -13 23 0 7 -57 67 -63 67 -2 0 -7 -3 -10 -7z"/>
<path d="M906 1168 c-18 -26 -23 -123 -6 -113 7 4 8 23 5 49 -8 49 5 65 63 77
l37 7 -42 1 c-33 1 -45 -4 -57 -21z"/>
<path d="M2290 1175 c0 -9 7 -18 15 -21 8 -4 15 -13 15 -20 0 -8 7 -17 16 -21
14 -5 36 -44 38 -68 1 -5 -12 -13 -29 -16 -26 -5 -23 -7 16 -8 25 0 48 -4 52
-7 10 -11 96 -14 102 -4 4 6 -12 10 -38 10 -34 0 -49 6 -70 28 -15 15 -27 37
-27 48 0 10 -10 24 -22 29 -13 6 -29 22 -36 38 -14 29 -32 36 -32 12z"/>
<path d="M2349 1148 c7 -10 20 -18 27 -18 8 0 14 -11 15 -27 1 -17 3 -21 6
-10 5 20 17 22 35 5 9 -9 32 -11 73 -7 l60 6 -61 1 c-51 2 -64 6 -84 27 -13
14 -30 23 -38 20 -8 -3 -22 0 -31 7 -14 12 -14 11 -2 -4z"/>
<path d="M2544 1132 c3 -5 -11 -9 -31 -10 -20 -1 -38 -4 -42 -7 -3 -4 16 -5
43 -3 28 2 51 8 54 16 2 6 -4 12 -13 12 -9 0 -14 -4 -11 -8z"/>
<path d="M490 1105 c0 -11 34 -75 40 -75 4 0 12 11 18 25 16 34 58 34 74 0 19
-42 -24 -74 -52 -40 -10 12 -16 13 -27 4 -11 -10 -11 -15 3 -30 9 -10 20 -16
25 -13 5 2 17 -4 29 -16 11 -11 20 -17 20 -12 0 4 4 1 9 -6 7 -11 9 -11 14 2
4 10 1 16 -8 16 -18 0 -15 35 5 53 10 9 11 9 6 0 -4 -7 -3 -13 2 -13 17 0 21
28 9 54 -7 14 -16 26 -20 26 -5 0 -5 5 -2 10 4 6 -15 10 -50 10 -35 0 -54 -4
-50 -10 3 -5 -1 -10 -10 -10 -9 0 -14 4 -11 9 3 5 -1 11 -9 15 -8 3 -15 3 -15
1z"/>
<path d="M1711 1094 c-12 -9 -28 -14 -35 -11 -10 4 -12 -7 -8 -46 3 -37 1 -49
-6 -42 -6 6 -13 27 -15 49 -2 22 -11 42 -20 48 -15 8 -17 2 -17 -46 0 -34 -5
-56 -12 -59 -7 -3 -2 -6 12 -8 27 -2 224 2 227 5 1 1 -2 8 -8 16 -7 13 -10 13
-18 1 -7 -11 -9 -11 -14 0 -5 12 -7 11 -16 -1 -5 -8 -12 -12 -15 -9 -3 3 2 14
12 24 18 19 19 75 1 75 -5 0 -6 -6 -3 -14 4 -11 -4 -16 -33 -18 -40 -3 -48
-16 -30 -51 7 -15 5 -18 -9 -15 -12 2 -17 13 -18 41 -1 36 0 37 37 37 38 0 47
10 24 28 -10 9 -19 7 -36 -4z m62 -50 c7 -7 -22 -54 -33 -54 -12 0 -23 38 -15
50 7 11 38 14 48 4z"/>
<path d="M2417 1077 c-9 -25 15 -37 73 -35 l55 2 -47 3 c-33 3 -52 10 -62 24
-11 16 -15 17 -19 6z"/>
<path d="M2165 1000 c-3 -5 -21 -8 -41 -6 -19 1 -37 -1 -39 -5 -7 -10 109 -18
120 -8 5 5 0 9 -14 9 -12 0 -19 4 -16 10 3 6 4 10 1 10 -3 0 -7 -4 -11 -10z"/>
<path d="M1246 963 c-3 -21 -6 -109 -6 -195 l0 -158 25 0 c14 0 26 -6 26 -12
1 -7 3 -23 4 -35 1 -13 -2 -23 -7 -23 -6 0 -8 7 -5 15 4 8 1 17 -4 21 -7 4
-10 -3 -9 -17 3 -36 -1 -66 -7 -51 -2 6 -11 12 -18 12 -8 0 -17 5 -21 12 -5 8
-2 9 9 5 14 -5 15 -3 4 13 -11 18 -12 18 -18 3 -3 -9 -8 -12 -11 -7 -4 5 0 26
7 46 8 24 11 77 10 145 -2 60 -4 141 -4 181 -1 39 -5 72 -10 72 -5 0 -10 -64
-10 -142 -2 -141 -2 -143 -28 -164 -24 -19 -26 -26 -24 -92 2 -65 -9 -93 -22
-59 -4 7 -6 6 -6 -4 -1 -15 18 -29 37 -29 4 0 6 31 5 69 -2 51 1 72 12 81 12
10 18 10 29 1 12 -10 12 -16 0 -39 -17 -33 -18 -50 -1 -85 7 -16 20 -27 32
-27 15 0 17 -2 7 -9 -10 -6 -3 -10 23 -15 20 -4 40 -5 43 -2 3 3 -5 6 -17 6
-17 0 -22 4 -17 16 3 9 6 21 6 27 0 7 4 6 10 -3 8 -13 9 -13 14 0 19 62 10
108 -24 117 -11 3 -20 11 -20 19 0 25 42 -1 74 -45 23 -32 31 -53 31 -89 0
-26 -4 -50 -10 -54 -6 -5 -3 -8 8 -8 14 0 17 10 19 63 l2 62 6 -70 6 -70 2 73
c2 53 -1 72 -11 72 -7 0 -37 24 -66 54 l-53 54 3 148 c3 102 1 148 -7 151 -6
2 -14 -13 -18 -34z"/>
<path d="M1302 858 c3 -126 5 -143 20 -142 9 1 14 -4 12 -11 -7 -16 -33 -13
-45 6 -5 8 -9 9 -9 4 0 -6 20 -31 45 -55 25 -24 45 -40 45 -36 0 5 9 1 20 -9
15 -13 20 -34 23 -89 l4 -71 -1 77 c-1 97 12 88 17 -12 l3 -75 2 81 c2 74 0
82 -23 104 -13 12 -22 27 -19 31 2 5 20 -9 39 -30 32 -35 34 -43 38 -117 l3
-79 2 83 2 83 -57 60 c-31 32 -58 57 -61 54 -3 -3 -14 3 -25 12 -15 13 -18 14
-12 3 4 -8 5 -12 1 -8 -5 4 -7 65 -7 137 1 83 -2 132 -9 136 -7 5 -10 -36 -8
-137z m84 -169 c24 -26 0 -32 -25 -5 -16 17 -18 23 -6 23 8 0 22 -8 31 -18z
m-9 -43 c21 -22 29 -33 17 -23 -11 9 -23 15 -26 12 -2 -3 -17 8 -32 23 -18 20
-22 29 -12 29 9 0 32 -19 53 -41z"/>
<path d="M2320 990 c20 -13 47 -13 55 0 4 6 -9 10 -32 10 -28 0 -34 -3 -23
-10z"/>
<path d="M1351 883 c0 -57 3 -103 7 -103 5 0 7 39 5 88 -6 126 -11 132 -12 15z"/>
<path d="M2296 962 c-3 -5 16 -9 41 -11 26 -1 52 -5 57 -8 6 -4 5 1 -3 10 -14
18 -85 24 -95 9z"/>
<path d="M685 921 c35 -8 274 -5 283 3 3 3 -66 6 -154 5 -87 -1 -145 -4 -129
-8z"/>
<path d="M1148 914 c-3 -12 -4 -41 -2 -64 4 -41 3 -42 -13 -27 -13 11 -23 13
-36 6 -22 -13 -22 -33 1 -50 15 -13 16 -12 3 4 -10 13 -11 21 -3 29 13 13 43
3 40 -13 -2 -6 3 -14 10 -16 6 -3 12 1 13 9 5 63 5 97 -1 118 -6 24 -6 24 -12
4z"/>
<path d="M1562 925 c8 -8 294 -12 314 -4 10 4 -57 8 -150 8 -93 1 -167 -1
-164 -4z"/>
<path d="M2430 911 c0 -7 -7 -11 -15 -8 -8 4 -17 2 -20 -4 -4 -5 -9 -8 -13 -5
-4 2 -16 0 -27 -5 -15 -5 -7 -8 26 -8 35 -1 49 3 53 15 4 9 4 19 1 22 -3 3 -5
0 -5 -7z"/>
<path d="M882 809 c-12 -5 -27 -21 -33 -36 -11 -30 -5 -73 11 -73 6 0 10 -10
10 -21 0 -20 -1 -21 -25 -5 -36 24 -31 13 8 -17 l34 -25 -8 41 c-4 23 -11 54
-14 69 -6 21 -2 29 15 38 12 7 33 10 45 8 16 -3 22 -1 18 8 -6 17 -34 23 -61
13z"/>
<path d="M1040 792 c0 -23 4 -30 14 -26 17 7 65 -25 66 -43 0 -7 -9 -17 -20
-23 -11 -6 -20 -17 -20 -25 0 -8 -7 -15 -14 -15 -10 0 -16 15 -19 48 -2 28 -4
15 -4 -33 0 -72 -2 -80 -19 -78 -14 1 -19 -5 -19 -23 0 -13 6 -24 13 -24 7 0
26 -7 42 -15 17 -9 30 -11 30 -5 0 5 -7 10 -16 10 -9 0 -12 5 -8 12 5 7 2 9
-9 5 -11 -4 -14 -2 -10 9 7 18 13 18 29 -3 12 -16 13 -10 14 43 0 54 3 63 30
89 37 36 41 68 7 60 -18 -5 -30 2 -55 31 l-32 37 0 -31z"/>
<path d="M1574 768 c-5 -13 -9 -25 -9 -28 -5 -18 -30 -60 -36 -60 -4 0 -5 -15
-3 -32 l5 -33 -31 34 c-33 37 -42 28 -10 -12 16 -20 20 -41 21 -109 0 -78 7
-85 24 -25 2 4 4 10 5 15 1 4 2 11 1 16 -1 4 3 14 10 22 6 8 10 38 7 71 -3 57
-3 58 27 63 24 4 26 7 13 12 -19 8 -25 38 -7 38 5 0 7 -4 4 -10 -3 -5 -1 -10
4 -10 6 0 11 4 11 9 0 6 21 12 48 14 43 3 42 4 -11 4 -31 0 -60 2 -63 6 -12
12 8 28 28 21 14 -4 18 -2 14 5 -12 19 -44 12 -52 -11z"/>
<path d="M2203 730 c0 -36 2 -50 4 -32 2 17 2 47 0 65 -2 17 -4 3 -4 -33z"/>
<path d="M2223 735 c0 -33 2 -45 4 -27 2 18 2 45 0 60 -2 15 -4 0 -4 -33z"/>
<path d="M943 758 c6 -19 -11 -48 -28 -48 -20 0 -19 -26 1 -34 8 -3 12 -2 9 4
-3 6 -1 10 6 10 7 0 9 3 6 6 -3 4 0 16 8 28 18 24 19 46 4 46 -6 0 -9 -6 -6
-12z"/>
<path d="M1415 688 l74 -80 4 -82 3 -81 2 83 2 84 -67 70 c-38 38 -66 72 -63
75 3 4 -3 7 -13 9 -10 1 13 -30 58 -78z"/>
<path d="M2058 760 c8 -9 12 -43 11 -94 -1 -55 -4 -70 -8 -47 l-6 35 -14 -37
c-8 -20 -18 -38 -23 -38 -34 -5 -43 -2 -49 21 -6 20 -7 16 -8 -18 -1 -41 0
-43 22 -36 12 3 39 15 60 25 l37 19 0 79 c0 63 -3 81 -17 92 -15 11 -16 11 -5
-1z"/>
<path d="M2177 713 c-6 -33 -12 -44 -31 -49 -13 -3 -27 -15 -30 -27 -5 -19 -8
-20 -16 -7 -8 13 -10 13 -10 -2 0 -24 32 -19 70 12 28 23 31 30 28 70 l-3 45
-8 -42z"/>
<path d="M1137 692 c-38 -38 -38 -40 -34 -108 l3 -69 2 70 c2 65 4 71 39 107
20 21 35 38 32 38 -3 0 -22 -17 -42 -38z"/>
<path d="M1717 723 c18 -2 50 -2 70 0 21 2 7 4 -32 4 -38 0 -55 -2 -38 -4z"/>
<path d="M1933 665 c0 -38 2 -53 4 -32 2 20 2 52 0 70 -2 17 -4 1 -4 -38z"/>
<path d="M1001 663 c-8 -23 -19 -40 -24 -36 -6 3 -7 1 -3 -5 14 -22 -20 -12
-44 13 -13 14 -28 25 -33 25 -6 0 -1 -10 11 -22 11 -13 21 -27 22 -33 1 -5 4
-12 7 -15 4 -3 3 1 -1 8 -10 16 0 15 29 -4 14 -9 22 -21 18 -27 -4 -6 -1 -7 6
-3 7 5 10 15 6 23 -3 9 2 24 10 34 10 10 15 30 13 51 l-3 33 -14 -42z"/>
<path d="M1914 605 c0 -49 1 -71 3 -48 2 23 2 64 0 90 -2 26 -3 8 -3 -42z"/>
<path d="M1587 650 c-20 -23 -23 -90 -5 -108 10 -10 8 -14 -10 -18 -24 -7 -30
-24 -9 -24 8 0 19 10 26 23 15 30 22 69 10 62 -14 -9 -11 25 4 39 7 7 26 20
42 29 l30 16 -35 1 c-24 0 -41 -7 -53 -20z"/>
<path d="M1864 648 c-4 -6 -3 -8 3 -5 16 10 20 -11 15 -70 -3 -37 -8 -53 -18
-53 -13 0 -16 6 -13 28 1 4 4 6 8 5 4 -1 8 14 9 32 2 30 -1 35 -25 41 -25 7
-25 8 -8 15 12 4 -24 8 -84 8 -98 1 -103 0 -98 -19 3 -10 -1 -24 -9 -31 -8 -6
-14 -28 -14 -48 0 -37 -11 -62 -26 -63 -18 -1 -33 -10 -38 -24 -4 -11 4 -14
32 -14 28 0 33 3 22 10 -13 9 -13 12 3 24 12 9 17 27 17 58 0 28 6 50 15 58 8
7 13 16 10 20 -3 5 0 12 6 16 8 4 9 3 5 -4 -5 -8 20 -12 81 -14 83 -3 88 -4
91 -25 3 -18 -2 -23 -17 -23 -24 0 -28 -15 -6 -24 25 -9 17 -22 -22 -34 -114
-34 -110 -34 -133 -9 -15 16 -20 17 -20 6 0 -8 6 -23 13 -32 11 -15 19 -15 83
-2 39 7 90 18 113 25 l41 11 0 74 c0 59 -3 75 -14 75 -8 0 -18 -5 -22 -12z"/>
<path d="M1667 592 c-10 -10 -17 -29 -16 -43 l0 -24 10 23 c5 13 13 21 19 17
6 -3 7 1 4 9 -5 13 3 16 49 16 35 0 57 -5 59 -12 3 -8 9 -4 17 10 12 22 11 22
-57 22 -54 0 -72 -4 -85 -18z"/>
<path d="M1453 520 c0 -41 2 -58 4 -37 2 20 2 54 0 75 -2 20 -4 3 -4 -38z"/>
<path d="M155 2400 c-3 -5 -3 -10 1 -10 4 0 0 -6 -10 -13 -18 -13 -18 -15 4
-35 25 -23 41 -22 21 2 -6 8 -10 26 -7 40 5 27 2 33 -9 16z"/>
<path d="M2880 2362 c0 -13 -10 -27 -27 -35 l-27 -14 26 0 c30 0 57 42 38 61
-7 7 -10 3 -10 -12z"/>
<path d="M74 2162 c2 -9 5 -16 7 -14 2 2 18 -1 34 -7 28 -11 29 -10 10 5 -39
30 -53 35 -51 16z"/>
<path d="M2972 2079 c-22 -8 -22 -9 -5 -27 14 -15 20 -16 26 -5 15 25 4 41
-21 32z"/>
<path d="M2 1986 c-2 -30 0 -33 22 -29 17 4 23 10 19 21 -4 10 -2 13 5 8 6 -3
14 -1 18 5 4 8 3 9 -4 5 -7 -4 -12 -2 -12 5 0 7 -3 9 -6 6 -4 -3 -14 -2 -23 3
-14 7 -17 3 -19 -24z"/>
<path d="M2954 1890 c0 -12 7 -20 18 -20 15 0 17 -11 16 -95 0 -53 2 -99 6
-102 3 -4 6 48 6 115 0 120 0 122 -23 122 -16 0 -23 -6 -23 -20z"/>
<path d="M17 1688 c24 -26 33 -101 13 -113 -12 -7 -4 -25 11 -25 5 0 9 9 9 20
0 11 5 20 11 20 10 0 7 21 -12 70 -5 14 -20 32 -32 39 l-22 14 22 -25z"/>
<path d="M2987 1573 c-8 -14 -4 -184 5 -189 4 -3 8 40 8 95 0 95 -2 112 -13
94z"/>
<path d="M170 999 c0 -6 -9 -9 -20 -6 -11 3 -20 1 -20 -5 0 -5 -6 -6 -12 -2
-10 5 -10 4 -1 -6 10 -11 9 -16 -5 -26 -27 -20 -6 -29 23 -10 33 22 53 15 66
-24 6 -16 15 -30 21 -30 6 0 7 8 3 18 -4 9 -11 29 -17 44 -5 15 -15 26 -21 25
-7 -1 -11 6 -9 16 2 9 0 17 -3 17 -3 0 -5 -5 -5 -11z"/>
<path d="M156 887 c-11 -8 -21 -24 -23 -36 l-3 -21 43 21 c23 12 43 23 45 24
1 1 -5 8 -15 16 -9 8 -14 9 -10 2 4 -6 3 -14 -2 -17 -5 -4 -11 1 -13 9 -3 14
-5 14 -22 2z"/>
<path d="M2762 813 c-27 -39 -38 -77 -21 -70 8 2 13 10 12 16 -4 17 22 13 50
-9 33 -26 56 -27 33 -1 -10 11 -16 24 -13 29 3 4 -7 6 -23 4 -25 -4 -28 -1
-23 17 3 11 9 18 14 15 5 -3 9 2 9 10 0 24 -16 19 -38 -11z"/>
<path d="M150 803 c0 -9 42 -22 54 -17 27 10 17 21 -19 20 -19 -1 -35 -2 -35
-3z"/>
<path d="M2610 536 c0 -8 9 -20 19 -26 15 -8 19 -7 17 6 -3 22 -36 40 -36 20z"/>
<path d="M2484 505 c-4 -8 -10 -13 -15 -10 -4 3 -16 -9 -25 -27 -17 -32 -17
-33 2 -18 10 8 25 23 32 33 7 9 18 15 23 12 5 -3 6 1 3 9 -8 20 -13 20 -20 1z"/>
<path d="M528 429 c-10 -5 -18 -19 -18 -29 0 -33 15 -30 26 6 6 19 11 34 10
34 -1 0 -9 -5 -18 -11z"/>
<path d="M2122 205 c-2 -26 1 -35 12 -35 12 0 13 5 7 23 -5 12 -9 26 -9 30 -1
25 -8 12 -10 -18z"/>
<path d="M2169 231 c8 -5 20 -22 27 -38 l12 -28 1 26 c1 28 -15 49 -38 49 -13
0 -14 -2 -2 -9z"/>
<path d="M1472 114 c-12 -8 -20 -20 -17 -25 4 -5 -1 -9 -9 -9 -20 0 -20 -14
-1 -30 8 -7 12 -17 8 -23 -3 -6 -1 -7 6 -3 7 4 11 15 10 24 -4 42 1 52 26 52
18 0 23 4 19 15 -8 19 -14 19 -42 -1z"/>
</g>
</svg>
