<?xml version="1.0" standalone="no"?>
<!DOCTYPE svg PUBLIC "-//W3C//DTD SVG 20010904//EN"
 "http://www.w3.org/TR/2001/REC-SVG-20010904/DTD/svg10.dtd">
<svg version="1.0" xmlns="http://www.w3.org/2000/svg"
 width="300.000000pt" height="300.000000pt" viewBox="0 0 300.000000 300.000000"
 preserveAspectRatio="xMidYMid meet">
<metadata>
Created by potrace 1.10, written by Peter Selinger 2001-2011
</metadata>
<g transform="translate(0.000000,300.000000) scale(0.100000,-0.100000)"
fill="#000000" stroke="none">
<path d="M1047 1763 c18 -15 70 -76 116 -135 l83 -106 28 34 28 35 -56 69
c-57 71 -120 111 -196 125 l-35 7 32 -29z m203 -165 c0 -17 -19 -6 -36 20 -10
15 -24 33 -31 40 -7 7 -13 19 -13 25 0 7 18 -8 40 -33 22 -25 40 -48 40 -52z"/>
<path d="M1558 1775 c-26 -7 -62 -22 -81 -34 -20 -12 -120 -127 -227 -261
-106 -132 -201 -245 -212 -251 -34 -18 -14 -20 43 -3 80 23 110 46 175 129 33
41 61 75 64 74 3 0 27 -30 55 -66 57 -76 111 -119 169 -134 85 -21 83 -22 53
2 -16 12 -73 77 -128 145 l-99 123 101 125 c55 69 112 134 127 145 31 23 25
24 -40 6z m-202 -243 c-14 -26 -13 -32 10 -71 13 -24 38 -60 54 -81 42 -53 38
-61 -5 -10 -45 53 -78 80 -101 80 -10 0 -45 -28 -78 -62 -58 -61 -57 -58 9 28
45 60 116 144 121 144 2 0 -2 -13 -10 -28z"/>
<path d="M2600 1680 c-48 -9 -94 -35 -119 -65 -73 -94 -42 -234 64 -285 60
-29 164 -25 219 9 l36 23 0 74 c0 41 1 77 3 81 1 3 -37 7 -86 7 l-87 1 0 -39
0 -39 50 6 50 6 0 -30 c0 -34 -27 -49 -87 -49 -64 0 -123 57 -123 120 0 29 26
76 52 94 30 21 117 21 146 0 22 -15 25 -15 48 7 13 12 24 26 24 31 0 13 -72
45 -115 50 -22 3 -56 2 -75 -2z m-75 -88 c-18 -13 -35 -62 -35 -101 0 -24 9
-52 25 -75 31 -45 32 -58 4 -25 -28 32 -39 62 -39 110 0 44 24 99 43 99 8 0 8
-3 2 -8z m243 -130 l4 -24 -21 21 c-26 26 -26 34 -3 29 9 -2 18 -14 20 -26z"/>
<path d="M235 1645 l40 -35 132 0 c106 0 135 -3 147 -16 20 -19 20 -29 0 -48
-11 -12 -36 -16 -90 -16 -67 0 -74 2 -74 20 0 17 -7 20 -42 20 l-43 0 2 -127
c1 -109 4 -128 17 -127 9 0 75 1 147 2 l131 2 34 34 c45 45 46 86 4 128 -27
26 -28 31 -15 44 40 41 23 107 -35 136 -30 15 -63 18 -215 18 l-180 -1 40 -34z
m373 -49 c2 -9 -1 -16 -7 -16 -6 0 -11 5 -11 12 0 6 -8 21 -17 32 -18 20 -18
20 7 4 14 -8 26 -23 28 -32z m-3 -126 c4 -7 -6 -3 -22 10 -29 21 -30 23 -14
39 15 15 16 15 22 -10 3 -14 9 -32 14 -39z m-230 46 c18 -13 18 -14 -3 -41
-28 -35 -28 -65 -1 -100 l22 -27 -24 4 c-23 3 -24 7 -27 91 -1 48 1 87 6 87 4
0 17 -6 27 -14z m193 -62 c25 -17 28 -36 10 -52 -7 -5 -52 -12 -101 -13 l-87
-4 0 43 0 42 78 0 c54 0 84 -5 100 -16z m62 -32 c0 -16 -9 -37 -20 -47 -12
-11 -20 -13 -20 -6 0 6 6 14 14 17 8 3 13 17 12 35 -1 16 1 29 6 29 4 0 8 -13
8 -28z"/>
<path d="M831 1635 c-13 -25 -30 -45 -37 -45 -9 0 -14 -11 -14 -27 0 -16 -27
-78 -59 -140 l-59 -112 45 1 c43 1 45 2 70 52 14 28 27 52 28 54 2 2 16 -9 31
-23 48 -45 58 -47 94 -20 19 14 37 30 41 37 10 16 11 14 43 -49 29 -57 45 -64
74 -32 19 20 19 21 -33 121 -29 56 -51 107 -48 114 2 7 -4 17 -14 23 -11 5
-28 28 -38 50 -17 38 -21 41 -59 41 -38 0 -43 -3 -65 -45z m86 -11 c2 -6 -9
-11 -26 -12 -21 0 -28 3 -25 12 6 16 46 16 51 0z m26 -45 l37 -10 0 -59 c0
-55 -3 -62 -35 -95 -20 -19 -42 -35 -50 -35 -23 0 -82 65 -88 99 -18 90 34
129 136 100z"/>
<path d="M863 1558 c-29 -8 -33 -13 -33 -43 0 -46 17 -80 47 -96 23 -13 27
-11 54 19 22 24 29 42 29 72 0 22 -1 40 -3 40 -1 0 -16 4 -32 8 -17 5 -45 5
-62 0z m64 -44 c8 -21 -13 -64 -31 -64 -20 0 -39 36 -31 60 8 24 53 27 62 4z"/>
<path d="M1528 1646 c-16 -19 -28 -36 -28 -38 0 -2 33 -2 73 0 l72 4 -3 -152
-4 -151 43 3 42 3 -2 148 -2 147 70 0 71 0 0 35 0 35 -152 0 -153 0 -27 -34z
m191 -5 c10 -6 10 -10 1 -16 -7 -4 -18 -21 -26 -39 -10 -24 -13 -27 -14 -10 0
11 -9 29 -20 39 -11 10 -17 22 -14 26 7 11 55 11 73 0z m-32 -203 c-2 -18 -4
-6 -4 27 0 33 2 48 4 33 2 -15 2 -42 0 -60z"/>
<path d="M1897 1498 l2 -183 40 -3 41 -3 0 185 0 186 -42 0 -43 0 2 -182z"/>
<path d="M2040 1495 l0 -185 40 0 39 0 3 120 3 120 103 -120 c94 -111 105
-120 137 -120 l35 0 0 185 0 185 -40 0 -40 0 0 -122 c-1 -111 -2 -121 -16
-103 -8 11 -54 66 -102 122 -81 95 -90 102 -124 102 l-38 1 0 -185z m101 103
l33 -41 -26 6 c-21 6 -31 2 -48 -20 -13 -17 -19 -35 -16 -49 3 -12 2 -32 -2
-45 -6 -15 -9 10 -11 75 -1 53 1 101 4 106 12 20 34 9 66 -32z m212 -239 c-11
-11 -22 -2 -66 52 -39 49 -51 78 -17 41 12 -12 27 -22 35 -22 16 0 44 26 47
43 1 7 3 -15 5 -47 2 -32 0 -63 -4 -67z"/>
</g>
</svg>
