<?xml version="1.0" standalone="no"?>
<!DOCTYPE svg PUBLIC "-//W3C//DTD SVG 20010904//EN"
 "http://www.w3.org/TR/2001/REC-SVG-20010904/DTD/svg10.dtd">
<svg version="1.0" xmlns="http://www.w3.org/2000/svg"
 width="300.000000pt" height="300.000000pt" viewBox="0 0 300.000000 300.000000"
 preserveAspectRatio="xMidYMid meet">
<metadata>
Created by potrace 1.10, written by Peter Selinger 2001-2011
</metadata>
<g transform="translate(0.000000,300.000000) scale(0.100000,-0.100000)"
fill="#000000" stroke="none">
<path d="M1302 2244 c-54 -28 -77 -70 -77 -139 1 -52 6 -69 43 -132 23 -40 42
-82 42 -94 0 -12 -43 -96 -97 -188 -53 -91 -114 -196 -135 -233 -21 -37 -47
-72 -58 -78 -10 -5 -69 -10 -131 -10 -93 0 -120 -4 -153 -20 -55 -27 -79 -63
-84 -124 -3 -41 1 -57 20 -85 32 -48 68 -72 116 -78 24 -3 42 -11 42 -18 0 -7
-12 -38 -26 -70 -20 -43 -25 -68 -22 -100 14 -116 147 -174 241 -102 45 34
137 202 137 250 l0 37 278 0 c229 0 282 3 298 15 10 8 24 15 30 15 6 0 46 -60
89 -134 43 -74 94 -151 112 -170 94 -97 253 -28 253 108 0 20 -11 59 -25 86
-32 63 -32 80 0 80 38 0 86 24 119 59 23 24 30 42 33 83 6 70 -19 115 -77 146
-38 19 -60 22 -161 22 -97 0 -120 3 -137 18 -10 9 -72 109 -137 222 -65 113
-127 214 -137 226 -10 11 -18 26 -18 33 0 6 21 48 47 93 60 105 69 168 30 227
-49 74 -132 91 -211 41 l-47 -30 -35 26 c-44 34 -115 42 -162 18z m148 -61
c20 -21 40 -45 43 -53 6 -13 8 -13 14 0 3 8 23 32 43 53 31 30 45 37 76 37 56
0 100 -31 115 -78 15 -50 6 -69 -141 -323 -62 -107 -151 -259 -197 -338 -45
-79 -83 -145 -83 -147 0 -2 69 -4 154 -4 143 0 155 -2 187 -23 51 -35 79 -82
79 -136 0 -26 -5 -52 -12 -59 -18 -18 -943 -17 -978 1 -13 7 -35 28 -48 47
-32 48 -25 94 23 138 l35 32 144 0 144 0 156 270 c86 148 156 274 156 280 0 5
-23 51 -51 100 -38 66 -52 101 -52 129 0 67 46 110 117 111 31 0 45 -7 76 -37z
m355 -598 l148 -255 139 0 c158 0 186 -9 214 -68 21 -45 12 -91 -27 -128 -27
-26 -38 -29 -110 -33 -43 -1 -79 -4 -79 -6 0 -1 20 -38 45 -81 55 -98 61 -123
39 -169 -31 -67 -117 -86 -173 -40 -16 14 -78 110 -137 213 -59 103 -146 255
-194 337 -48 83 -93 168 -100 190 -18 54 -16 142 4 190 19 44 62 105 75 105 5
0 75 -115 156 -255z m-239 -124 c19 -40 34 -77 34 -82 0 -5 -45 -9 -100 -9
-69 0 -100 4 -100 12 0 12 62 127 93 172 l21 29 9 -24 c5 -13 25 -57 43 -98z
m-499 -392 c53 -25 68 -50 52 -81 -47 -91 -112 -186 -134 -196 -53 -25 -115
-9 -152 38 -26 33 -15 101 28 175 22 38 46 73 52 77 24 15 111 8 154 -13z"/>
<path d="M1315 2165 c-39 -38 -33 -75 31 -183 49 -84 54 -99 44 -120 -6 -14
-81 -145 -166 -293 l-155 -268 -155 -3 c-150 -3 -157 -4 -175 -27 -19 -23 -25
-65 -13 -96 17 -43 39 -45 524 -45 l460 0 0 35 c0 48 -24 92 -63 115 -28 18
-51 20 -206 20 -150 0 -172 2 -167 15 3 8 102 183 221 387 235 407 242 425
189 467 -33 26 -75 27 -103 4 -11 -10 -34 -42 -50 -71 l-28 -54 -37 61 c-21
34 -46 66 -56 71 -32 17 -70 11 -95 -15z m85 -37 c83 -97 98 -109 119 -97 10
7 32 33 47 57 15 24 36 48 46 53 24 13 58 -6 58 -32 0 -27 -5 -36 -218 -404
-102 -176 -192 -337 -200 -358 -15 -36 -14 -39 7 -60 20 -20 33 -22 192 -27
l171 -5 24 -28 c49 -58 53 -57 -411 -57 -251 0 -434 4 -449 10 -32 12 -36 54
-7 70 11 5 78 10 150 10 124 0 131 1 159 25 26 21 70 92 213 340 90 157 129
233 129 254 0 13 -22 66 -50 117 -54 100 -60 127 -32 143 25 15 30 14 52 -11z"/>
<path d="M1614 1746 c-23 -50 -26 -68 -22 -125 3 -36 13 -82 23 -101 51 -101
383 -668 402 -688 30 -30 77 -29 108 3 38 37 32 75 -25 175 -27 48 -50 95 -50
104 0 13 13 16 80 16 84 0 132 15 144 45 12 31 6 73 -13 96 -18 23 -25 24
-174 27 l-155 3 -128 222 c-70 122 -136 235 -146 252 l-17 29 -27 -58z m161
-251 c57 -100 116 -192 130 -205 25 -24 35 -25 171 -30 145 -5 164 -10 164
-45 0 -30 -22 -39 -103 -44 -138 -10 -149 -33 -78 -166 56 -102 61 -129 31
-145 -27 -15 -52 0 -80 47 -106 178 -329 570 -352 618 -27 59 -37 131 -21 171
6 16 7 15 20 -2 8 -10 61 -100 118 -199z"/>
<path d="M894 998 c-49 -84 -55 -128 -21 -162 29 -29 71 -34 103 -12 28 20
117 175 110 192 -8 21 -69 44 -115 44 -38 0 -41 -2 -77 -62z m127 11 c19 -10
19 -12 -13 -71 -38 -71 -67 -95 -97 -78 -12 6 -21 20 -21 32 0 22 46 108 64
120 16 11 44 10 67 -3z"/>
</g>
</svg>
