<?xml version="1.0" standalone="no"?>
<!DOCTYPE svg PUBLIC "-//W3C//DTD SVG 20010904//EN"
 "http://www.w3.org/TR/2001/REC-SVG-20010904/DTD/svg10.dtd">
<svg version="1.0" xmlns="http://www.w3.org/2000/svg"
 width="300.000000pt" height="293.000000pt" viewBox="0 0 300.000000 293.000000"
 preserveAspectRatio="xMidYMid meet">
<metadata>
Created by potrace 1.10, written by Peter Selinger 2001-2011
</metadata>
<g transform="translate(0.000000,293.000000) scale(0.100000,-0.100000)"
fill="#000000" stroke="none">
<path d="M1959 2883 c-57 -30 -92 -71 -109 -132 -14 -49 -13 -481 1 -536 14
-55 68 -120 114 -136 19 -7 35 -17 35 -21 0 -5 -27 -36 -60 -71 -34 -34 -58
-68 -55 -75 3 -8 5 -16 5 -18 0 -2 20 -4 45 -4 91 0 238 69 297 138 l27 32
292 0 291 0 48 26 c56 30 89 72 97 120 7 42 -10 46 -32 7 -26 -49 -59 -82 -97
-97 -31 -13 -87 -16 -313 -16 -188 0 -283 -4 -298 -11 -12 -7 -42 -30 -65 -51
-62 -57 -212 -121 -212 -91 0 3 11 21 24 38 41 53 42 76 5 110 -100 93 -107
103 -114 157 -4 29 -5 150 -3 268 3 204 4 217 27 262 13 25 31 49 40 52 9 4
27 13 41 21 21 13 86 15 440 13 l415 -3 37 -25 c20 -14 43 -36 51 -50 9 -14
25 -36 36 -49 l21 -24 0 27 c0 59 -68 136 -137 155 -24 7 -190 11 -439 11
l-400 0 -55 -27z"/>
<path d="M858 2550 c-275 -47 -477 -224 -542 -476 -9 -34 -16 -76 -16 -93 0
-26 -6 -34 -40 -51 -22 -11 -52 -39 -67 -62 -70 -104 -11 -300 111 -373 10 -6
22 -37 31 -78 46 -222 249 -380 530 -413 33 -4 65 -14 70 -21 7 -10 26 -13 60
-11 l50 3 0 55 0 55 -48 3 c-27 2 -55 -2 -63 -9 -20 -16 -121 -4 -217 28 -184
61 -305 197 -321 361 -3 26 -13 67 -22 92 -23 63 -30 258 -11 327 8 29 10 54
5 55 -17 6 22 153 62 235 70 142 180 231 350 285 64 20 95 23 215 22 126 0
148 -3 220 -28 107 -37 176 -79 244 -151 85 -91 160 -267 148 -348 -2 -16 2
-55 9 -86 25 -102 11 -256 -31 -363 -6 -16 -1 -18 39 -18 40 0 52 5 90 40 26
24 54 65 71 102 56 124 27 252 -65 295 -30 14 -40 24 -40 43 -1 54 -33 159
-72 239 -86 173 -243 289 -450 332 -95 19 -216 23 -300 9z m-537 -651 c-12
-44 -11 -240 2 -301 8 -38 11 -68 7 -68 -34 0 -100 94 -120 169 -20 76 -6 129
48 179 43 41 71 50 63 21z m1403 -26 c37 -36 46 -62 46 -126 0 -62 -28 -129
-73 -174 -34 -36 -62 -44 -53 -15 25 85 32 220 16 302 -4 25 -6 48 -3 52 6 11
33 -5 67 -39z m-726 -846 c2 -11 -3 -17 -17 -17 -25 0 -38 19 -20 31 19 12 33
6 37 -14z"/>
<path d="M2154 2550 c-26 -10 -54 -53 -54 -82 0 -30 48 -78 78 -78 31 0 82 52
82 84 0 28 -35 72 -65 79 -11 3 -29 2 -41 -3z m60 -51 c23 -34 3 -69 -41 -69
-33 0 -48 35 -28 66 19 30 49 31 69 3z"/>
<path d="M2401 2553 c-25 -10 -60 -57 -61 -81 0 -29 51 -82 78 -82 11 0 34 12
51 26 23 19 31 34 31 59 0 25 -8 40 -31 59 -31 26 -42 29 -68 19z m53 -49 c19
-18 20 -28 6 -55 -20 -37 -80 -18 -80 26 0 42 44 59 74 29z"/>
<path d="M2621 2535 c-50 -43 -49 -75 4 -129 36 -35 105 -2 120 57 6 22 1 33
-28 62 -42 42 -56 43 -96 10z m70 -25 c37 -20 18 -80 -26 -80 -42 0 -59 44
-29 74 18 19 28 20 55 6z"/>
<path d="M864 2306 c-202 -46 -376 -215 -429 -416 -19 -71 -19 -219 0 -290 55
-207 228 -370 440 -415 88 -18 142 -18 230 0 314 66 513 381 440 694 -33 137
-143 289 -259 356 -126 74 -290 101 -422 71z m304 -62 c305 -114 438 -455 291
-746 -97 -193 -340 -316 -548 -278 -223 40 -382 182 -435 387 -21 79 -20 210
0 281 60 209 230 354 449 385 60 9 181 -6 243 -29z"/>
<path d="M495 935 c-162 -35 -299 -122 -407 -256 -51 -63 -95 -145 -84 -156 9
-10 34 16 90 96 29 42 69 90 88 107 48 44 134 103 166 115 15 6 40 16 57 24
16 7 63 21 103 30 100 24 187 16 272 -23 36 -16 88 -34 115 -40 72 -15 183 -7
246 19 120 48 156 58 207 59 126 0 285 -57 398 -146 93 -72 150 -147 214 -284
27 -59 41 -163 38 -295 l-3 -140 -997 -3 c-879 -2 -998 -4 -998 -17 0 -13 119
-15 1018 -13 l1017 3 3 155 c3 190 -11 264 -76 393 -37 74 -62 108 -131 178
-71 71 -102 94 -181 133 -174 86 -342 99 -471 37 -134 -64 -246 -63 -398 4
-68 30 -90 35 -153 34 -40 0 -100 -7 -133 -14z"/>
</g>
</svg>
